<svg width="393" height="845" viewBox="0 0 393 845" fill="none" xmlns="http://www.w3.org/2000/svg">
<path d="M0 0H393V844H0V0Z" fill="#D9D9D9"/>
<rect width="844" height="393" transform="matrix(0 -1 -1 0 393 845)" fill="url(#paint0_linear_30_3697)"/>
<g filter="url(#filter0_di_30_3697)">
<path d="M160.006 742.9C160.006 746.212 159.394 748.42 158.17 749.524C156.97 750.604 154.582 751.144 151.006 751.144L145.426 751.252L140.89 751.18C136.066 751.18 132.958 750.556 131.566 749.308C130.198 748.036 129.514 746.068 129.514 743.404L129.298 738.364C129.298 734.428 129.874 731.548 131.026 729.724C132.178 727.876 134.53 726.952 138.082 726.952L144.922 726.772C146.914 726.772 148.558 726.796 149.854 726.844C151.15 726.868 152.722 726.976 154.57 727.168C156.418 727.36 157.738 728.176 158.53 729.616C159.322 731.032 159.718 732.976 159.718 735.448H152.626C152.626 734.344 152.35 733.612 151.798 733.252C151.27 732.868 150.418 732.676 149.242 732.676L147.19 732.64H145.174L141.466 732.676C139.258 732.676 137.902 733.084 137.398 733.9C136.918 734.716 136.678 736.408 136.678 738.976C136.678 741.616 136.966 743.332 137.542 744.124C138.118 744.916 139.654 745.312 142.15 745.312L144.994 745.384L148.738 745.348C150.202 745.348 151.246 745.144 151.87 744.736C152.494 744.328 152.806 743.368 152.806 741.856H159.97L160.006 742.9ZM196.871 726.988V751H189.527V741.748H172.967V751H165.659V726.988H172.967V735.772H189.527V726.988H196.871ZM209.364 751H201.228L214.62 726.988H224.484L237.588 751H229.524L227.256 746.644H211.74L209.364 751ZM214.296 741.676H224.592L219.444 732.172L214.296 741.676ZM250.445 751V733H239.717V726.988H268.445V733H257.753V751H250.445Z" fill="white"/>
</g>
<rect width="361" height="50" transform="translate(16 157)" fill="white"/>
<path d="M40.6826 188V182.787H40.5498C40.3285 182.942 40.0684 183.078 39.7695 183.194C39.4762 183.305 39.1553 183.393 38.8066 183.459C38.458 183.52 38.0845 183.551 37.686 183.551C36.6789 183.551 35.835 183.354 35.1543 182.961C34.4792 182.569 33.9701 182.04 33.627 181.376C33.2839 180.706 33.1123 179.965 33.1123 179.151V176.022H34.6064V179.16C34.6064 179.774 34.7227 180.308 34.9551 180.762C35.193 181.21 35.5417 181.559 36.001 181.808C36.4603 182.051 37.022 182.173 37.686 182.173C38.1177 182.173 38.5189 182.134 38.8896 182.057C39.266 181.979 39.6035 181.868 39.9023 181.725C40.2067 181.575 40.4668 181.404 40.6826 181.21V176.022H42.1768V188H40.6826ZM47.1719 188.158C46.6074 188.158 46.0983 188.05 45.6445 187.834C45.1963 187.618 44.8394 187.311 44.5737 186.913C44.3136 186.514 44.1836 186.044 44.1836 185.501V185.485C44.1836 184.954 44.3109 184.5 44.5654 184.124C44.82 183.742 45.1908 183.443 45.6777 183.227C46.1647 183.011 46.7541 182.884 47.4458 182.845L50.7329 182.646V183.8L47.6201 183.999C46.9395 184.038 46.4414 184.179 46.126 184.422C45.8161 184.666 45.6611 185.009 45.6611 185.452V185.468C45.6611 185.922 45.8327 186.276 46.1758 186.531C46.5189 186.78 46.9505 186.904 47.4707 186.904C47.9632 186.904 48.4004 186.807 48.7822 186.614C49.1641 186.415 49.4629 186.146 49.6787 185.809C49.9001 185.471 50.0107 185.089 50.0107 184.663V181.874C50.0107 181.321 49.842 180.9 49.5044 180.612C49.1724 180.319 48.6715 180.172 48.002 180.172C47.4652 180.172 47.0252 180.269 46.6821 180.463C46.339 180.651 46.1094 180.919 45.9932 181.268L45.9849 181.293H44.5405L44.5488 181.243C44.6263 180.773 44.82 180.363 45.1299 180.015C45.4453 179.66 45.8521 179.387 46.3501 179.193C46.8481 178.994 47.4154 178.894 48.0518 178.894C48.7822 178.894 49.3993 179.013 49.9028 179.251C50.4119 179.489 50.7965 179.832 51.0566 180.28C51.3223 180.723 51.4551 181.254 51.4551 181.874V188H50.0107V186.68H49.8779C49.6898 186.996 49.4601 187.264 49.189 187.485C48.9233 187.707 48.6217 187.875 48.2842 187.992C47.9466 188.102 47.5758 188.158 47.1719 188.158ZM60.2354 179.052V180.247H57.3384V188H55.894V180.247H52.9971V179.052H60.2354ZM61.8188 188V179.052H63.2632V185.726H64.0269L63.0474 186.257L67.8203 179.052H69.2646V188H67.8203V181.326H67.0566L68.0361 180.795L63.2632 188H61.8188Z" fill="black"/>
<path d="M332.229 190.233V175.715C332.229 175.621 332.238 175.538 332.254 175.466C332.271 175.388 332.304 175.303 332.354 175.208C332.675 174.666 333.14 174.171 333.749 173.723C334.363 173.274 335.079 172.917 335.898 172.652C336.723 172.381 337.608 172.245 338.555 172.245C339.744 172.245 340.815 172.464 341.767 172.901C342.719 173.333 343.463 173.891 344 174.578C344.537 173.891 345.281 173.333 346.233 172.901C347.185 172.464 348.253 172.245 349.437 172.245C350.389 172.245 351.274 172.381 352.093 172.652C352.912 172.917 353.626 173.274 354.235 173.723C354.849 174.171 355.317 174.666 355.638 175.208C355.693 175.303 355.726 175.388 355.737 175.466C355.754 175.538 355.762 175.621 355.762 175.715V190.233C355.762 190.598 355.66 190.858 355.455 191.013C355.25 191.174 355.015 191.254 354.75 191.254C354.589 191.254 354.437 191.215 354.293 191.138C354.149 191.066 353.991 190.974 353.82 190.864C353.244 190.416 352.58 190.064 351.828 189.81C351.075 189.561 350.289 189.439 349.47 189.444C348.657 189.45 347.863 189.608 347.088 189.917C346.319 190.227 345.627 190.681 345.013 191.279C344.825 191.461 344.65 191.586 344.49 191.652C344.329 191.724 344.166 191.76 344 191.76C343.834 191.76 343.671 191.724 343.51 191.652C343.35 191.586 343.173 191.461 342.979 191.279C342.376 190.676 341.684 190.219 340.904 189.909C340.129 189.605 339.335 189.45 338.521 189.444C337.702 189.439 336.917 189.561 336.164 189.81C335.417 190.064 334.753 190.416 334.172 190.864C334 190.974 333.843 191.066 333.699 191.138C333.555 191.215 333.403 191.254 333.242 191.254C332.977 191.254 332.741 191.174 332.537 191.013C332.332 190.858 332.229 190.598 332.229 190.233ZM333.699 189.411C334.258 188.979 334.96 188.631 335.807 188.365C336.654 188.105 337.57 187.975 338.555 187.975C339.186 187.975 339.792 188.05 340.373 188.199C340.959 188.349 341.499 188.548 341.991 188.797C342.484 189.046 342.907 189.317 343.261 189.61V175.989C342.857 175.292 342.235 174.738 341.394 174.329C340.552 173.919 339.606 173.714 338.555 173.714C337.88 173.714 337.227 173.806 336.596 173.988C335.965 174.171 335.398 174.425 334.894 174.752C334.39 175.078 333.992 175.46 333.699 175.897V189.411ZM344.73 189.61C345.085 189.317 345.508 189.046 346 188.797C346.493 188.548 347.03 188.349 347.611 188.199C348.197 188.05 348.806 187.975 349.437 187.975C350.428 187.975 351.346 188.105 352.193 188.365C353.04 188.631 353.74 188.979 354.293 189.411V175.897C354 175.46 353.601 175.078 353.098 174.752C352.6 174.425 352.035 174.171 351.404 173.988C350.773 173.806 350.118 173.714 349.437 173.714C348.391 173.714 347.448 173.919 346.606 174.329C345.765 174.738 345.14 175.292 344.73 175.989V189.61Z" fill="white"/>
<path d="M377 206.667H32V207.333H377V206.667Z" fill="#3C3C43" fill-opacity="0.36" mask="url(#path-4-inside-1_30_3697)"/>
<rect width="361" height="50" transform="translate(16 207)" fill="white"/>
<path d="M35.1045 238H33.6104V226.022H35.1045V231.285H35.5361L40.4834 226.022H42.3594L36.6401 231.974V231.575L42.8408 238H40.8652L35.5361 232.48H35.1045V238ZM46.2588 238.158C45.6943 238.158 45.1852 238.05 44.7314 237.834C44.2832 237.618 43.9263 237.311 43.6606 236.913C43.4006 236.514 43.2705 236.044 43.2705 235.501V235.485C43.2705 234.954 43.3978 234.5 43.6523 234.124C43.9069 233.742 44.2777 233.443 44.7646 233.227C45.2516 233.011 45.841 232.884 46.5327 232.845L49.8198 232.646V233.8L46.707 233.999C46.0264 234.038 45.5283 234.179 45.2129 234.422C44.903 234.666 44.748 235.009 44.748 235.452V235.468C44.748 235.922 44.9196 236.276 45.2627 236.531C45.6058 236.78 46.0374 236.904 46.5576 236.904C47.0501 236.904 47.4873 236.807 47.8691 236.614C48.251 236.415 48.5498 236.146 48.7656 235.809C48.987 235.471 49.0977 235.089 49.0977 234.663V231.874C49.0977 231.321 48.9289 230.9 48.5913 230.612C48.2593 230.319 47.7585 230.172 47.0889 230.172C46.5521 230.172 46.1121 230.269 45.769 230.463C45.4259 230.651 45.1963 230.919 45.0801 231.268L45.0718 231.293H43.6274L43.6357 231.243C43.7132 230.773 43.9069 230.363 44.2168 230.015C44.5322 229.66 44.939 229.387 45.437 229.193C45.9351 228.994 46.5023 228.894 47.1387 228.894C47.8691 228.894 48.4862 229.013 48.9897 229.251C49.4989 229.489 49.8835 229.832 50.1436 230.28C50.4092 230.723 50.542 231.254 50.542 231.874V238H49.0977V236.68H48.9648C48.7767 236.996 48.547 237.264 48.2759 237.485C48.0103 237.707 47.7087 237.875 47.3711 237.992C47.0335 238.102 46.6628 238.158 46.2588 238.158ZM58.7163 238V233.949H54.2837V238H52.8394V229.052H54.2837V232.754H58.7163V229.052H60.1606V238H58.7163ZM64.9648 238.158C64.4004 238.158 63.8913 238.05 63.4375 237.834C62.9893 237.618 62.6323 237.311 62.3667 236.913C62.1066 236.514 61.9766 236.044 61.9766 235.501V235.485C61.9766 234.954 62.1038 234.5 62.3584 234.124C62.613 233.742 62.9837 233.443 63.4707 233.227C63.9577 233.011 64.547 232.884 65.2388 232.845L68.5259 232.646V233.8L65.4131 233.999C64.7324 234.038 64.2344 234.179 63.9189 234.422C63.609 234.666 63.4541 235.009 63.4541 235.452V235.468C63.4541 235.922 63.6257 236.276 63.9688 236.531C64.3118 236.78 64.7435 236.904 65.2637 236.904C65.7562 236.904 66.1934 236.807 66.5752 236.614C66.957 236.415 67.2559 236.146 67.4717 235.809C67.693 235.471 67.8037 235.089 67.8037 234.663V231.874C67.8037 231.321 67.6349 230.9 67.2974 230.612C66.9653 230.319 66.4645 230.172 65.7949 230.172C65.2581 230.172 64.8182 230.269 64.4751 230.463C64.132 230.651 63.9023 230.919 63.7861 231.268L63.7778 231.293H62.3335L62.3418 231.243C62.4193 230.773 62.613 230.363 62.9229 230.015C63.2383 229.66 63.645 229.387 64.1431 229.193C64.6411 228.994 65.2083 228.894 65.8447 228.894C66.5752 228.894 67.1922 229.013 67.6958 229.251C68.2049 229.489 68.5895 229.832 68.8496 230.28C69.1152 230.723 69.248 231.254 69.248 231.874V238H67.8037V236.68H67.6709C67.4827 236.996 67.2531 237.264 66.9819 237.485C66.7163 237.707 66.4147 237.875 66.0771 237.992C65.7396 238.102 65.3688 238.158 64.9648 238.158ZM73.6455 234.497C73.5846 235.316 73.4546 235.991 73.2554 236.522C73.0617 237.054 72.7933 237.447 72.4502 237.701C72.1126 237.956 71.6948 238.083 71.1968 238.083C71.0418 238.083 70.909 238.072 70.7983 238.05C70.6877 238.033 70.6019 238.014 70.541 237.992V236.688C70.5798 236.7 70.6489 236.713 70.7485 236.73C70.8481 236.741 70.9505 236.747 71.0557 236.747C71.3324 236.747 71.5565 236.641 71.728 236.431C71.8996 236.221 72.0296 235.939 72.1182 235.584C72.2122 235.225 72.2731 234.824 72.3008 234.381L72.6826 229.052H78.5347V238H77.0903V230.247H73.9775L73.6455 234.497ZM80.8735 238V229.052H82.3179V235.726H83.0815L82.1021 236.257L86.875 229.052H88.3193V238H86.875V231.326H86.1113L87.0908 230.795L82.3179 238H80.8735ZM101.431 229.052V230.247H98.5337V238H97.0894V230.247H94.1924V229.052H101.431ZM105.363 238.158C104.799 238.158 104.29 238.05 103.836 237.834C103.388 237.618 103.031 237.311 102.765 236.913C102.505 236.514 102.375 236.044 102.375 235.501V235.485C102.375 234.954 102.502 234.5 102.757 234.124C103.011 233.742 103.382 233.443 103.869 233.227C104.356 233.011 104.945 232.884 105.637 232.845L108.924 232.646V233.8L105.812 233.999C105.131 234.038 104.633 234.179 104.317 234.422C104.007 234.666 103.853 235.009 103.853 235.452V235.468C103.853 235.922 104.024 236.276 104.367 236.531C104.71 236.78 105.142 236.904 105.662 236.904C106.155 236.904 106.592 236.807 106.974 236.614C107.355 236.415 107.654 236.146 107.87 235.809C108.091 235.471 108.202 235.089 108.202 234.663V231.874C108.202 231.321 108.033 230.9 107.696 230.612C107.364 230.319 106.863 230.172 106.193 230.172C105.657 230.172 105.217 230.269 104.874 230.463C104.53 230.651 104.301 230.919 104.185 231.268L104.176 231.293H102.732L102.74 231.243C102.818 230.773 103.011 230.363 103.321 230.015C103.637 229.66 104.043 229.387 104.542 229.193C105.04 228.994 105.607 228.894 106.243 228.894C106.974 228.894 107.591 229.013 108.094 229.251C108.603 229.489 108.988 229.832 109.248 230.28C109.514 230.723 109.646 231.254 109.646 231.874V238H108.202V236.68H108.069C107.881 236.996 107.652 237.264 107.38 237.485C107.115 237.707 106.813 237.875 106.476 237.992C106.138 238.102 105.767 238.158 105.363 238.158ZM121.953 230.247H117.669V238H116.225V229.052H121.953V230.247ZM123.636 240.988V229.052H125.08V230.479H125.213C125.396 230.147 125.625 229.865 125.902 229.633C126.179 229.395 126.494 229.212 126.848 229.085C127.202 228.958 127.587 228.894 128.002 228.894C128.76 228.894 129.419 229.088 129.978 229.475C130.542 229.857 130.979 230.394 131.289 231.085C131.599 231.777 131.754 232.588 131.754 233.518V233.534C131.754 234.469 131.599 235.283 131.289 235.975C130.979 236.666 130.542 237.203 129.978 237.585C129.419 237.967 128.76 238.158 128.002 238.158C127.592 238.158 127.205 238.094 126.84 237.967C126.48 237.834 126.159 237.651 125.877 237.419C125.6 237.187 125.379 236.91 125.213 236.589H125.08V240.988H123.636ZM127.67 236.879C128.218 236.879 128.685 236.747 129.073 236.481C129.46 236.21 129.756 235.825 129.961 235.327C130.171 234.824 130.276 234.226 130.276 233.534V233.518C130.276 232.82 130.171 232.223 129.961 231.725C129.756 231.227 129.46 230.845 129.073 230.579C128.685 230.308 128.218 230.172 127.67 230.172C127.128 230.172 126.66 230.308 126.267 230.579C125.874 230.85 125.573 231.235 125.362 231.733C125.152 232.231 125.047 232.826 125.047 233.518V233.534C125.047 234.22 125.152 234.815 125.362 235.319C125.573 235.817 125.874 236.201 126.267 236.473C126.66 236.744 127.128 236.879 127.67 236.879ZM134.109 241.138C134.015 241.138 133.91 241.132 133.794 241.121C133.678 241.116 133.57 241.104 133.47 241.088V239.901C133.559 239.917 133.656 239.929 133.761 239.934C133.866 239.94 133.968 239.942 134.068 239.942C134.477 239.942 134.812 239.837 135.072 239.627C135.338 239.417 135.551 239.054 135.711 238.54L135.877 238.008L132.565 229.052H134.109L136.865 237.319L136.292 236.415H136.973L136.4 237.319L139.148 229.052H140.667L137.172 238.548C136.929 239.217 136.672 239.74 136.4 240.117C136.129 240.493 135.811 240.756 135.446 240.905C135.086 241.06 134.641 241.138 134.109 241.138ZM142.234 238V229.052H149.472V238H148.028V230.247H143.678V238H142.234ZM151.811 238V229.052H153.255V235.726H154.019L153.04 236.257L157.812 229.052H159.257V238H157.812V231.326H157.049L158.028 230.795L153.255 238H151.811Z" fill="black"/>
<path d="M336.753 242.316C336.56 242.173 336.441 241.979 336.396 241.735C336.358 241.492 336.396 241.196 336.513 240.847L338.779 234.057L332.96 229.874C332.667 229.663 332.462 229.447 332.346 229.226C332.235 229.005 332.218 228.778 332.296 228.545C332.368 228.319 332.514 228.147 332.736 228.031C332.957 227.915 333.25 227.859 333.616 227.865L340.763 227.906L342.946 221.083C343.056 220.734 343.198 220.474 343.369 220.303C343.546 220.126 343.757 220.037 344 220.037C344.243 220.037 344.451 220.126 344.623 220.303C344.794 220.474 344.938 220.734 345.054 221.083L347.229 227.906L354.376 227.865C354.747 227.859 355.04 227.915 355.256 228.031C355.477 228.147 355.627 228.319 355.704 228.545C355.782 228.778 355.762 229.005 355.646 229.226C355.535 229.447 355.331 229.663 355.032 229.874L349.213 234.057L351.479 240.847C351.601 241.196 351.639 241.492 351.595 241.735C351.551 241.979 351.435 242.173 351.247 242.316C351.047 242.46 350.826 242.51 350.583 242.466C350.339 242.427 350.068 242.3 349.769 242.084L344 237.851L338.223 242.084C337.924 242.3 337.653 242.427 337.409 242.466C337.166 242.51 336.947 242.46 336.753 242.316ZM338.048 240.54C338.065 240.562 338.101 240.554 338.156 240.515L343.51 236.464C343.665 236.343 343.826 236.282 343.992 236.282C344.163 236.282 344.329 236.343 344.49 236.464L349.835 240.515C349.896 240.554 349.935 240.562 349.952 240.54C349.963 240.529 349.96 240.493 349.943 240.432L347.769 234.082C347.724 233.955 347.705 233.836 347.71 233.725C347.716 233.614 347.746 233.512 347.802 233.418C347.857 233.324 347.943 233.238 348.059 233.161L353.554 229.317C353.61 229.279 353.632 229.248 353.621 229.226C353.615 229.204 353.579 229.193 353.513 229.193L346.797 229.284C346.598 229.29 346.435 229.248 346.308 229.16C346.18 229.071 346.083 228.93 346.017 228.736L344.066 222.32C344.05 222.253 344.028 222.22 344 222.22C343.972 222.22 343.947 222.253 343.925 222.32L341.975 228.736C341.914 228.93 341.817 229.071 341.684 229.16C341.557 229.248 341.394 229.29 341.194 229.284L334.487 229.193C334.421 229.193 334.382 229.204 334.371 229.226C334.36 229.248 334.382 229.279 334.438 229.317L339.941 233.161C340.052 233.238 340.135 233.324 340.19 233.418C340.251 233.512 340.281 233.614 340.281 233.725C340.287 233.836 340.267 233.955 340.223 234.082L338.048 240.432C338.032 240.493 338.032 240.529 338.048 240.54Z" fill="white"/>
<path d="M377 256.667H32V257.333H377V256.667Z" fill="#3C3C43" fill-opacity="0.36" mask="url(#path-8-inside-2_30_3697)"/>
<rect width="361" height="50" transform="translate(16 257)" fill="white"/>
<path d="M33.7183 290.366H32.332V286.655H33.2202C33.5135 286.5 33.7487 286.282 33.9258 286C34.1029 285.712 34.2357 285.363 34.3242 284.954C34.4183 284.544 34.4792 284.079 34.5068 283.559L34.9634 276.022H42.542V286.655H44.0361V290.366H42.6499V288H33.7183V290.366ZM35.9097 283.592C35.882 284.041 35.8405 284.444 35.7852 284.804C35.7298 285.164 35.6468 285.488 35.5361 285.775C35.4255 286.058 35.2705 286.318 35.0713 286.556V286.655H41.0479V277.367H36.2998L35.9097 283.592ZM45.5366 288V279.052H46.981V285.726H47.7446L46.7651 286.257L51.5381 279.052H52.9824V288H51.5381V281.326H50.7744L51.7539 280.795L46.981 288H45.5366ZM55.3379 290.988V279.052H56.7822V280.479H56.915C57.0977 280.147 57.3273 279.865 57.604 279.633C57.8807 279.395 58.1961 279.212 58.5503 279.085C58.9045 278.958 59.2891 278.894 59.7041 278.894C60.4622 278.894 61.1208 279.088 61.6797 279.475C62.2441 279.857 62.6813 280.394 62.9912 281.085C63.3011 281.777 63.4561 282.588 63.4561 283.518V283.534C63.4561 284.469 63.3011 285.283 62.9912 285.975C62.6813 286.666 62.2441 287.203 61.6797 287.585C61.1208 287.967 60.4622 288.158 59.7041 288.158C59.2946 288.158 58.9072 288.094 58.542 287.967C58.1823 287.834 57.8613 287.651 57.5791 287.419C57.3024 287.187 57.0811 286.91 56.915 286.589H56.7822V290.988H55.3379ZM59.3721 286.879C59.9199 286.879 60.3875 286.747 60.7749 286.481C61.1623 286.21 61.4583 285.825 61.6631 285.327C61.8734 284.824 61.9785 284.226 61.9785 283.534V283.518C61.9785 282.82 61.8734 282.223 61.6631 281.725C61.4583 281.227 61.1623 280.845 60.7749 280.579C60.3875 280.308 59.9199 280.172 59.3721 280.172C58.8298 280.172 58.3621 280.308 57.9692 280.579C57.5763 280.85 57.2747 281.235 57.0645 281.733C56.8542 282.231 56.749 282.826 56.749 283.518V283.534C56.749 284.22 56.8542 284.815 57.0645 285.319C57.2747 285.817 57.5763 286.201 57.9692 286.473C58.3621 286.744 58.8298 286.879 59.3721 286.879ZM69.0322 288.158C68.18 288.158 67.4468 287.97 66.8325 287.593C66.2238 287.217 65.7534 286.686 65.4214 286C65.0949 285.308 64.9316 284.494 64.9316 283.559V283.551C64.9316 282.627 65.0949 281.816 65.4214 281.119C65.7534 280.421 66.221 279.876 66.8242 279.483C67.4274 279.09 68.133 278.894 68.9409 278.894C69.7544 278.894 70.4517 279.082 71.0327 279.458C71.6193 279.835 72.0675 280.361 72.3774 281.036C72.6929 281.705 72.8506 282.486 72.8506 283.376V283.941H65.6787V282.787H72.1118L71.3979 283.841V283.269C71.3979 282.566 71.2928 281.987 71.0825 281.534C70.8722 281.08 70.5817 280.742 70.2109 280.521C69.8402 280.294 69.4141 280.181 68.9326 280.181C68.4512 280.181 68.0195 280.3 67.6377 280.538C67.2614 280.77 66.9626 281.116 66.7412 281.575C66.5199 282.035 66.4092 282.599 66.4092 283.269V283.841C66.4092 284.478 66.5171 285.023 66.7329 285.477C66.9487 285.925 67.2559 286.271 67.6543 286.514C68.0527 286.752 68.5231 286.871 69.0654 286.871C69.4694 286.871 69.8208 286.816 70.1196 286.705C70.4185 286.594 70.6647 286.453 70.8584 286.282C71.0521 286.11 71.1877 285.936 71.2651 285.759L71.2983 285.684H72.7427L72.7261 285.75C72.6486 286.055 72.5103 286.351 72.311 286.639C72.1174 286.921 71.8656 287.178 71.5557 287.411C71.2458 287.638 70.8778 287.82 70.4517 287.958C70.0311 288.091 69.5579 288.158 69.0322 288.158ZM76.6504 283.924H76.1938V288H74.7495V279.052H76.1938V282.795H76.6504L80.1118 279.052H81.8467L77.7046 283.393V283.136L82.0044 288H80.1533L76.6504 283.924ZM89.5645 279.052V280.247H86.6675V288H85.2231V280.247H82.3262V279.052H89.5645ZM94.5015 288.158C93.6548 288.158 92.9215 287.972 92.3018 287.602C91.6875 287.225 91.2116 286.691 90.874 286C90.542 285.308 90.376 284.486 90.376 283.534V283.518C90.376 282.56 90.542 281.736 90.874 281.044C91.2116 280.352 91.6875 279.821 92.3018 279.45C92.9215 279.079 93.6548 278.894 94.5015 278.894C95.3537 278.894 96.0869 279.079 96.7012 279.45C97.3154 279.821 97.7886 280.352 98.1206 281.044C98.4582 281.736 98.627 282.56 98.627 283.518V283.534C98.627 284.486 98.4582 285.308 98.1206 286C97.7886 286.691 97.3154 287.225 96.7012 287.602C96.0869 287.972 95.3537 288.158 94.5015 288.158ZM94.5015 286.879C95.0659 286.879 95.5446 286.747 95.9375 286.481C96.3304 286.215 96.6292 285.833 96.834 285.335C97.0443 284.837 97.1494 284.237 97.1494 283.534V283.518C97.1494 282.809 97.0443 282.206 96.834 281.708C96.6292 281.21 96.3304 280.831 95.9375 280.571C95.5446 280.305 95.0659 280.172 94.5015 280.172C93.937 280.172 93.4583 280.305 93.0654 280.571C92.6725 280.831 92.3709 281.21 92.1606 281.708C91.9559 282.206 91.8535 282.809 91.8535 283.518V283.534C91.8535 284.237 91.9559 284.837 92.1606 285.335C92.3709 285.833 92.6725 286.215 93.0654 286.481C93.4583 286.747 93.937 286.879 94.5015 286.879ZM100.534 290.988V279.052H101.979V280.479H102.111C102.294 280.147 102.524 279.865 102.8 279.633C103.077 279.395 103.392 279.212 103.747 279.085C104.101 278.958 104.485 278.894 104.9 278.894C105.659 278.894 106.317 279.088 106.876 279.475C107.44 279.857 107.878 280.394 108.188 281.085C108.497 281.777 108.652 282.588 108.652 283.518V283.534C108.652 284.469 108.497 285.283 108.188 285.975C107.878 286.666 107.44 287.203 106.876 287.585C106.317 287.967 105.659 288.158 104.9 288.158C104.491 288.158 104.104 288.094 103.738 287.967C103.379 287.834 103.058 287.651 102.775 287.419C102.499 287.187 102.277 286.91 102.111 286.589H101.979V290.988H100.534ZM104.568 286.879C105.116 286.879 105.584 286.747 105.971 286.481C106.359 286.21 106.655 285.825 106.859 285.327C107.07 284.824 107.175 284.226 107.175 283.534V283.518C107.175 282.82 107.07 282.223 106.859 281.725C106.655 281.227 106.359 280.845 105.971 280.579C105.584 280.308 105.116 280.172 104.568 280.172C104.026 280.172 103.558 280.308 103.166 280.579C102.773 280.85 102.471 281.235 102.261 281.733C102.05 282.231 101.945 282.826 101.945 283.518V283.534C101.945 284.22 102.05 284.815 102.261 285.319C102.471 285.817 102.773 286.201 103.166 286.473C103.558 286.744 104.026 286.879 104.568 286.879ZM110.609 288V279.052H112.054V288H110.609ZM111.34 277.325C111.069 277.325 110.833 277.228 110.634 277.035C110.441 276.835 110.344 276.6 110.344 276.329C110.344 276.052 110.441 275.817 110.634 275.624C110.833 275.43 111.069 275.333 111.34 275.333C111.617 275.333 111.852 275.43 112.045 275.624C112.239 275.817 112.336 276.052 112.336 276.329C112.336 276.6 112.239 276.835 112.045 277.035C111.852 277.228 111.617 277.325 111.34 277.325ZM119.182 288V284.796H117.663L115.38 288H113.679L116.177 284.53C115.546 284.353 115.051 284.043 114.691 283.601C114.332 283.158 114.152 282.632 114.152 282.023V282.007C114.152 281.393 114.29 280.867 114.567 280.43C114.844 279.987 115.234 279.647 115.737 279.409C116.241 279.171 116.833 279.052 117.514 279.052H120.626V288H119.182ZM117.514 283.601H119.182V280.247H117.514C116.927 280.247 116.465 280.399 116.127 280.704C115.795 281.008 115.629 281.431 115.629 281.974V281.99C115.629 282.461 115.795 282.848 116.127 283.152C116.465 283.451 116.927 283.601 117.514 283.601Z" fill="black"/>
<path d="M333.624 279.94C333.624 278.778 333.84 277.69 334.271 276.678C334.709 275.665 335.312 274.774 336.081 274.005C336.856 273.23 337.75 272.627 338.762 272.195C339.78 271.758 340.868 271.54 342.024 271.54C343.181 271.54 344.266 271.758 345.278 272.195C346.297 272.627 347.19 273.23 347.959 274.005C348.729 274.774 349.332 275.665 349.769 276.678C350.206 277.69 350.425 278.778 350.425 279.94C350.425 280.914 350.264 281.844 349.943 282.729C349.622 283.609 349.18 284.403 348.615 285.111L354.061 290.582C354.16 290.687 354.235 290.806 354.285 290.938C354.34 291.071 354.368 291.212 354.368 291.362C354.368 291.567 354.321 291.755 354.227 291.926C354.138 292.098 354.011 292.233 353.845 292.333C353.679 292.433 353.488 292.482 353.272 292.482C353.123 292.482 352.979 292.455 352.84 292.399C352.702 292.344 352.58 292.264 352.475 292.159L347.005 286.68C346.308 287.2 345.536 287.607 344.689 287.9C343.848 288.188 342.96 288.332 342.024 288.332C340.868 288.332 339.78 288.116 338.762 287.685C337.75 287.247 336.856 286.644 336.081 285.875C335.312 285.1 334.709 284.207 334.271 283.194C333.84 282.181 333.624 281.097 333.624 279.94ZM335.176 279.94C335.176 280.881 335.353 281.766 335.708 282.596C336.067 283.421 336.56 284.148 337.185 284.779C337.81 285.405 338.535 285.894 339.36 286.249C340.19 286.603 341.078 286.78 342.024 286.78C342.965 286.78 343.848 286.603 344.672 286.249C345.502 285.894 346.23 285.405 346.855 284.779C347.486 284.148 347.979 283.421 348.333 282.596C348.687 281.766 348.864 280.881 348.864 279.94C348.864 278.994 348.687 278.108 348.333 277.284C347.979 276.454 347.486 275.726 346.855 275.101C346.23 274.47 345.502 273.977 344.672 273.623C343.848 273.269 342.965 273.092 342.024 273.092C341.078 273.092 340.19 273.269 339.36 273.623C338.535 273.977 337.81 274.47 337.185 275.101C336.56 275.726 336.067 276.454 335.708 277.284C335.353 278.108 335.176 278.994 335.176 279.94Z" fill="white"/>
<path d="M377 306.667H32V307.333H377V306.667Z" fill="#3C3C43" fill-opacity="0.36" mask="url(#path-12-inside-3_30_3697)"/>
<rect width="361" height="50" transform="translate(16 307)" fill="white"/>
<path d="M38.4331 338.282C37.3485 338.282 36.4105 338.028 35.6191 337.519C34.8278 337.009 34.2163 336.287 33.7847 335.352C33.3586 334.417 33.1455 333.307 33.1455 332.023V332.007C33.1455 330.717 33.3586 329.605 33.7847 328.67C34.2163 327.735 34.825 327.013 35.6108 326.503C36.4022 325.994 37.3402 325.74 38.4248 325.74C39.266 325.74 40.0296 325.906 40.7158 326.238C41.4076 326.564 41.9775 327.021 42.4258 327.607C42.874 328.188 43.1562 328.861 43.2725 329.625L43.2642 329.641H41.7617L41.7534 329.625C41.6206 329.11 41.3965 328.667 41.0811 328.296C40.7656 327.92 40.381 327.63 39.9272 327.425C39.479 327.22 38.9782 327.118 38.4248 327.118C37.6611 327.118 36.9971 327.317 36.4326 327.715C35.8737 328.114 35.4421 328.678 35.1377 329.409C34.8333 330.139 34.6812 331.005 34.6812 332.007V332.023C34.6812 333.02 34.8333 333.883 35.1377 334.613C35.4421 335.344 35.8737 335.908 36.4326 336.307C36.9971 336.705 37.6639 336.904 38.4331 336.904C38.992 336.904 39.4984 336.816 39.9521 336.639C40.4059 336.456 40.7878 336.199 41.0977 335.867C41.4076 335.529 41.6234 335.131 41.7451 334.671L41.7617 334.655H43.2725V334.671C43.1396 335.402 42.8519 336.038 42.4092 336.581C41.9665 337.117 41.4048 337.535 40.7241 337.834C40.049 338.133 39.2853 338.282 38.4331 338.282ZM47.7197 338.158C47.1553 338.158 46.6462 338.05 46.1924 337.834C45.7441 337.618 45.3872 337.311 45.1216 336.913C44.8615 336.514 44.7314 336.044 44.7314 335.501V335.485C44.7314 334.954 44.8587 334.5 45.1133 334.124C45.3678 333.742 45.7386 333.443 46.2256 333.227C46.7126 333.011 47.3019 332.884 47.9937 332.845L51.2808 332.646V333.8L48.168 333.999C47.4873 334.038 46.9893 334.179 46.6738 334.422C46.3639 334.666 46.209 335.009 46.209 335.452V335.468C46.209 335.922 46.3805 336.276 46.7236 336.531C47.0667 336.78 47.4984 336.904 48.0186 336.904C48.5111 336.904 48.9482 336.807 49.3301 336.614C49.7119 336.415 50.0107 336.146 50.2266 335.809C50.4479 335.471 50.5586 335.089 50.5586 334.663V331.874C50.5586 331.321 50.3898 330.9 50.0522 330.612C49.7202 330.319 49.2194 330.172 48.5498 330.172C48.013 330.172 47.5731 330.269 47.23 330.463C46.8869 330.651 46.6572 330.919 46.541 331.268L46.5327 331.293H45.0884L45.0967 331.243C45.1742 330.773 45.3678 330.363 45.6777 330.015C45.9932 329.66 46.3999 329.387 46.8979 329.193C47.396 328.994 47.9632 328.894 48.5996 328.894C49.3301 328.894 49.9471 329.013 50.4507 329.251C50.9598 329.489 51.3444 329.832 51.6045 330.28C51.8701 330.723 52.0029 331.254 52.0029 331.874V338H50.5586V336.68H50.4258C50.2376 336.996 50.008 337.264 49.7368 337.485C49.4712 337.707 49.1696 337.875 48.832 337.992C48.4945 338.102 48.1237 338.158 47.7197 338.158ZM55.7446 338H54.3003V329.052H56.0518L59.2393 335.991H59.3721L62.5762 329.052H64.2529V338H62.8086V331.633H62.6509L59.8286 337.751H58.7163L55.9023 331.633H55.7446V338ZM70.2856 338.158C69.439 338.158 68.7057 337.972 68.0859 337.602C67.4717 337.225 66.9958 336.691 66.6582 336C66.3262 335.308 66.1602 334.486 66.1602 333.534V333.518C66.1602 332.56 66.3262 331.736 66.6582 331.044C66.9958 330.352 67.4717 329.821 68.0859 329.45C68.7057 329.079 69.439 328.894 70.2856 328.894C71.1379 328.894 71.8711 329.079 72.4854 329.45C73.0996 329.821 73.5728 330.352 73.9048 331.044C74.2424 331.736 74.4111 332.56 74.4111 333.518V333.534C74.4111 334.486 74.2424 335.308 73.9048 336C73.5728 336.691 73.0996 337.225 72.4854 337.602C71.8711 337.972 71.1379 338.158 70.2856 338.158ZM70.2856 336.879C70.8501 336.879 71.3288 336.747 71.7217 336.481C72.1146 336.215 72.4134 335.833 72.6182 335.335C72.8285 334.837 72.9336 334.237 72.9336 333.534V333.518C72.9336 332.809 72.8285 332.206 72.6182 331.708C72.4134 331.21 72.1146 330.831 71.7217 330.571C71.3288 330.305 70.8501 330.172 70.2856 330.172C69.7212 330.172 69.2425 330.305 68.8496 330.571C68.4567 330.831 68.1551 331.21 67.9448 331.708C67.7401 332.206 67.6377 332.809 67.6377 333.518V333.534C67.6377 334.237 67.7401 334.837 67.9448 335.335C68.1551 335.833 68.4567 336.215 68.8496 336.481C69.2425 336.747 69.7212 336.879 70.2856 336.879ZM79.2734 338.166C78.637 338.166 78.0615 338.066 77.5469 337.867C77.0378 337.668 76.6227 337.391 76.3018 337.037C75.9808 336.677 75.7899 336.257 75.729 335.775L75.7207 335.709H77.1899L77.2065 335.775C77.3006 336.141 77.533 336.431 77.9038 336.647C78.2746 336.863 78.7311 336.971 79.2734 336.971C79.932 336.971 80.4466 336.827 80.8174 336.539C81.1882 336.251 81.3735 335.886 81.3735 335.443V335.427C81.3735 334.94 81.1937 334.583 80.834 334.356C80.4798 334.124 79.9596 334.007 79.2734 334.007H77.8789V332.812H79.2734C79.849 332.812 80.2889 332.699 80.5933 332.472C80.9032 332.239 81.0581 331.891 81.0581 331.426V331.409C81.0581 331.027 80.9115 330.712 80.6182 330.463C80.3304 330.208 79.8988 330.081 79.3232 330.081C78.8141 330.081 78.3825 330.186 78.0283 330.396C77.6742 330.607 77.4611 330.892 77.3892 331.251L77.3809 331.293H75.9697L75.978 331.235C76.05 330.753 76.2326 330.338 76.5259 329.99C76.8247 329.636 77.2121 329.364 77.688 329.176C78.1694 328.983 78.7145 328.886 79.3232 328.886C79.9928 328.886 80.5601 328.988 81.0249 329.193C81.4953 329.398 81.8522 329.683 82.0957 330.048C82.3447 330.408 82.4692 330.825 82.4692 331.301V331.318C82.4692 331.772 82.3337 332.181 82.0625 332.546C81.7913 332.912 81.4344 333.147 80.9917 333.252V333.385C81.3846 333.468 81.7139 333.601 81.9795 333.783C82.2507 333.966 82.4526 334.19 82.5854 334.456C82.7238 334.721 82.793 335.02 82.793 335.352V335.369C82.793 335.922 82.6436 336.409 82.3447 336.83C82.0514 337.25 81.6392 337.579 81.1079 337.817C80.5822 338.05 79.9707 338.166 79.2734 338.166ZM90.5688 338V333.949H86.1362V338H84.6919V329.052H86.1362V332.754H90.5688V329.052H92.0132V338H90.5688ZM94.3521 338V329.052H95.7964V335.726H96.5601L95.5806 336.257L100.354 329.052H101.798V338H100.354V331.326H99.5898L100.569 330.795L95.7964 338H94.3521ZM104.145 338V329.052H105.589V336.805H108.951V329.052H110.396V336.805H113.757V329.052H115.202V338H104.145ZM115.268 340.366V338H113.791V336.805H116.646V340.366H115.268ZM121.683 338.158C120.83 338.158 120.097 337.97 119.483 337.593C118.874 337.217 118.404 336.686 118.072 336C117.745 335.308 117.582 334.494 117.582 333.559V333.551C117.582 332.627 117.745 331.816 118.072 331.119C118.404 330.421 118.871 329.876 119.475 329.483C120.078 329.09 120.783 328.894 121.591 328.894C122.405 328.894 123.102 329.082 123.683 329.458C124.27 329.835 124.718 330.361 125.028 331.036C125.343 331.705 125.501 332.486 125.501 333.376V333.941H118.329V332.787H124.762L124.048 333.841V333.269C124.048 332.566 123.943 331.987 123.733 331.534C123.523 331.08 123.232 330.742 122.861 330.521C122.491 330.294 122.064 330.181 121.583 330.181C121.102 330.181 120.67 330.3 120.288 330.538C119.912 330.77 119.613 331.116 119.392 331.575C119.17 332.035 119.06 332.599 119.06 333.269V333.841C119.06 334.478 119.167 335.023 119.383 335.477C119.599 335.925 119.906 336.271 120.305 336.514C120.703 336.752 121.174 336.871 121.716 336.871C122.12 336.871 122.471 336.816 122.77 336.705C123.069 336.594 123.315 336.453 123.509 336.282C123.702 336.11 123.838 335.936 123.916 335.759L123.949 335.684H125.393L125.376 335.75C125.299 336.055 125.161 336.351 124.961 336.639C124.768 336.921 124.516 337.178 124.206 337.411C123.896 337.638 123.528 337.82 123.102 337.958C122.681 338.091 122.208 338.158 121.683 338.158ZM133.277 338V333.949H128.844V338H127.4V329.052H128.844V332.754H133.277V329.052H134.721V338H133.277ZM142.937 338V333.949H138.504V338H137.06V329.052H138.504V332.754H142.937V329.052H144.381V338H142.937ZM151.468 338V334.796H149.949L147.667 338H145.965L148.463 334.53C147.833 334.353 147.337 334.043 146.978 333.601C146.618 333.158 146.438 332.632 146.438 332.023V332.007C146.438 331.393 146.576 330.867 146.853 330.43C147.13 329.987 147.52 329.647 148.023 329.409C148.527 329.171 149.119 329.052 149.8 329.052H152.913V338H151.468ZM149.8 333.601H151.468V330.247H149.8C149.213 330.247 148.751 330.399 148.414 330.704C148.082 331.008 147.916 331.431 147.916 331.974V331.99C147.916 332.461 148.082 332.848 148.414 333.152C148.751 333.451 149.213 333.601 149.8 333.601Z" fill="black"/>
<path d="M333.624 329.94C333.624 328.778 333.84 327.69 334.271 326.678C334.709 325.665 335.312 324.774 336.081 324.005C336.856 323.23 337.75 322.627 338.762 322.195C339.78 321.758 340.868 321.54 342.024 321.54C343.181 321.54 344.266 321.758 345.278 322.195C346.297 322.627 347.19 323.23 347.959 324.005C348.729 324.774 349.332 325.665 349.769 326.678C350.206 327.69 350.425 328.778 350.425 329.94C350.425 330.914 350.264 331.844 349.943 332.729C349.622 333.609 349.18 334.403 348.615 335.111L354.061 340.582C354.16 340.687 354.235 340.806 354.285 340.938C354.34 341.071 354.368 341.212 354.368 341.362C354.368 341.567 354.321 341.755 354.227 341.926C354.138 342.098 354.011 342.233 353.845 342.333C353.679 342.433 353.488 342.482 353.272 342.482C353.123 342.482 352.979 342.455 352.84 342.399C352.702 342.344 352.58 342.264 352.475 342.159L347.005 336.68C346.308 337.2 345.536 337.607 344.689 337.9C343.848 338.188 342.96 338.332 342.024 338.332C340.868 338.332 339.78 338.116 338.762 337.685C337.75 337.247 336.856 336.644 336.081 335.875C335.312 335.1 334.709 334.207 334.271 333.194C333.84 332.181 333.624 331.097 333.624 329.94ZM335.176 329.94C335.176 330.881 335.353 331.766 335.708 332.596C336.067 333.421 336.56 334.148 337.185 334.779C337.81 335.405 338.535 335.894 339.36 336.249C340.19 336.603 341.078 336.78 342.024 336.78C342.965 336.78 343.848 336.603 344.672 336.249C345.502 335.894 346.23 335.405 346.855 334.779C347.486 334.148 347.979 333.421 348.333 332.596C348.687 331.766 348.864 330.881 348.864 329.94C348.864 328.994 348.687 328.108 348.333 327.284C347.979 326.454 347.486 325.726 346.855 325.101C346.23 324.47 345.502 323.977 344.672 323.623C343.848 323.269 342.965 323.092 342.024 323.092C341.078 323.092 340.19 323.269 339.36 323.623C338.535 323.977 337.81 324.47 337.185 325.101C336.56 325.726 336.067 326.454 335.708 327.284C335.353 328.108 335.176 328.994 335.176 329.94Z" fill="white"/>
<path d="M377 356.667H32V357.333H377V356.667Z" fill="#3C3C43" fill-opacity="0.36" mask="url(#path-16-inside-4_30_3697)"/>
<path d="M16 457H377V491C377 496.601 377 499.401 375.91 501.54C374.951 503.422 373.422 504.951 371.54 505.91C369.401 507 366.601 507 361 507H32C26.3995 507 23.5992 507 21.4601 505.91C19.5785 504.951 18.0487 503.422 17.0899 501.54C16 499.401 16 496.601 16 491V457Z" fill="white"/>
<path d="M34.3574 488V486.68H38.0596C38.9616 486.68 39.645 486.5 40.1099 486.141C40.5747 485.781 40.8071 485.258 40.8071 484.572V484.555C40.8071 484.096 40.6992 483.711 40.4834 483.401C40.2676 483.091 39.9438 482.859 39.5122 482.704C39.0861 482.549 38.5549 482.472 37.9185 482.472H34.3574V481.185H37.4951C38.4027 481.185 39.0833 481.025 39.5371 480.704C39.9964 480.383 40.2261 479.907 40.2261 479.276V479.259C40.2261 478.651 40.0186 478.18 39.6035 477.848C39.194 477.511 38.6185 477.342 37.877 477.342H34.3574V476.022H38.1924C38.9284 476.022 39.5592 476.144 40.085 476.387C40.6162 476.631 41.0229 476.977 41.3052 477.425C41.5929 477.868 41.7368 478.393 41.7368 479.002V479.019C41.7368 479.434 41.6427 479.824 41.4546 480.189C41.272 480.554 41.0257 480.861 40.7158 481.11C40.4059 481.359 40.0573 481.52 39.6699 481.592V481.725C40.2178 481.791 40.6909 481.954 41.0894 482.214C41.4878 482.474 41.7949 482.812 42.0107 483.227C42.2321 483.637 42.3428 484.104 42.3428 484.63V484.646C42.3428 485.344 42.1795 485.944 41.853 486.448C41.5321 486.946 41.07 487.33 40.4668 487.602C39.8636 487.867 39.1359 488 38.2837 488H34.3574ZM33.6104 488V476.022H35.1045V488H33.6104ZM44.2583 488V479.052H45.7026V485.726H46.4663L45.4868 486.257L50.2598 479.052H51.7041V488H50.2598V481.326H49.4961L50.4756 480.795L45.7026 488H44.2583ZM53.3457 488L56.4087 483.526L53.3125 479.052H55.0142L57.1392 482.38H57.272L59.3721 479.052H60.9907L57.9526 483.468L61.0322 488H59.3389L57.2222 484.622H57.0894L54.9644 488H53.3457ZM62.6738 488V479.052H64.1182V488H62.6738ZM63.4043 477.325C63.1331 477.325 62.8979 477.228 62.6987 477.035C62.505 476.835 62.4082 476.6 62.4082 476.329C62.4082 476.052 62.505 475.817 62.6987 475.624C62.8979 475.43 63.1331 475.333 63.4043 475.333C63.681 475.333 63.9162 475.43 64.1099 475.624C64.3035 475.817 64.4004 476.052 64.4004 476.329C64.4004 476.6 64.3035 476.835 64.1099 477.035C63.9162 477.228 63.681 477.325 63.4043 477.325ZM66.7061 490.366H65.3613V486.805H66.1084C66.4349 486.589 66.6839 486.226 66.8555 485.717C67.027 485.203 67.1322 484.644 67.1709 484.041L67.5195 479.052H73.6206V486.805H75.0483V490.366H73.7036V488H66.7061V490.366ZM72.1763 486.805V480.247H68.7979L68.5156 484.074C68.4769 484.616 68.3966 485.117 68.2749 485.576C68.1532 486.03 67.9871 486.395 67.7769 486.672V486.805H72.1763Z" fill="black"/>
<path d="M352.525 473.499C352.868 473.836 353.125 474.223 353.297 474.661C353.474 475.092 353.59 475.574 353.646 476.105C353.706 476.631 353.737 477.212 353.737 477.848V486.157C353.737 486.794 353.706 487.377 353.646 487.909C353.59 488.434 353.474 488.913 353.297 489.345C353.125 489.782 352.868 490.172 352.525 490.515C352.182 490.858 351.792 491.116 351.354 491.287C350.917 491.464 350.433 491.583 349.902 491.644C349.371 491.71 348.787 491.744 348.15 491.744H339.85C339.213 491.744 338.629 491.71 338.098 491.644C337.567 491.583 337.083 491.464 336.646 491.287C336.214 491.116 335.824 490.858 335.475 490.515C335.132 490.172 334.875 489.785 334.703 489.353C334.532 488.921 334.415 488.44 334.354 487.909C334.294 487.377 334.263 486.794 334.263 486.157V477.798C334.263 476.874 334.338 476.055 334.487 475.341C334.637 474.627 334.969 474.013 335.483 473.499C335.998 472.984 336.615 472.652 337.334 472.502C338.054 472.347 338.873 472.27 339.792 472.27H348.15C348.787 472.27 349.371 472.3 349.902 472.361C350.433 472.422 350.917 472.541 351.354 472.718C351.792 472.895 352.182 473.155 352.525 473.499ZM352.268 477.558C352.268 476.954 352.212 476.39 352.102 475.864C351.991 475.333 351.772 474.904 351.446 474.578C351.119 474.251 350.688 474.03 350.151 473.914C349.614 473.797 349.044 473.739 348.441 473.739H339.609C338.989 473.739 338.405 473.795 337.857 473.905C337.315 474.016 336.881 474.237 336.554 474.569C336.228 474.896 336.009 475.33 335.898 475.873C335.788 476.409 335.732 476.99 335.732 477.616V486.448C335.732 487.051 335.788 487.618 335.898 488.149C336.009 488.681 336.228 489.11 336.554 489.436C336.881 489.763 337.312 489.984 337.849 490.1C338.386 490.216 338.956 490.274 339.559 490.274H348.441C349.044 490.274 349.614 490.216 350.151 490.1C350.688 489.984 351.119 489.763 351.446 489.436C351.767 489.11 351.983 488.681 352.093 488.149C352.209 487.618 352.268 487.051 352.268 486.448V477.558ZM339.103 482.007C339.103 481.774 339.174 481.586 339.318 481.442C339.462 481.299 339.65 481.227 339.883 481.227H343.236V477.873C343.236 477.641 343.306 477.452 343.444 477.309C343.588 477.159 343.77 477.084 343.992 477.084C344.219 477.084 344.404 477.159 344.548 477.309C344.697 477.452 344.772 477.641 344.772 477.873V481.227H348.134C348.361 481.227 348.546 481.299 348.69 481.442C348.834 481.586 348.906 481.774 348.906 482.007C348.906 482.223 348.834 482.403 348.69 482.546C348.546 482.685 348.361 482.754 348.134 482.754H344.772V486.116C344.772 486.348 344.697 486.536 344.548 486.68C344.404 486.824 344.219 486.896 343.992 486.896C343.77 486.896 343.588 486.824 343.444 486.68C343.306 486.531 343.236 486.343 343.236 486.116V482.754H339.883C339.656 482.754 339.468 482.685 339.318 482.546C339.174 482.403 339.103 482.223 339.103 482.007Z" fill="white"/>
<path d="M16 123C16 117.399 16 114.599 17.0899 112.46C18.0487 110.578 19.5785 109.049 21.4601 108.09C23.5992 107 26.3995 107 32 107H361C366.601 107 369.401 107 371.54 108.09C373.422 109.049 374.951 110.578 375.91 112.46C377 114.599 377 117.399 377 123V157H16V123Z" fill="white"/>
<path d="M33.6104 138V126.022H35.1045V131.202H41.6787V126.022H43.1729V138H41.6787V132.546H35.1045V138H33.6104ZM48.168 138.158C47.6035 138.158 47.0944 138.05 46.6406 137.834C46.1924 137.618 45.8354 137.311 45.5698 136.913C45.3097 136.514 45.1797 136.044 45.1797 135.501V135.485C45.1797 134.954 45.307 134.5 45.5615 134.124C45.8161 133.742 46.1868 133.443 46.6738 133.227C47.1608 133.011 47.7502 132.884 48.4419 132.845L51.729 132.646V133.8L48.6162 133.999C47.9355 134.038 47.4375 134.179 47.1221 134.422C46.8122 134.666 46.6572 135.009 46.6572 135.452V135.468C46.6572 135.922 46.8288 136.276 47.1719 136.531C47.515 136.78 47.9466 136.904 48.4668 136.904C48.9593 136.904 49.3965 136.807 49.7783 136.614C50.1602 136.415 50.459 136.146 50.6748 135.809C50.8962 135.471 51.0068 135.089 51.0068 134.663V131.874C51.0068 131.321 50.8381 130.9 50.5005 130.612C50.1685 130.319 49.6676 130.172 48.998 130.172C48.4613 130.172 48.0213 130.269 47.6782 130.463C47.3351 130.651 47.1055 130.919 46.9893 131.268L46.981 131.293H45.5366L45.5449 131.243C45.6224 130.773 45.8161 130.363 46.126 130.015C46.4414 129.66 46.8481 129.387 47.3462 129.193C47.8442 128.994 48.4115 128.894 49.0479 128.894C49.7783 128.894 50.3953 129.013 50.8989 129.251C51.408 129.489 51.7926 129.832 52.0527 130.28C52.3184 130.723 52.4512 131.254 52.4512 131.874V138H51.0068V136.68H50.874C50.6859 136.996 50.4562 137.264 50.1851 137.485C49.9194 137.707 49.6178 137.875 49.2803 137.992C48.9427 138.102 48.5719 138.158 48.168 138.158ZM56.8486 134.497C56.7878 135.316 56.6577 135.991 56.4585 136.522C56.2648 137.054 55.9964 137.447 55.6533 137.701C55.3158 137.956 54.8979 138.083 54.3999 138.083C54.245 138.083 54.1121 138.072 54.0015 138.05C53.8908 138.033 53.805 138.014 53.7441 137.992V136.688C53.7829 136.7 53.8521 136.713 53.9517 136.73C54.0513 136.741 54.1536 136.747 54.2588 136.747C54.5355 136.747 54.7596 136.641 54.9312 136.431C55.1027 136.221 55.2327 135.939 55.3213 135.584C55.4154 135.225 55.4762 134.824 55.5039 134.381L55.8857 129.052H61.7378V138H60.2935V130.247H57.1807L56.8486 134.497ZM66.542 138.158C65.9775 138.158 65.4684 138.05 65.0146 137.834C64.5664 137.618 64.2095 137.311 63.9438 136.913C63.6838 136.514 63.5537 136.044 63.5537 135.501V135.485C63.5537 134.954 63.681 134.5 63.9355 134.124C64.1901 133.742 64.5609 133.443 65.0479 133.227C65.5348 133.011 66.1242 132.884 66.8159 132.845L70.103 132.646V133.8L66.9902 133.999C66.3096 134.038 65.8115 134.179 65.4961 134.422C65.1862 134.666 65.0312 135.009 65.0312 135.452V135.468C65.0312 135.922 65.2028 136.276 65.5459 136.531C65.889 136.78 66.3206 136.904 66.8408 136.904C67.3333 136.904 67.7705 136.807 68.1523 136.614C68.5342 136.415 68.833 136.146 69.0488 135.809C69.2702 135.471 69.3809 135.089 69.3809 134.663V131.874C69.3809 131.321 69.2121 130.9 68.8745 130.612C68.5425 130.319 68.0417 130.172 67.3721 130.172C66.8353 130.172 66.3953 130.269 66.0522 130.463C65.7091 130.651 65.4795 130.919 65.3633 131.268L65.355 131.293H63.9106L63.9189 131.243C63.9964 130.773 64.1901 130.363 64.5 130.015C64.8154 129.66 65.2222 129.387 65.7202 129.193C66.2183 128.994 66.7855 128.894 67.4219 128.894C68.1523 128.894 68.7694 129.013 69.2729 129.251C69.7821 129.489 70.1667 129.832 70.4268 130.28C70.6924 130.723 70.8252 131.254 70.8252 131.874V138H69.3809V136.68H69.248C69.0599 136.996 68.8302 137.264 68.5591 137.485C68.2935 137.707 67.9919 137.875 67.6543 137.992C67.3167 138.102 66.946 138.158 66.542 138.158ZM73.1226 138V129.052H74.5669V136.805H77.9287V129.052H79.373V136.805H82.7349V129.052H84.1792V138H73.1226ZM93.001 129.052V130.247H90.104V138H88.6597V130.247H85.7627V129.052H93.001ZM95.3564 141.138C95.2624 141.138 95.1572 141.132 95.041 141.121C94.9248 141.116 94.8169 141.104 94.7173 141.088V139.901C94.8058 139.917 94.9027 139.929 95.0078 139.934C95.113 139.94 95.2153 139.942 95.3149 139.942C95.7244 139.942 96.0592 139.837 96.3193 139.627C96.585 139.417 96.798 139.054 96.9585 138.54L97.1245 138.008L93.8125 129.052H95.3564L98.1123 137.319L97.5396 136.415H98.2202L97.6475 137.319L100.395 129.052H101.914L98.4194 138.548C98.1759 139.217 97.9186 139.74 97.6475 140.117C97.3763 140.493 97.0581 140.756 96.6929 140.905C96.3332 141.06 95.8877 141.138 95.3564 141.138ZM103.481 138V129.052H107.274C108.121 129.052 108.78 129.265 109.25 129.691C109.72 130.111 109.956 130.673 109.956 131.376V131.393C109.956 131.835 109.817 132.242 109.541 132.613C109.264 132.978 108.915 133.205 108.495 133.293V133.426C108.876 133.476 109.206 133.595 109.482 133.783C109.759 133.966 109.972 134.198 110.122 134.48C110.277 134.757 110.354 135.07 110.354 135.418V135.435C110.354 135.95 110.232 136.401 109.989 136.788C109.745 137.17 109.394 137.469 108.935 137.685C108.481 137.895 107.933 138 107.291 138H103.481ZM104.925 136.805H107.233C107.781 136.805 108.193 136.686 108.47 136.448C108.746 136.204 108.885 135.858 108.885 135.41V135.394C108.885 134.918 108.724 134.572 108.403 134.356C108.082 134.14 107.601 134.032 106.959 134.032H104.925V136.805ZM104.925 132.837H106.834C107.416 132.837 107.842 132.726 108.113 132.505C108.384 132.284 108.52 131.963 108.52 131.542V131.525C108.52 131.144 108.403 130.836 108.171 130.604C107.938 130.366 107.57 130.247 107.067 130.247H104.925V132.837ZM114.76 138.158C114.195 138.158 113.686 138.05 113.232 137.834C112.784 137.618 112.427 137.311 112.162 136.913C111.902 136.514 111.771 136.044 111.771 135.501V135.485C111.771 134.954 111.899 134.5 112.153 134.124C112.408 133.742 112.779 133.443 113.266 133.227C113.753 133.011 114.342 132.884 115.034 132.845L118.321 132.646V133.8L115.208 133.999C114.527 134.038 114.029 134.179 113.714 134.422C113.404 134.666 113.249 135.009 113.249 135.452V135.468C113.249 135.922 113.421 136.276 113.764 136.531C114.107 136.78 114.538 136.904 115.059 136.904C115.551 136.904 115.988 136.807 116.37 136.614C116.752 136.415 117.051 136.146 117.267 135.809C117.488 135.471 117.599 135.089 117.599 134.663V131.874C117.599 131.321 117.43 130.9 117.092 130.612C116.76 130.319 116.259 130.172 115.59 130.172C115.053 130.172 114.613 130.269 114.27 130.463C113.927 130.651 113.697 130.919 113.581 131.268L113.573 131.293H112.128L112.137 131.243C112.214 130.773 112.408 130.363 112.718 130.015C113.033 129.66 113.44 129.387 113.938 129.193C114.436 128.994 115.003 128.894 115.64 128.894C116.37 128.894 116.987 129.013 117.491 129.251C118 129.489 118.384 129.832 118.645 130.28C118.91 130.723 119.043 131.254 119.043 131.874V138H117.599V136.68H117.466C117.278 136.996 117.048 137.264 116.777 137.485C116.511 137.707 116.21 137.875 115.872 137.992C115.535 138.102 115.164 138.158 114.76 138.158ZM127.217 138V133.949H122.785V138H121.34V129.052H122.785V132.754H127.217V129.052H128.662V138H127.217ZM136.877 138V133.949H132.445V138H131V129.052H132.445V132.754H136.877V129.052H138.322V138H136.877ZM145.409 138V134.796H143.89L141.607 138H139.905L142.404 134.53C141.773 134.353 141.278 134.043 140.918 133.601C140.558 133.158 140.378 132.632 140.378 132.023V132.007C140.378 131.393 140.517 130.867 140.793 130.43C141.07 129.987 141.46 129.647 141.964 129.409C142.467 129.171 143.06 129.052 143.74 129.052H146.853V138H145.409ZM143.74 133.601H145.409V130.247H143.74C143.154 130.247 142.692 130.399 142.354 130.704C142.022 131.008 141.856 131.431 141.856 131.974V131.99C141.856 132.461 142.022 132.848 142.354 133.152C142.692 133.451 143.154 133.601 143.74 133.601Z" fill="black"/>
<path d="M335.824 138.623C334.911 138.623 334.053 138.451 333.25 138.108C332.454 137.765 331.751 137.292 331.142 136.688C330.533 136.08 330.057 135.377 329.714 134.58C329.371 133.778 329.2 132.92 329.2 132.007C329.2 131.094 329.371 130.239 329.714 129.442C330.057 128.639 330.533 127.937 331.142 127.333C331.751 126.725 332.454 126.249 333.25 125.906C334.053 125.563 334.911 125.391 335.824 125.391C336.737 125.391 337.592 125.563 338.389 125.906C339.191 126.249 339.894 126.725 340.497 127.333C341.106 127.937 341.579 128.639 341.917 129.442C342.26 130.239 342.431 131.094 342.431 132.007C342.431 132.92 342.26 133.778 341.917 134.58C341.579 135.377 341.106 136.08 340.497 136.688C339.894 137.292 339.191 137.765 338.389 138.108C337.592 138.451 336.737 138.623 335.824 138.623ZM335.824 137.087C336.521 137.087 337.177 136.954 337.791 136.688C338.405 136.423 338.945 136.058 339.41 135.593C339.875 135.128 340.237 134.588 340.497 133.974C340.763 133.36 340.896 132.704 340.896 132.007C340.896 131.31 340.763 130.654 340.497 130.04C340.237 129.425 339.875 128.886 339.41 128.421C338.945 127.956 338.405 127.594 337.791 127.333C337.177 127.068 336.521 126.935 335.824 126.935C335.121 126.935 334.462 127.068 333.848 127.333C333.234 127.594 332.694 127.956 332.229 128.421C331.765 128.886 331.399 129.425 331.134 130.04C330.874 130.648 330.744 131.304 330.744 132.007C330.744 132.71 330.874 133.368 331.134 133.982C331.399 134.591 331.765 135.131 332.229 135.601C332.694 136.066 333.234 136.431 333.848 136.697C334.462 136.957 335.121 137.087 335.824 137.087ZM352.185 138.623C351.266 138.623 350.405 138.451 349.603 138.108C348.806 137.765 348.103 137.292 347.495 136.688C346.891 136.08 346.418 135.377 346.075 134.58C345.732 133.778 345.561 132.92 345.561 132.007C345.561 131.094 345.732 130.239 346.075 129.442C346.418 128.639 346.891 127.937 347.495 127.333C348.103 126.725 348.806 126.249 349.603 125.906C350.405 125.563 351.266 125.391 352.185 125.391C353.092 125.391 353.944 125.563 354.741 125.906C355.544 126.249 356.246 126.725 356.85 127.333C357.458 127.937 357.934 128.639 358.277 129.442C358.62 130.239 358.792 131.094 358.792 132.007C358.792 132.92 358.62 133.778 358.277 134.58C357.934 135.377 357.458 136.08 356.85 136.688C356.246 137.292 355.544 137.765 354.741 138.108C353.944 138.451 353.092 138.623 352.185 138.623ZM352.185 137.087C352.882 137.087 353.538 136.957 354.152 136.697C354.766 136.431 355.306 136.066 355.771 135.601C356.235 135.131 356.598 134.591 356.858 133.982C357.124 133.368 357.256 132.71 357.256 132.007C357.256 131.304 357.124 130.648 356.858 130.04C356.598 129.425 356.235 128.886 355.771 128.421C355.306 127.956 354.766 127.594 354.152 127.333C353.538 127.068 352.882 126.935 352.185 126.935C351.482 126.935 350.823 127.068 350.209 127.333C349.595 127.594 349.055 127.956 348.59 128.421C348.125 128.886 347.76 129.425 347.495 130.04C347.235 130.654 347.104 131.31 347.104 132.007C347.104 132.704 347.235 133.36 347.495 133.974C347.76 134.588 348.125 135.128 348.59 135.593C349.055 136.058 349.595 136.423 350.209 136.688C350.823 136.954 351.482 137.087 352.185 137.087ZM329.822 130.787V132.646H327.955C327.457 132.646 327.208 132.4 327.208 131.907V131.525C327.208 131.033 327.457 130.787 327.955 130.787H329.822ZM358.178 132.646V130.787H360.045C360.543 130.787 360.792 131.033 360.792 131.525V131.907C360.792 132.4 360.543 132.646 360.045 132.646H358.178ZM341.991 132.248V130.504C342.296 130.361 342.63 130.258 342.996 130.197C343.361 130.131 343.696 130.098 344 130.098C344.304 130.098 344.639 130.131 345.004 130.197C345.37 130.258 345.704 130.361 346.009 130.504V132.248C345.727 132.076 345.406 131.949 345.046 131.866C344.692 131.783 344.343 131.741 344 131.741C343.657 131.741 343.306 131.783 342.946 131.866C342.592 131.949 342.273 132.076 341.991 132.248Z" fill="white"/>
<path d="M377 156.667H32V157.333H377V156.667Z" fill="#3C3C43" fill-opacity="0.36" mask="url(#path-24-inside-5_30_3697)"/>
<rect width="361" height="50" transform="translate(16 357)" fill="white"/>
<path d="M32.9131 388.083C32.8024 388.083 32.6945 388.075 32.5894 388.058C32.4897 388.042 32.404 388.022 32.332 388V386.664C32.3763 386.675 32.4455 386.686 32.5396 386.697C32.6336 386.708 32.7139 386.713 32.7803 386.713C33.234 386.713 33.5827 386.572 33.8262 386.29C34.0697 386.008 34.244 385.623 34.3491 385.136C34.4543 384.644 34.5234 384.085 34.5566 383.459L34.9883 376.022H42.3843V388H40.8901V377.367H36.3496L35.9678 383.518C35.9069 384.475 35.7713 385.297 35.561 385.983C35.3507 386.664 35.0326 387.184 34.6064 387.543C34.1859 387.903 33.6214 388.083 32.9131 388.083ZM44.9639 388V379.052H46.4082V388H44.9639ZM45.6943 377.325C45.4232 377.325 45.188 377.228 44.9888 377.035C44.7951 376.835 44.6982 376.6 44.6982 376.329C44.6982 376.052 44.7951 375.817 44.9888 375.624C45.188 375.43 45.4232 375.333 45.6943 375.333C45.971 375.333 46.2062 375.43 46.3999 375.624C46.5936 375.817 46.6904 376.052 46.6904 376.329C46.6904 376.6 46.5936 376.835 46.3999 377.035C46.2062 377.228 45.971 377.325 45.6943 377.325ZM56.0269 379.052V388H48.7886V379.052H50.2329V386.805H54.5825V379.052H56.0269ZM56.0767 390.366V388H54.5991V386.805H57.4546V390.366H56.0767ZM62.4912 388.158C61.639 388.158 60.9058 387.97 60.2915 387.593C59.6828 387.217 59.2124 386.686 58.8804 386C58.5539 385.308 58.3906 384.494 58.3906 383.559V383.551C58.3906 382.627 58.5539 381.816 58.8804 381.119C59.2124 380.421 59.68 379.876 60.2832 379.483C60.8864 379.09 61.592 378.894 62.3999 378.894C63.2134 378.894 63.9106 379.082 64.4917 379.458C65.0783 379.835 65.5265 380.361 65.8364 381.036C66.1519 381.705 66.3096 382.486 66.3096 383.376V383.941H59.1377V382.787H65.5708L64.8569 383.841V383.269C64.8569 382.566 64.7518 381.987 64.5415 381.534C64.3312 381.08 64.0407 380.742 63.6699 380.521C63.2992 380.294 62.873 380.181 62.3916 380.181C61.9102 380.181 61.4785 380.3 61.0967 380.538C60.7204 380.77 60.4215 381.116 60.2002 381.575C59.9788 382.035 59.8682 382.599 59.8682 383.269V383.841C59.8682 384.478 59.9761 385.023 60.1919 385.477C60.4077 385.925 60.7148 386.271 61.1133 386.514C61.5117 386.752 61.9821 386.871 62.5244 386.871C62.9284 386.871 63.2798 386.816 63.5786 386.705C63.8774 386.594 64.1237 386.453 64.3174 386.282C64.5111 386.11 64.6466 385.936 64.7241 385.759L64.7573 385.684H66.2017L66.1851 385.75C66.1076 386.055 65.9692 386.351 65.77 386.639C65.5763 386.921 65.3245 387.178 65.0146 387.411C64.7048 387.638 64.3368 387.82 63.9106 387.958C63.4901 388.091 63.0169 388.158 62.4912 388.158ZM74.0854 388V383.949H69.6528V388H68.2085V379.052H69.6528V382.754H74.0854V379.052H75.5298V388H74.0854ZM80.915 388.166C80.2786 388.166 79.7031 388.066 79.1885 387.867C78.6794 387.668 78.2643 387.391 77.9434 387.037C77.6224 386.677 77.4315 386.257 77.3706 385.775L77.3623 385.709H78.8315L78.8481 385.775C78.9422 386.141 79.1746 386.431 79.5454 386.647C79.9162 386.863 80.3727 386.971 80.915 386.971C81.5736 386.971 82.0882 386.827 82.459 386.539C82.8298 386.251 83.0151 385.886 83.0151 385.443V385.427C83.0151 384.94 82.8353 384.583 82.4756 384.356C82.1214 384.124 81.6012 384.007 80.915 384.007H79.5205V382.812H80.915C81.4906 382.812 81.9305 382.699 82.2349 382.472C82.5448 382.239 82.6997 381.891 82.6997 381.426V381.409C82.6997 381.027 82.5531 380.712 82.2598 380.463C81.972 380.208 81.5404 380.081 80.9648 380.081C80.4557 380.081 80.0241 380.186 79.6699 380.396C79.3158 380.607 79.1027 380.892 79.0308 381.251L79.0225 381.293H77.6113L77.6196 381.235C77.6916 380.753 77.8742 380.338 78.1675 379.99C78.4663 379.636 78.8537 379.364 79.3296 379.176C79.811 378.983 80.3561 378.886 80.9648 378.886C81.6344 378.886 82.2017 378.988 82.6665 379.193C83.1369 379.398 83.4938 379.683 83.7373 380.048C83.9863 380.408 84.1108 380.825 84.1108 381.301V381.318C84.1108 381.772 83.9753 382.181 83.7041 382.546C83.4329 382.912 83.076 383.147 82.6333 383.252V383.385C83.0262 383.468 83.3555 383.601 83.6211 383.783C83.8923 383.966 84.0942 384.19 84.2271 384.456C84.3654 384.721 84.4346 385.02 84.4346 385.352V385.369C84.4346 385.922 84.2852 386.409 83.9863 386.83C83.693 387.25 83.2808 387.579 82.7495 387.817C82.2238 388.05 81.6123 388.166 80.915 388.166ZM86.375 388V379.052H87.8193V388H86.375ZM87.1055 377.325C86.8343 377.325 86.5991 377.228 86.3999 377.035C86.2062 376.835 86.1094 376.6 86.1094 376.329C86.1094 376.052 86.2062 375.817 86.3999 375.624C86.5991 375.43 86.8343 375.333 87.1055 375.333C87.3822 375.333 87.6174 375.43 87.811 375.624C88.0047 375.817 88.1016 376.052 88.1016 376.329C88.1016 376.6 88.0047 376.835 87.811 377.035C87.6174 377.228 87.3822 377.325 87.1055 377.325ZM90.1997 388V379.052H91.644V385.726H92.4077L91.4282 386.257L96.2012 379.052H97.6455V388H96.2012V381.326H95.4375L96.417 380.795L91.644 388H90.1997ZM93.9268 377.807C93.3568 377.807 92.8587 377.688 92.4326 377.45C92.0065 377.206 91.6745 376.88 91.4365 376.47C91.1986 376.061 91.0796 375.599 91.0796 375.084H92.3745C92.3745 375.538 92.5129 375.942 92.7896 376.296C93.0662 376.65 93.4453 376.827 93.9268 376.827C94.4193 376.827 94.8011 376.65 95.0723 376.296C95.3434 375.942 95.479 375.538 95.479 375.084H96.7739C96.7739 375.599 96.6549 376.061 96.417 376.47C96.179 376.88 95.847 377.206 95.4209 377.45C94.9948 377.688 94.4967 377.807 93.9268 377.807ZM105.87 388V383.949H101.437V388H99.9927V379.052H101.437V382.754H105.87V379.052H107.314V388H105.87ZM112.118 388.158C111.554 388.158 111.045 388.05 110.591 387.834C110.143 387.618 109.786 387.311 109.52 386.913C109.26 386.514 109.13 386.044 109.13 385.501V385.485C109.13 384.954 109.257 384.5 109.512 384.124C109.766 383.742 110.137 383.443 110.624 383.227C111.111 383.011 111.7 382.884 112.392 382.845L115.679 382.646V383.8L112.566 383.999C111.886 384.038 111.388 384.179 111.072 384.422C110.762 384.666 110.607 385.009 110.607 385.452V385.468C110.607 385.922 110.779 386.276 111.122 386.531C111.465 386.78 111.897 386.904 112.417 386.904C112.91 386.904 113.347 386.807 113.729 386.614C114.11 386.415 114.409 386.146 114.625 385.809C114.846 385.471 114.957 385.089 114.957 384.663V381.874C114.957 381.321 114.788 380.9 114.451 380.612C114.119 380.319 113.618 380.172 112.948 380.172C112.411 380.172 111.972 380.269 111.628 380.463C111.285 380.651 111.056 380.919 110.939 381.268L110.931 381.293H109.487L109.495 381.243C109.573 380.773 109.766 380.363 110.076 380.015C110.392 379.66 110.798 379.387 111.296 379.193C111.794 378.994 112.362 378.894 112.998 378.894C113.729 378.894 114.346 379.013 114.849 379.251C115.358 379.489 115.743 379.832 116.003 380.28C116.269 380.723 116.401 381.254 116.401 381.874V388H114.957V386.68H114.824C114.636 386.996 114.406 387.264 114.135 387.485C113.87 387.707 113.568 387.875 113.23 387.992C112.893 388.102 112.522 388.158 112.118 388.158ZM123.752 391.138C123.658 391.138 123.553 391.132 123.437 391.121C123.32 391.116 123.212 391.104 123.113 391.088V389.901C123.201 389.917 123.298 389.929 123.403 389.934C123.508 389.94 123.611 389.942 123.71 389.942C124.12 389.942 124.455 389.837 124.715 389.627C124.98 389.417 125.194 389.054 125.354 388.54L125.52 388.008L122.208 379.052H123.752L126.508 387.319L125.935 386.415H126.616L126.043 387.319L128.791 379.052H130.31L126.815 388.548C126.571 389.217 126.314 389.74 126.043 390.117C125.772 390.493 125.454 390.756 125.088 390.905C124.729 391.06 124.283 391.138 123.752 391.138ZM137.604 380.247H133.321V388H131.876V379.052H137.604V380.247ZM142.715 388.158C141.869 388.158 141.135 387.972 140.516 387.602C139.901 387.225 139.425 386.691 139.088 386C138.756 385.308 138.59 384.486 138.59 383.534V383.518C138.59 382.56 138.756 381.736 139.088 381.044C139.425 380.352 139.901 379.821 140.516 379.45C141.135 379.079 141.869 378.894 142.715 378.894C143.568 378.894 144.301 379.079 144.915 379.45C145.529 379.821 146.002 380.352 146.334 381.044C146.672 381.736 146.841 382.56 146.841 383.518V383.534C146.841 384.486 146.672 385.308 146.334 386C146.002 386.691 145.529 387.225 144.915 387.602C144.301 387.972 143.568 388.158 142.715 388.158ZM142.715 386.879C143.28 386.879 143.758 386.747 144.151 386.481C144.544 386.215 144.843 385.833 145.048 385.335C145.258 384.837 145.363 384.237 145.363 383.534V383.518C145.363 382.809 145.258 382.206 145.048 381.708C144.843 381.21 144.544 380.831 144.151 380.571C143.758 380.305 143.28 380.172 142.715 380.172C142.151 380.172 141.672 380.305 141.279 380.571C140.886 380.831 140.585 381.21 140.375 381.708C140.17 382.206 140.067 382.809 140.067 383.518V383.534C140.067 384.237 140.17 384.837 140.375 385.335C140.585 385.833 140.886 386.215 141.279 386.481C141.672 386.747 142.151 386.879 142.715 386.879ZM148.864 390.366H147.52V386.805H148.267C148.593 386.589 148.842 386.226 149.014 385.717C149.185 385.203 149.29 384.644 149.329 384.041L149.678 379.052H155.779V386.805H157.207V390.366H155.862V388H148.864V390.366ZM154.334 386.805V380.247H150.956L150.674 384.074C150.635 384.616 150.555 385.117 150.433 385.576C150.311 386.03 150.145 386.395 149.935 386.672V386.805H154.334ZM161.048 388.158C160.483 388.158 159.974 388.05 159.521 387.834C159.072 387.618 158.715 387.311 158.45 386.913C158.19 386.514 158.06 386.044 158.06 385.501V385.485C158.06 384.954 158.187 384.5 158.441 384.124C158.696 383.742 159.067 383.443 159.554 383.227C160.041 383.011 160.63 382.884 161.322 382.845L164.609 382.646V383.8L161.496 383.999C160.815 384.038 160.317 384.179 160.002 384.422C159.692 384.666 159.537 385.009 159.537 385.452V385.468C159.537 385.922 159.709 386.276 160.052 386.531C160.395 386.78 160.826 386.904 161.347 386.904C161.839 386.904 162.276 386.807 162.658 386.614C163.04 386.415 163.339 386.146 163.555 385.809C163.776 385.471 163.887 385.089 163.887 384.663V381.874C163.887 381.321 163.718 380.9 163.38 380.612C163.048 380.319 162.548 380.172 161.878 380.172C161.341 380.172 160.901 380.269 160.558 380.463C160.215 380.651 159.985 380.919 159.869 381.268L159.861 381.293H158.417L158.425 381.243C158.502 380.773 158.696 380.363 159.006 380.015C159.321 379.66 159.728 379.387 160.226 379.193C160.724 378.994 161.291 378.894 161.928 378.894C162.658 378.894 163.275 379.013 163.779 379.251C164.288 379.489 164.673 379.832 164.933 380.28C165.198 380.723 165.331 381.254 165.331 381.874V388H163.887V386.68H163.754C163.566 386.996 163.336 387.264 163.065 387.485C162.799 387.707 162.498 387.875 162.16 387.992C161.823 388.102 161.452 388.158 161.048 388.158Z" fill="black"/>
<path d="M333.624 379.94C333.624 378.778 333.84 377.69 334.271 376.678C334.709 375.665 335.312 374.774 336.081 374.005C336.856 373.23 337.75 372.627 338.762 372.195C339.78 371.758 340.868 371.54 342.024 371.54C343.181 371.54 344.266 371.758 345.278 372.195C346.297 372.627 347.19 373.23 347.959 374.005C348.729 374.774 349.332 375.665 349.769 376.678C350.206 377.69 350.425 378.778 350.425 379.94C350.425 380.914 350.264 381.844 349.943 382.729C349.622 383.609 349.18 384.403 348.615 385.111L354.061 390.582C354.16 390.687 354.235 390.806 354.285 390.938C354.34 391.071 354.368 391.212 354.368 391.362C354.368 391.567 354.321 391.755 354.227 391.926C354.138 392.098 354.011 392.233 353.845 392.333C353.679 392.433 353.488 392.482 353.272 392.482C353.123 392.482 352.979 392.455 352.84 392.399C352.702 392.344 352.58 392.264 352.475 392.159L347.005 386.68C346.308 387.2 345.536 387.607 344.689 387.9C343.848 388.188 342.96 388.332 342.024 388.332C340.868 388.332 339.78 388.116 338.762 387.685C337.75 387.247 336.856 386.644 336.081 385.875C335.312 385.1 334.709 384.207 334.271 383.194C333.84 382.181 333.624 381.097 333.624 379.94ZM335.176 379.94C335.176 380.881 335.353 381.766 335.708 382.596C336.067 383.421 336.56 384.148 337.185 384.779C337.81 385.405 338.535 385.894 339.36 386.249C340.19 386.603 341.078 386.78 342.024 386.78C342.965 386.78 343.848 386.603 344.672 386.249C345.502 385.894 346.23 385.405 346.855 384.779C347.486 384.148 347.979 383.421 348.333 382.596C348.687 381.766 348.864 380.881 348.864 379.94C348.864 378.994 348.687 378.108 348.333 377.284C347.979 376.454 347.486 375.726 346.855 375.101C346.23 374.47 345.502 373.977 344.672 373.623C343.848 373.269 342.965 373.092 342.024 373.092C341.078 373.092 340.19 373.269 339.36 373.623C338.535 373.977 337.81 374.47 337.185 375.101C336.56 375.726 336.067 376.454 335.708 377.284C335.353 378.108 335.176 378.994 335.176 379.94Z" fill="white"/>
<path d="M377 406.667H32V407.333H377V406.667Z" fill="#3C3C43" fill-opacity="0.36" mask="url(#path-28-inside-6_30_3697)"/>
<rect width="361" height="50" transform="translate(16 407)" fill="white"/>
<path d="M38.4331 438.282C37.3485 438.282 36.4105 438.028 35.6191 437.519C34.8278 437.009 34.2163 436.287 33.7847 435.352C33.3586 434.417 33.1455 433.307 33.1455 432.023V432.007C33.1455 430.717 33.3586 429.605 33.7847 428.67C34.2163 427.735 34.825 427.013 35.6108 426.503C36.4022 425.994 37.3402 425.74 38.4248 425.74C39.266 425.74 40.0296 425.906 40.7158 426.238C41.4076 426.564 41.9775 427.021 42.4258 427.607C42.874 428.188 43.1562 428.861 43.2725 429.625L43.2642 429.641H41.7617L41.7534 429.625C41.6206 429.11 41.3965 428.667 41.0811 428.296C40.7656 427.92 40.381 427.63 39.9272 427.425C39.479 427.22 38.9782 427.118 38.4248 427.118C37.6611 427.118 36.9971 427.317 36.4326 427.715C35.8737 428.114 35.4421 428.678 35.1377 429.409C34.8333 430.139 34.6812 431.005 34.6812 432.007V432.023C34.6812 433.02 34.8333 433.883 35.1377 434.613C35.4421 435.344 35.8737 435.908 36.4326 436.307C36.9971 436.705 37.6639 436.904 38.4331 436.904C38.992 436.904 39.4984 436.816 39.9521 436.639C40.4059 436.456 40.7878 436.199 41.0977 435.867C41.4076 435.529 41.6234 435.131 41.7451 434.671L41.7617 434.655H43.2725V434.671C43.1396 435.402 42.8519 436.038 42.4092 436.581C41.9665 437.117 41.4048 437.535 40.7241 437.834C40.049 438.133 39.2853 438.282 38.4331 438.282ZM47.7197 438.158C47.1553 438.158 46.6462 438.05 46.1924 437.834C45.7441 437.618 45.3872 437.311 45.1216 436.913C44.8615 436.514 44.7314 436.044 44.7314 435.501V435.485C44.7314 434.954 44.8587 434.5 45.1133 434.124C45.3678 433.742 45.7386 433.443 46.2256 433.227C46.7126 433.011 47.3019 432.884 47.9937 432.845L51.2808 432.646V433.8L48.168 433.999C47.4873 434.038 46.9893 434.179 46.6738 434.422C46.3639 434.666 46.209 435.009 46.209 435.452V435.468C46.209 435.922 46.3805 436.276 46.7236 436.531C47.0667 436.78 47.4984 436.904 48.0186 436.904C48.5111 436.904 48.9482 436.807 49.3301 436.614C49.7119 436.415 50.0107 436.146 50.2266 435.809C50.4479 435.471 50.5586 435.089 50.5586 434.663V431.874C50.5586 431.321 50.3898 430.9 50.0522 430.612C49.7202 430.319 49.2194 430.172 48.5498 430.172C48.013 430.172 47.5731 430.269 47.23 430.463C46.8869 430.651 46.6572 430.919 46.541 431.268L46.5327 431.293H45.0884L45.0967 431.243C45.1742 430.773 45.3678 430.363 45.6777 430.015C45.9932 429.66 46.3999 429.387 46.8979 429.193C47.396 428.994 47.9632 428.894 48.5996 428.894C49.3301 428.894 49.9471 429.013 50.4507 429.251C50.9598 429.489 51.3444 429.832 51.6045 430.28C51.8701 430.723 52.0029 431.254 52.0029 431.874V438H50.5586V436.68H50.4258C50.2376 436.996 50.008 437.264 49.7368 437.485C49.4712 437.707 49.1696 437.875 48.832 437.992C48.4945 438.102 48.1237 438.158 47.7197 438.158ZM54.3003 438V429.052H55.7446V435.726H56.5083L55.5288 436.257L60.3018 429.052H61.7461V438H60.3018V431.326H59.5381L60.5176 430.795L55.7446 438H54.3003ZM58.0273 427.807C57.4574 427.807 56.9593 427.688 56.5332 427.45C56.1071 427.206 55.7751 426.88 55.5371 426.47C55.2992 426.061 55.1802 425.599 55.1802 425.084H56.4751C56.4751 425.538 56.6134 425.942 56.8901 426.296C57.1668 426.65 57.5459 426.827 58.0273 426.827C58.5199 426.827 58.9017 426.65 59.1729 426.296C59.444 425.942 59.5796 425.538 59.5796 425.084H60.8745C60.8745 425.599 60.7555 426.061 60.5176 426.47C60.2796 426.88 59.9476 427.206 59.5215 427.45C59.0954 427.688 58.5973 427.807 58.0273 427.807ZM70.5762 429.052V430.247H67.6792V438H66.2349V430.247H63.3379V429.052H70.5762Z" fill="black"/>
<path d="M333.624 429.94C333.624 428.778 333.84 427.69 334.271 426.678C334.709 425.665 335.312 424.774 336.081 424.005C336.856 423.23 337.75 422.627 338.762 422.195C339.78 421.758 340.868 421.54 342.024 421.54C343.181 421.54 344.266 421.758 345.278 422.195C346.297 422.627 347.19 423.23 347.959 424.005C348.729 424.774 349.332 425.665 349.769 426.678C350.206 427.69 350.425 428.778 350.425 429.94C350.425 430.914 350.264 431.844 349.943 432.729C349.622 433.609 349.18 434.403 348.615 435.111L354.061 440.582C354.16 440.687 354.235 440.806 354.285 440.938C354.34 441.071 354.368 441.212 354.368 441.362C354.368 441.567 354.321 441.755 354.227 441.926C354.138 442.098 354.011 442.233 353.845 442.333C353.679 442.433 353.488 442.482 353.272 442.482C353.123 442.482 352.979 442.455 352.84 442.399C352.702 442.344 352.58 442.264 352.475 442.159L347.005 436.68C346.308 437.2 345.536 437.607 344.689 437.9C343.848 438.188 342.96 438.332 342.024 438.332C340.868 438.332 339.78 438.116 338.762 437.685C337.75 437.247 336.856 436.644 336.081 435.875C335.312 435.1 334.709 434.207 334.271 433.194C333.84 432.181 333.624 431.097 333.624 429.94ZM335.176 429.94C335.176 430.881 335.353 431.766 335.708 432.596C336.067 433.421 336.56 434.148 337.185 434.779C337.81 435.405 338.535 435.894 339.36 436.249C340.19 436.603 341.078 436.78 342.024 436.78C342.965 436.78 343.848 436.603 344.672 436.249C345.502 435.894 346.23 435.405 346.855 434.779C347.486 434.148 347.979 433.421 348.333 432.596C348.687 431.766 348.864 430.881 348.864 429.94C348.864 428.994 348.687 428.108 348.333 427.284C347.979 426.454 347.486 425.726 346.855 425.101C346.23 424.47 345.502 423.977 344.672 423.623C343.848 423.269 342.965 423.092 342.024 423.092C341.078 423.092 340.19 423.269 339.36 423.623C338.535 423.977 337.81 424.47 337.185 425.101C336.56 425.726 336.067 426.454 335.708 427.284C335.353 428.108 335.176 428.994 335.176 429.94Z" fill="white"/>
<path d="M377 456.667H32V457.333H377V456.667Z" fill="#3C3C43" fill-opacity="0.36" mask="url(#path-32-inside-7_30_3697)"/>
<defs>
<filter id="filter0_di_30_3697" x="54.2976" y="651.772" width="289.148" height="174.48" filterUnits="userSpaceOnUse" color-interpolation-filters="sRGB">
<feFlood flood-opacity="0" result="BackgroundImageFix"/>
<feColorMatrix in="SourceAlpha" type="matrix" values="0 0 0 0 0 0 0 0 0 0 0 0 0 0 0 0 0 0 127 0" result="hardAlpha"/>
<feOffset/>
<feGaussianBlur stdDeviation="37.5"/>
<feComposite in2="hardAlpha" operator="out"/>
<feColorMatrix type="matrix" values="0 0 0 0 1 0 0 0 0 1 0 0 0 0 1 0 0 0 1 0"/>
<feBlend mode="normal" in2="BackgroundImageFix" result="effect1_dropShadow_30_3697"/>
<feBlend mode="normal" in="SourceGraphic" in2="effect1_dropShadow_30_3697" result="shape"/>
<feColorMatrix in="SourceAlpha" type="matrix" values="0 0 0 0 0 0 0 0 0 0 0 0 0 0 0 0 0 0 127 0" result="hardAlpha"/>
<feOffset/>
<feGaussianBlur stdDeviation="25"/>
<feComposite in2="hardAlpha" operator="arithmetic" k2="-1" k3="1"/>
<feColorMatrix type="matrix" values="0 0 0 0 1 0 0 0 0 1 0 0 0 0 1 0 0 0 1 0"/>
<feBlend mode="normal" in2="shape" result="effect2_innerShadow_30_3697"/>
</filter>
<linearGradient id="paint0_linear_30_3697" x1="705.343" y1="-4.90842e-06" x2="522.273" y2="508.327" gradientUnits="userSpaceOnUse">
<stop stop-color="#6CD7FF"/>
<stop offset="1" stop-color="#A574FF"/>
</linearGradient>
</defs>
</svg>
