<svg width="393" height="844" viewBox="0 0 393 844" fill="none" xmlns="http://www.w3.org/2000/svg">
<rect width="393" height="844" fill="#D9D9D9"/>
<rect width="844" height="393" transform="matrix(0 -1 -1 0 393 844)" fill="url(#paint0_linear_30_3698)"/>
<rect width="363.777" height="383.333" transform="translate(15.1155 84)" fill="white"/>
<path d="M303.365 110.949C303.365 110.78 303.395 110.624 303.453 110.48C303.518 110.337 303.616 110.201 303.746 110.07L311.354 102.629C311.575 102.414 311.842 102.307 312.155 102.307C312.369 102.307 312.561 102.359 312.731 102.463C312.906 102.561 313.046 102.694 313.151 102.863C313.255 103.033 313.307 103.225 313.307 103.439C313.307 103.745 313.186 104.019 312.946 104.26L306.09 110.949L312.946 117.639C313.186 117.88 313.307 118.156 313.307 118.469C313.307 118.677 313.255 118.866 313.151 119.035C313.046 119.211 312.906 119.348 312.731 119.445C312.561 119.549 312.369 119.602 312.155 119.602C311.842 119.602 311.575 119.491 311.354 119.27L303.746 111.828C303.616 111.698 303.518 111.561 303.453 111.418C303.395 111.275 303.365 111.118 303.365 110.949Z" fill="#007AFF"/>
<path d="M358.875 110.949C358.875 111.118 358.843 111.275 358.778 111.418C358.712 111.561 358.615 111.698 358.485 111.828L350.877 119.27C350.662 119.491 350.395 119.602 350.076 119.602C349.868 119.602 349.676 119.549 349.5 119.445C349.324 119.348 349.184 119.211 349.08 119.035C348.983 118.866 348.934 118.677 348.934 118.469C348.934 118.156 349.051 117.88 349.285 117.639L356.141 110.949L349.285 104.26C349.051 104.019 348.934 103.745 348.934 103.439C348.934 103.225 348.983 103.033 349.08 102.863C349.184 102.694 349.324 102.561 349.5 102.463C349.676 102.359 349.868 102.307 350.076 102.307C350.395 102.307 350.662 102.414 350.877 102.629L358.485 110.07C358.615 110.201 358.712 110.337 358.778 110.48C358.843 110.624 358.875 110.78 358.875 110.949Z" fill="#007AFF"/>
<path d="M35.573 117.299C34.9919 117.299 34.4718 117.216 34.0125 117.05C33.5531 116.884 33.1602 116.649 32.8337 116.344C32.5128 116.04 32.261 115.677 32.0784 115.257C31.9013 114.831 31.8017 114.36 31.7795 113.846L31.7712 113.754H33.863L33.8713 113.821C33.8935 114.125 33.9682 114.399 34.0955 114.643C34.2283 114.881 34.4164 115.071 34.6599 115.215C34.9034 115.354 35.1995 115.423 35.5481 115.423C36.1292 115.423 36.5691 115.254 36.8679 114.917C37.1723 114.573 37.3245 114.078 37.3245 113.431V105.022H39.4578V113.447C39.4578 114.255 39.3056 114.947 39.0012 115.522C38.6969 116.098 38.2542 116.538 37.6731 116.842C37.092 117.147 36.392 117.299 35.573 117.299ZM44.7102 117.183C44.0351 117.183 43.4679 117.053 43.0085 116.792C42.5492 116.527 42.2034 116.142 41.9709 115.639C41.7385 115.13 41.6223 114.515 41.6223 113.796V107.927H43.6892V113.323C43.6892 114.026 43.8276 114.554 44.1042 114.908C44.3809 115.262 44.8319 115.439 45.4573 115.439C45.7893 115.439 46.0826 115.39 46.3372 115.29C46.5972 115.185 46.8131 115.035 46.9846 114.842C47.1562 114.648 47.2862 114.416 47.3748 114.145C47.4633 113.868 47.5076 113.558 47.5076 113.215V107.927H49.5745V117H47.5076V115.622H47.3665C47.2281 115.943 47.0344 116.222 46.7854 116.46C46.5364 116.693 46.2375 116.873 45.8889 117C45.5403 117.122 45.1474 117.183 44.7102 117.183ZM51.5979 117V107.927H53.6648V109.322H53.8059C54.0217 108.829 54.3482 108.445 54.7854 108.168C55.2226 107.891 55.7677 107.753 56.4207 107.753C57.4333 107.753 58.2081 108.046 58.7449 108.633C59.2817 109.219 59.55 110.052 59.55 111.131V117H57.4832V111.613C57.4832 110.904 57.3337 110.373 57.0349 110.019C56.7416 109.665 56.2823 109.488 55.657 109.488C55.2475 109.488 54.8933 109.579 54.5945 109.762C54.2957 109.944 54.066 110.202 53.9055 110.534C53.745 110.866 53.6648 111.259 53.6648 111.712V117H51.5979ZM65.3752 117.183C64.4732 117.183 63.6985 116.992 63.051 116.61C62.4091 116.228 61.9138 115.686 61.5652 114.983C61.2166 114.28 61.0422 113.447 61.0422 112.484V112.476C61.0422 111.524 61.2138 110.694 61.5569 109.986C61.9055 109.278 62.398 108.73 63.0344 108.342C63.6708 107.949 64.4179 107.753 65.2756 107.753C66.1389 107.753 66.8805 107.944 67.5002 108.326C68.1256 108.702 68.607 109.23 68.9446 109.911C69.2821 110.592 69.4509 111.389 69.4509 112.302V112.982H62.0798V111.596H68.4382L67.4587 112.891V112.069C67.4587 111.466 67.3674 110.965 67.1848 110.567C67.0022 110.168 66.7476 109.87 66.4211 109.67C66.1002 109.471 65.7266 109.372 65.3005 109.372C64.8744 109.372 64.4954 109.477 64.1633 109.687C63.8368 109.892 63.5767 110.196 63.3831 110.6C63.1949 110.999 63.1008 111.488 63.1008 112.069V112.899C63.1008 113.458 63.1949 113.937 63.3831 114.335C63.5712 114.728 63.8368 115.033 64.1799 115.249C64.5286 115.459 64.9408 115.564 65.4167 115.564C65.7875 115.564 66.1057 115.511 66.3713 115.406C66.6425 115.296 66.8611 115.166 67.0271 115.016C67.1931 114.861 67.3093 114.715 67.3757 114.576L67.4006 114.518H69.3596L69.343 114.593C69.2711 114.886 69.1383 115.185 68.9446 115.489C68.7564 115.788 68.4991 116.068 68.1726 116.328C67.8516 116.582 67.4587 116.79 66.9939 116.95C66.5291 117.105 65.9895 117.183 65.3752 117.183ZM75.05 117V115.556L78.9763 111.538C79.5186 110.99 79.9392 110.539 80.238 110.185C80.5424 109.825 80.7555 109.51 80.8772 109.239C80.9989 108.962 81.0598 108.672 81.0598 108.367V108.342C81.0598 107.977 80.9796 107.651 80.8191 107.363C80.6586 107.075 80.429 106.851 80.1301 106.69C79.8313 106.524 79.4744 106.441 79.0593 106.441C78.6388 106.441 78.268 106.53 77.947 106.707C77.6261 106.879 77.377 107.119 77.2 107.429C77.0229 107.739 76.9343 108.102 76.9343 108.517L76.926 108.55L74.9338 108.542L74.9255 108.517C74.9255 107.77 75.1054 107.111 75.4651 106.541C75.8248 105.971 76.3228 105.526 76.9592 105.205C77.5956 104.884 78.3316 104.723 79.1672 104.723C79.942 104.723 80.6309 104.87 81.2341 105.163C81.8429 105.456 82.3188 105.86 82.6619 106.375C83.005 106.89 83.1765 107.485 83.1765 108.16V108.185C83.1765 108.633 83.0907 109.073 82.9192 109.504C82.7476 109.931 82.4543 110.398 82.0393 110.907C81.6298 111.416 81.0626 112.022 80.3376 112.725L77.3743 115.605L77.9387 114.659V115.605L77.3743 115.232H83.3591V117H75.05ZM89.6243 117.299C88.6724 117.299 87.8562 117.044 87.1755 116.535C86.5004 116.026 85.9802 115.301 85.615 114.36C85.2498 113.42 85.0671 112.305 85.0671 111.015V110.999C85.0671 109.709 85.2498 108.597 85.615 107.662C85.9802 106.721 86.5004 105.996 87.1755 105.487C87.8562 104.978 88.6724 104.723 89.6243 104.723C90.5761 104.723 91.3923 104.978 92.073 105.487C92.7537 105.996 93.2766 106.721 93.6418 107.662C94.0071 108.597 94.1897 109.709 94.1897 110.999V111.015C94.1897 112.305 94.0071 113.42 93.6418 114.36C93.2766 115.301 92.7537 116.026 92.073 116.535C91.3923 117.044 90.5761 117.299 89.6243 117.299ZM89.6243 115.564C90.1334 115.564 90.5678 115.381 90.9275 115.016C91.2872 114.651 91.5611 114.131 91.7493 113.456C91.943 112.775 92.0398 111.961 92.0398 111.015V110.999C92.0398 110.052 91.943 109.242 91.7493 108.566C91.5611 107.886 91.2872 107.366 90.9275 107.006C90.5678 106.641 90.1334 106.458 89.6243 106.458C89.1152 106.458 88.6807 106.641 88.321 107.006C87.9669 107.366 87.693 107.886 87.4993 108.566C87.3111 109.242 87.217 110.052 87.217 110.999V111.015C87.217 111.961 87.3111 112.775 87.4993 113.456C87.693 114.131 87.9669 114.651 88.321 115.016C88.6807 115.381 89.1152 115.564 89.6243 115.564ZM96.0471 117V115.556L99.9734 111.538C100.516 110.99 100.936 110.539 101.235 110.185C101.539 109.825 101.753 109.51 101.874 109.239C101.996 108.962 102.057 108.672 102.057 108.367V108.342C102.057 107.977 101.977 107.651 101.816 107.363C101.656 107.075 101.426 106.851 101.127 106.69C100.828 106.524 100.471 106.441 100.056 106.441C99.6358 106.441 99.2651 106.53 98.9441 106.707C98.6231 106.879 98.3741 107.119 98.197 107.429C98.0199 107.739 97.9314 108.102 97.9314 108.517L97.9231 108.55L95.9309 108.542L95.9226 108.517C95.9226 107.77 96.1025 107.111 96.4622 106.541C96.8219 105.971 97.3199 105.526 97.9563 105.205C98.5927 104.884 99.3287 104.723 100.164 104.723C100.939 104.723 101.628 104.87 102.231 105.163C102.84 105.456 103.316 105.86 103.659 106.375C104.002 106.89 104.174 107.485 104.174 108.16V108.185C104.174 108.633 104.088 109.073 103.916 109.504C103.745 109.931 103.451 110.398 103.036 110.907C102.627 111.416 102.06 112.022 101.335 112.725L98.3713 115.605L98.9358 114.659V115.605L98.3713 115.232H104.356V117H96.0471ZM110.563 117.241C109.689 117.241 108.922 117.094 108.264 116.801C107.611 116.507 107.094 116.101 106.712 115.581C106.335 115.055 106.12 114.449 106.064 113.763L106.056 113.663H108.098L108.106 113.754C108.145 114.092 108.269 114.394 108.48 114.659C108.69 114.919 108.972 115.124 109.326 115.273C109.681 115.417 110.093 115.489 110.563 115.489C111.023 115.489 111.424 115.409 111.767 115.249C112.115 115.088 112.387 114.867 112.58 114.584C112.774 114.302 112.871 113.976 112.871 113.605V113.588C112.871 112.958 112.652 112.473 112.215 112.136C111.778 111.798 111.175 111.629 110.406 111.629H108.986V110.036H110.364C110.801 110.036 111.186 109.958 111.518 109.803C111.85 109.648 112.107 109.438 112.29 109.172C112.472 108.901 112.564 108.591 112.564 108.243V108.226C112.564 107.855 112.483 107.54 112.323 107.28C112.168 107.02 111.938 106.82 111.634 106.682C111.335 106.544 110.973 106.475 110.547 106.475C110.126 106.475 109.753 106.547 109.426 106.69C109.105 106.834 108.848 107.039 108.654 107.305C108.46 107.565 108.344 107.872 108.305 108.226L108.297 108.309H106.313L106.322 108.209C106.382 107.518 106.593 106.917 106.952 106.408C107.318 105.894 107.805 105.495 108.413 105.213C109.028 104.925 109.739 104.781 110.547 104.781C111.371 104.781 112.088 104.917 112.697 105.188C113.305 105.454 113.776 105.822 114.108 106.292C114.445 106.762 114.614 107.313 114.614 107.944V107.96C114.614 108.453 114.503 108.89 114.282 109.272C114.066 109.648 113.767 109.961 113.385 110.21C113.009 110.459 112.58 110.633 112.099 110.733V110.774C112.984 110.857 113.695 111.151 114.232 111.654C114.769 112.152 115.037 112.816 115.037 113.646V113.663C115.037 114.36 114.849 114.98 114.473 115.522C114.097 116.059 113.571 116.48 112.896 116.784C112.226 117.089 111.449 117.241 110.563 117.241Z" fill="black"/>
<path d="M129.603 111.007C129.603 111.151 129.576 111.284 129.52 111.405C129.465 111.527 129.379 111.646 129.263 111.762L124.291 116.685C124.108 116.867 123.887 116.958 123.627 116.958C123.356 116.958 123.126 116.867 122.938 116.685C122.75 116.496 122.656 116.27 122.656 116.004C122.656 115.738 122.758 115.503 122.963 115.298L127.321 111.007L122.963 106.715C122.758 106.511 122.656 106.275 122.656 106.01C122.656 105.744 122.75 105.52 122.938 105.337C123.126 105.149 123.356 105.055 123.627 105.055C123.887 105.055 124.108 105.146 124.291 105.329L129.263 110.251C129.49 110.467 129.603 110.719 129.603 111.007Z" fill="#007AFF"/>
<path d="M37.3083 149.229C36.5974 149.229 35.9796 149.118 35.4548 148.898C34.9343 148.678 34.5238 148.372 34.2234 147.978C33.9229 147.584 33.7537 147.125 33.7156 146.601L33.7092 146.512H35.2961L35.3025 146.575C35.3279 146.833 35.4294 147.058 35.6072 147.248C35.7891 147.438 36.0304 147.589 36.3308 147.699C36.6313 147.805 36.974 147.857 37.3591 147.857C37.7273 147.857 38.0531 147.8 38.3367 147.686C38.6202 147.572 38.8424 147.415 39.0032 147.216C39.164 147.013 39.2444 146.78 39.2444 146.518V146.512C39.2444 146.182 39.1153 145.913 38.8572 145.706C38.599 145.494 38.1737 145.325 37.5813 145.198L36.5974 144.995C35.658 144.796 34.9745 144.478 34.5471 144.042C34.1239 143.602 33.9124 143.042 33.9124 142.36V142.354C33.9124 141.808 34.0562 141.33 34.344 140.919C34.636 140.509 35.0359 140.189 35.5437 139.961C36.0557 139.728 36.6418 139.612 37.302 139.612C37.9791 139.612 38.5652 139.726 39.0603 139.955C39.5554 140.179 39.9447 140.486 40.2283 140.875C40.5118 141.264 40.6705 141.704 40.7043 142.195L40.7107 142.278H39.1492L39.1365 142.202C39.0984 141.96 38.9989 141.751 38.8381 141.573C38.6816 141.391 38.4721 141.247 38.2097 141.142C37.9473 141.036 37.6405 140.983 37.2893 140.983C36.955 140.983 36.6567 141.036 36.3943 141.142C36.1319 141.243 35.9246 141.387 35.7722 141.573C35.6241 141.759 35.55 141.984 35.55 142.246V142.252C35.55 142.574 35.6749 142.841 35.9246 143.052C36.1785 143.264 36.5911 143.429 37.1624 143.547L38.1462 143.757C38.7895 143.892 39.3121 144.072 39.7141 144.296C40.1161 144.521 40.4102 144.8 40.5964 145.134C40.7869 145.464 40.8821 145.862 40.8821 146.328V146.334C40.8821 146.926 40.7361 147.438 40.4441 147.87C40.1563 148.302 39.7437 148.636 39.2063 148.873C38.6731 149.11 38.0404 149.229 37.3083 149.229ZM46.4807 149.229C45.7105 149.229 45.044 149.087 44.4812 148.803C43.9184 148.52 43.4825 148.124 43.1736 147.616C42.8689 147.108 42.7166 146.518 42.7166 145.845V139.84H44.3479V145.712C44.3479 146.131 44.4304 146.499 44.5955 146.816C44.7647 147.13 45.0081 147.375 45.3254 147.553C45.6428 147.726 46.03 147.813 46.4871 147.813C46.9399 147.813 47.325 147.726 47.6423 147.553C47.9597 147.375 48.2009 147.13 48.366 146.816C48.531 146.499 48.6135 146.131 48.6135 145.712V139.84H50.2449V145.845C50.2449 146.518 50.0925 147.108 49.7878 147.616C49.4832 148.124 49.0494 148.52 48.4866 148.803C47.928 149.087 47.2594 149.229 46.4807 149.229ZM52.4983 149V139.84H53.9202L58.8333 146.728L57.7034 146.15H58.5222V139.84H60.0964V149H58.6809L53.7678 142.106L54.8977 142.684H54.0789V149H52.4983Z" fill="#3C3C43" fill-opacity="0.3"/>
<path d="M81.9207 149V139.84H83.7996L86.5544 146.893H86.6624L89.4109 139.84H91.2898V149H89.8171V142.487H89.0173L90.6423 140.094L87.1638 149H86.0466L82.5745 140.094L84.1995 142.487H83.3933V149H81.9207ZM97.4978 149.229C96.6007 149.229 95.8284 149.034 95.1809 148.645C94.5377 148.251 94.0404 147.694 93.6892 146.975C93.338 146.256 93.1624 145.405 93.1624 144.423V144.411C93.1624 143.425 93.338 142.574 93.6892 141.859C94.0447 141.139 94.5461 140.585 95.1936 140.196C95.8453 139.806 96.6134 139.612 97.4978 139.612C98.3865 139.612 99.1545 139.806 99.802 140.196C100.449 140.585 100.949 141.139 101.3 141.859C101.651 142.578 101.827 143.429 101.827 144.411V144.423C101.827 145.405 101.651 146.256 101.3 146.975C100.953 147.694 100.456 148.251 99.8083 148.645C99.1609 149.034 98.3907 149.229 97.4978 149.229ZM97.4978 147.813C98.0437 147.813 98.5155 147.673 98.9133 147.394C99.3111 147.115 99.6179 146.721 99.8337 146.213C100.054 145.706 100.164 145.109 100.164 144.423V144.411C100.164 143.721 100.054 143.124 99.8337 142.621C99.6179 142.113 99.3111 141.721 98.9133 141.446C98.5155 141.167 98.0437 141.027 97.4978 141.027C96.9561 141.027 96.4843 141.167 96.0823 141.446C95.6845 141.721 95.3756 142.113 95.1555 142.621C94.9397 143.124 94.8318 143.721 94.8318 144.411V144.423C94.8318 145.109 94.9376 145.706 95.1492 146.213C95.365 146.721 95.6718 147.115 96.0696 147.394C96.4716 147.673 96.9477 147.813 97.4978 147.813ZM103.706 149V139.84H105.128L110.041 146.728L108.911 146.15H109.73V139.84H111.304V149H109.888L104.975 142.106L106.105 142.684H105.286V149H103.706Z" fill="#3C3C43" fill-opacity="0.3"/>
<path d="M136.429 149V141.218H133.611V139.84H140.885V141.218H138.067V149H136.429ZM146.363 149.229C145.593 149.229 144.926 149.087 144.364 148.803C143.801 148.52 143.365 148.124 143.056 147.616C142.751 147.108 142.599 146.518 142.599 145.845V139.84H144.23V145.712C144.23 146.131 144.313 146.499 144.478 146.816C144.647 147.13 144.89 147.375 145.208 147.553C145.525 147.726 145.912 147.813 146.369 147.813C146.822 147.813 147.207 147.726 147.525 147.553C147.842 147.375 148.083 147.13 148.248 146.816C148.413 146.499 148.496 146.131 148.496 145.712V139.84H150.127V145.845C150.127 146.518 149.975 147.108 149.67 147.616C149.365 148.124 148.932 148.52 148.369 148.803C147.81 149.087 147.142 149.229 146.363 149.229ZM152.381 149V139.84H158.309V141.218H154.018V143.7H158.074V145.001H154.018V147.623H158.309V149H152.381Z" fill="#3C3C43" fill-opacity="0.3"/>
<path d="M183.377 149L180.921 139.84H182.622L184.196 146.715H184.285L186.094 139.84H187.548L189.376 146.715H189.465L191.032 139.84H192.721L190.271 149H188.735L186.868 142.443H186.773L184.92 149H183.377ZM194.416 149V139.84H200.344V141.218H196.053V143.7H200.11V145.001H196.053V147.623H200.344V149H194.416ZM202.376 149V139.84H205.81C206.72 139.84 207.494 140.018 208.133 140.374C208.776 140.729 209.267 141.245 209.606 141.922C209.948 142.599 210.12 143.416 210.12 144.373V144.385C210.12 145.363 209.951 146.196 209.612 146.886C209.274 147.572 208.783 148.097 208.139 148.46C207.5 148.82 206.724 149 205.81 149H202.376ZM204.013 147.623H205.594C206.199 147.623 206.715 147.498 207.143 147.248C207.57 146.998 207.894 146.634 208.114 146.156C208.338 145.678 208.45 145.096 208.45 144.411V144.398C208.45 143.729 208.336 143.158 208.108 142.684C207.883 142.206 207.558 141.842 207.13 141.592C206.703 141.343 206.191 141.218 205.594 141.218H204.013V147.623Z" fill="#3C3C43" fill-opacity="0.3"/>
<path d="M234.413 149V141.218H231.595V139.84H238.869V141.218H236.051V149H234.413ZM240.59 149V139.84H242.227V143.649H246.683V139.84H248.315V149H246.683V145.026H242.227V149H240.59ZM254.339 149.229C253.568 149.229 252.902 149.087 252.339 148.803C251.776 148.52 251.34 148.124 251.031 147.616C250.727 147.108 250.574 146.518 250.574 145.845V139.84H252.206V145.712C252.206 146.131 252.288 146.499 252.453 146.816C252.623 147.13 252.866 147.375 253.183 147.553C253.501 147.726 253.888 147.813 254.345 147.813C254.798 147.813 255.183 147.726 255.5 147.553C255.818 147.375 256.059 147.13 256.224 146.816C256.389 146.499 256.471 146.131 256.471 145.712V139.84H258.103V145.845C258.103 146.518 257.95 147.108 257.646 147.616C257.341 148.124 256.907 148.52 256.344 148.803C255.786 149.087 255.117 149.229 254.339 149.229Z" fill="#3C3C43" fill-opacity="0.3"/>
<path d="M285.551 149V139.84H291.391V141.218H287.189V143.928H291.029V145.261H287.189V149H285.551ZM293.206 149V139.84H296.907C297.563 139.84 298.126 139.957 298.595 140.189C299.065 140.422 299.425 140.75 299.675 141.173C299.924 141.597 300.049 142.1 300.049 142.684V142.697C300.049 143.302 299.897 143.839 299.592 144.309C299.292 144.775 298.871 145.105 298.329 145.299L300.328 149H298.462L296.659 145.553C296.651 145.553 296.638 145.553 296.621 145.553C296.604 145.553 296.59 145.553 296.577 145.553H294.844V149H293.206ZM294.844 144.296H296.736C297.256 144.296 297.66 144.159 297.948 143.884C298.236 143.609 298.38 143.226 298.38 142.735V142.722C298.38 142.244 298.229 141.865 297.929 141.586C297.633 141.302 297.224 141.161 296.704 141.161H294.844V144.296ZM302.042 149V139.84H303.68V149H302.042Z" fill="#3C3C43" fill-opacity="0.3"/>
<path d="M335.787 149.229C335.076 149.229 334.459 149.118 333.934 148.898C333.413 148.678 333.003 148.372 332.702 147.978C332.402 147.584 332.233 147.125 332.195 146.601L332.188 146.512H333.775L333.781 146.575C333.807 146.833 333.908 147.058 334.086 147.248C334.268 147.438 334.509 147.589 334.81 147.699C335.11 147.805 335.453 147.857 335.838 147.857C336.206 147.857 336.532 147.8 336.816 147.686C337.099 147.572 337.321 147.415 337.482 147.216C337.643 147.013 337.723 146.78 337.723 146.518V146.512C337.723 146.182 337.594 145.913 337.336 145.706C337.078 145.494 336.653 145.325 336.06 145.198L335.076 144.995C334.137 144.796 333.454 144.478 333.026 144.042C332.603 143.602 332.391 143.042 332.391 142.36V142.354C332.391 141.808 332.535 141.33 332.823 140.919C333.115 140.509 333.515 140.189 334.023 139.961C334.535 139.728 335.121 139.612 335.781 139.612C336.458 139.612 337.044 139.726 337.539 139.955C338.034 140.179 338.424 140.486 338.707 140.875C338.991 141.264 339.149 141.704 339.183 142.195L339.19 142.278H337.628L337.615 142.202C337.577 141.96 337.478 141.751 337.317 141.573C337.161 141.391 336.951 141.247 336.689 141.142C336.426 141.036 336.12 140.983 335.768 140.983C335.434 140.983 335.136 141.036 334.873 141.142C334.611 141.243 334.404 141.387 334.251 141.573C334.103 141.759 334.029 141.984 334.029 142.246V142.252C334.029 142.574 334.154 142.841 334.404 143.052C334.657 143.264 335.07 143.429 335.641 143.547L336.625 143.757C337.268 143.892 337.791 144.072 338.193 144.296C338.595 144.521 338.889 144.8 339.075 145.134C339.266 145.464 339.361 145.862 339.361 146.328V146.334C339.361 146.926 339.215 147.438 338.923 147.87C338.635 148.302 338.223 148.636 337.685 148.873C337.152 149.11 336.519 149.229 335.787 149.229ZM340.523 149L343.773 139.84H345.131V141.542H344.642L342.237 149H340.523ZM342.16 146.632L342.586 145.369H346.788L347.213 146.632H342.16ZM347.156 149L344.75 141.542V139.84H345.614L348.87 149H347.156ZM351.707 149V141.218H348.889V139.84H356.163V141.218H353.345V149H351.707Z" fill="#3C3C43" fill-opacity="0.3"/>
<path d="M246.144 186V173.842H246.017L242.394 176.439V174.604L246.144 171.908H247.892V186H246.144Z" fill="black"/>
<path d="M289.476 186V184.789L294.281 179.633C294.893 178.975 295.368 178.435 295.707 178.012C296.045 177.582 296.28 177.195 296.41 176.85C296.547 176.505 296.615 176.127 296.615 175.717V175.697C296.615 175.209 296.504 174.773 296.283 174.389C296.068 173.998 295.762 173.692 295.365 173.471C294.968 173.243 294.499 173.129 293.959 173.129C293.392 173.129 292.891 173.246 292.455 173.48C292.025 173.715 291.69 174.04 291.449 174.457C291.208 174.867 291.088 175.342 291.088 175.883L291.078 175.912L289.388 175.902L289.379 175.883C289.385 175.056 289.587 174.32 289.984 173.676C290.388 173.025 290.941 172.517 291.644 172.152C292.347 171.781 293.145 171.596 294.037 171.596C294.864 171.596 295.606 171.768 296.263 172.113C296.927 172.458 297.448 172.927 297.826 173.52C298.21 174.112 298.402 174.786 298.402 175.541V175.561C298.402 176.088 298.308 176.599 298.119 177.094C297.93 177.582 297.601 178.129 297.132 178.734C296.664 179.333 296 180.072 295.14 180.951L291.449 184.76L291.908 183.891V184.76L291.459 184.418H298.636V186H289.476Z" fill="black"/>
<path d="M342.174 186.234C341.204 186.234 340.358 186.068 339.635 185.736C338.912 185.404 338.339 184.949 337.916 184.369C337.5 183.79 337.259 183.129 337.194 182.387L337.184 182.27H338.873L338.883 182.367C338.935 182.829 339.101 183.236 339.381 183.588C339.668 183.939 340.048 184.216 340.524 184.418C340.999 184.613 341.549 184.711 342.174 184.711C342.793 184.711 343.333 184.604 343.795 184.389C344.264 184.174 344.628 183.878 344.889 183.5C345.149 183.116 345.28 182.676 345.28 182.182V182.162C345.28 181.296 344.99 180.632 344.41 180.17C343.837 179.701 343.056 179.467 342.067 179.467H340.299V177.982H341.989C342.548 177.982 343.043 177.878 343.473 177.67C343.903 177.455 344.238 177.165 344.479 176.801C344.72 176.43 344.84 176.01 344.84 175.541V175.521C344.84 175.027 344.736 174.607 344.528 174.262C344.319 173.917 344.013 173.653 343.61 173.471C343.212 173.288 342.727 173.197 342.155 173.197C341.601 173.197 341.106 173.292 340.67 173.48C340.24 173.663 339.895 173.926 339.635 174.271C339.375 174.617 339.218 175.027 339.166 175.502L339.156 175.6H337.467L337.477 175.502C337.555 174.734 337.796 174.063 338.199 173.49C338.61 172.917 339.15 172.471 339.821 172.152C340.498 171.833 341.276 171.674 342.155 171.674C343.053 171.674 343.834 171.83 344.498 172.143C345.169 172.449 345.686 172.875 346.051 173.422C346.422 173.962 346.608 174.59 346.608 175.307V175.326C346.608 175.906 346.481 176.42 346.227 176.869C345.973 177.318 345.621 177.693 345.172 177.992C344.723 178.292 344.205 178.503 343.619 178.627V178.666C344.648 178.751 345.478 179.099 346.11 179.711C346.748 180.316 347.067 181.12 347.067 182.123V182.143C347.067 182.924 346.855 183.624 346.432 184.242C346.009 184.861 345.429 185.349 344.694 185.707C343.958 186.059 343.118 186.234 342.174 186.234Z" fill="black"/>
<path d="M54.7366 237V234.08H47.8225V232.479C48.2131 231.84 48.607 231.196 49.0042 230.545C49.4078 229.894 49.8114 229.243 50.2151 228.592C50.6252 227.941 51.0354 227.296 51.4456 226.658C51.8557 226.014 52.2659 225.379 52.676 224.754C53.0862 224.122 53.4898 223.507 53.887 222.908H56.4553V232.508H58.4475V234.08H56.4553V237H54.7366ZM49.5999 232.518H54.7463V224.51H54.6389C54.3134 224.998 53.9814 225.503 53.6428 226.023C53.3108 226.538 52.9722 227.062 52.6272 227.596C52.2821 228.13 51.9371 228.667 51.592 229.207C51.2535 229.747 50.915 230.288 50.5764 230.828C50.2444 231.362 49.9189 231.893 49.5999 232.42V232.518Z" fill="black"/>
<path d="M101.331 237.312C100.452 237.312 99.6675 237.14 98.9774 236.795C98.2938 236.45 97.7437 235.978 97.327 235.379C96.9104 234.78 96.6662 234.106 96.5946 233.357L96.5848 233.25H98.2841L98.2938 233.328C98.3524 233.777 98.5184 234.188 98.7919 234.559C99.0653 234.93 99.4201 235.223 99.8563 235.438C100.299 235.652 100.797 235.76 101.35 235.76C101.975 235.76 102.526 235.623 103.001 235.35C103.483 235.07 103.857 234.686 104.124 234.197C104.397 233.709 104.534 233.149 104.534 232.518V232.498C104.534 231.88 104.397 231.329 104.124 230.848C103.85 230.359 103.476 229.979 103.001 229.705C102.532 229.432 101.992 229.295 101.38 229.295C100.911 229.295 100.478 229.367 100.081 229.51C99.6838 229.653 99.329 229.868 99.0165 230.154C98.8928 230.271 98.7756 230.398 98.6649 230.535C98.5608 230.672 98.4631 230.825 98.3719 230.994H96.8387L97.5809 222.908H105.472V224.48H98.9774L98.4989 229.236H98.6259C98.8407 228.917 99.1011 228.65 99.4071 228.436C99.7196 228.221 100.068 228.058 100.452 227.947C100.843 227.83 101.253 227.771 101.682 227.771C102.574 227.771 103.362 227.977 104.046 228.387C104.736 228.79 105.276 229.347 105.667 230.057C106.064 230.76 106.263 231.564 106.263 232.469V232.488C106.263 233.432 106.051 234.269 105.628 234.998C105.205 235.721 104.622 236.287 103.88 236.697C103.144 237.107 102.294 237.312 101.331 237.312Z" fill="#007AFF"/>
<path d="M149.595 237.312C148.951 237.312 148.313 237.189 147.681 236.941C147.056 236.694 146.487 236.294 145.972 235.74C145.458 235.187 145.048 234.458 144.742 233.553C144.436 232.648 144.283 231.535 144.283 230.213V230.193C144.283 228.598 144.498 227.234 144.927 226.102C145.357 224.969 145.976 224.103 146.783 223.504C147.597 222.898 148.573 222.596 149.713 222.596C150.507 222.596 151.22 222.742 151.851 223.035C152.489 223.322 153.023 223.725 153.453 224.246C153.882 224.76 154.175 225.363 154.332 226.053L154.361 226.18H152.584L152.545 226.072C152.401 225.675 152.196 225.337 151.929 225.057C151.669 224.777 151.35 224.559 150.972 224.402C150.601 224.246 150.175 224.168 149.693 224.168C148.84 224.168 148.144 224.419 147.603 224.92C147.069 225.421 146.672 226.085 146.412 226.912C146.158 227.732 146.015 228.637 145.982 229.627C145.976 229.705 145.972 229.786 145.972 229.871C145.972 229.949 145.972 230.031 145.972 230.115L146.392 232.449C146.392 233.068 146.532 233.628 146.812 234.129C147.099 234.624 147.483 235.018 147.964 235.311C148.446 235.604 148.983 235.75 149.576 235.75C150.175 235.75 150.715 235.607 151.197 235.32C151.679 235.034 152.06 234.646 152.339 234.158C152.626 233.663 152.769 233.113 152.769 232.508V232.488C152.769 231.87 152.632 231.32 152.359 230.838C152.092 230.35 151.721 229.969 151.246 229.695C150.77 229.422 150.224 229.285 149.605 229.285C149 229.285 148.453 229.422 147.964 229.695C147.483 229.962 147.099 230.337 146.812 230.818C146.532 231.294 146.392 231.834 146.392 232.439V232.449H145.806V229.949H146.119C146.301 229.559 146.568 229.197 146.92 228.865C147.271 228.527 147.698 228.257 148.199 228.055C148.707 227.853 149.276 227.752 149.908 227.752C150.8 227.752 151.594 227.957 152.291 228.367C152.987 228.771 153.537 229.327 153.941 230.037C154.345 230.747 154.547 231.551 154.547 232.449V232.469C154.547 233.406 154.332 234.24 153.902 234.969C153.472 235.691 152.886 236.264 152.144 236.688C151.402 237.104 150.552 237.312 149.595 237.312Z" fill="black"/>
<path d="M194.08 237L200.418 224.588V224.48H192.869V222.908H202.196V224.539L195.926 237H194.08Z" fill="black"/>
<path d="M245.782 237.234C244.786 237.234 243.904 237.062 243.136 236.717C242.368 236.372 241.762 235.896 241.319 235.291C240.883 234.679 240.665 233.979 240.665 233.191V233.172C240.665 232.592 240.792 232.055 241.046 231.561C241.3 231.066 241.655 230.646 242.11 230.301C242.566 229.949 243.093 229.705 243.692 229.568V229.529C242.924 229.288 242.312 228.891 241.856 228.338C241.401 227.785 241.173 227.137 241.173 226.395V226.375C241.173 225.665 241.371 225.034 241.769 224.48C242.166 223.921 242.713 223.481 243.409 223.162C244.106 222.837 244.897 222.674 245.782 222.674C246.674 222.674 247.465 222.837 248.155 223.162C248.852 223.481 249.399 223.921 249.796 224.48C250.193 225.034 250.392 225.665 250.392 226.375V226.395C250.392 227.137 250.164 227.785 249.708 228.338C249.259 228.891 248.647 229.288 247.872 229.529V229.568C248.478 229.705 249.005 229.949 249.454 230.301C249.91 230.646 250.265 231.066 250.519 231.561C250.772 232.055 250.899 232.592 250.899 233.172V233.191C250.899 233.979 250.681 234.679 250.245 235.291C249.809 235.896 249.203 236.372 248.429 236.717C247.66 237.062 246.778 237.234 245.782 237.234ZM245.782 235.701C246.433 235.701 247.006 235.59 247.501 235.369C248.002 235.141 248.396 234.832 248.683 234.441C248.969 234.044 249.112 233.592 249.112 233.084V233.064C249.112 232.55 248.969 232.094 248.683 231.697C248.403 231.3 248.012 230.988 247.511 230.76C247.009 230.532 246.433 230.418 245.782 230.418C245.131 230.418 244.555 230.532 244.054 230.76C243.552 230.988 243.159 231.3 242.872 231.697C242.592 232.094 242.452 232.55 242.452 233.064V233.084C242.452 233.592 242.595 234.044 242.882 234.441C243.168 234.832 243.562 235.141 244.063 235.369C244.565 235.59 245.138 235.701 245.782 235.701ZM245.782 228.875C246.349 228.875 246.847 228.777 247.276 228.582C247.706 228.38 248.041 228.104 248.282 227.752C248.523 227.4 248.644 226.997 248.644 226.541V226.521C248.644 226.066 248.523 225.662 248.282 225.311C248.041 224.959 247.706 224.686 247.276 224.49C246.847 224.288 246.349 224.188 245.782 224.188C245.216 224.188 244.718 224.288 244.288 224.49C243.858 224.686 243.523 224.959 243.282 225.311C243.041 225.662 242.921 226.066 242.921 226.521V226.541C242.921 226.997 243.041 227.4 243.282 227.752C243.523 228.104 243.858 228.38 244.288 228.582C244.718 228.777 245.216 228.875 245.782 228.875Z" fill="black"/>
<path d="M293.783 222.596C294.427 222.596 295.065 222.719 295.697 222.967C296.328 223.214 296.898 223.615 297.406 224.168C297.92 224.721 298.33 225.451 298.636 226.355C298.942 227.26 299.095 228.374 299.095 229.695V229.715C299.095 231.31 298.88 232.674 298.451 233.807C298.021 234.939 297.403 235.809 296.595 236.414C295.788 237.013 294.811 237.312 293.666 237.312C292.878 237.312 292.165 237.169 291.527 236.883C290.889 236.59 290.358 236.186 289.935 235.672C289.512 235.151 289.219 234.546 289.056 233.855L289.027 233.729H290.795L290.834 233.836C290.977 234.227 291.179 234.565 291.439 234.852C291.706 235.132 292.028 235.35 292.406 235.506C292.783 235.662 293.21 235.74 293.685 235.74C294.545 235.74 295.241 235.49 295.775 234.988C296.309 234.487 296.706 233.823 296.966 232.996C297.227 232.169 297.373 231.264 297.406 230.281C297.412 230.197 297.416 230.115 297.416 230.037C297.416 229.952 297.416 229.871 297.416 229.793L296.996 227.459C296.996 226.84 296.852 226.284 296.566 225.789C296.286 225.288 295.905 224.891 295.423 224.598C294.942 224.305 294.401 224.158 293.802 224.158C293.216 224.158 292.679 224.301 292.191 224.588C291.709 224.874 291.325 225.262 291.039 225.75C290.752 226.238 290.609 226.788 290.609 227.4V227.42C290.609 228.038 290.746 228.592 291.019 229.08C291.293 229.562 291.667 229.939 292.142 230.213C292.624 230.486 293.168 230.623 293.773 230.623C294.385 230.623 294.932 230.49 295.414 230.223C295.902 229.949 296.286 229.575 296.566 229.1C296.852 228.618 296.996 228.074 296.996 227.469V227.459H297.572V229.959H297.259C297.09 230.35 296.826 230.714 296.468 231.053C296.117 231.385 295.687 231.652 295.179 231.854C294.678 232.055 294.108 232.156 293.47 232.156C292.591 232.156 291.8 231.954 291.097 231.551C290.401 231.141 289.851 230.581 289.447 229.871C289.043 229.155 288.841 228.351 288.841 227.459V227.439C288.841 226.502 289.053 225.669 289.476 224.939C289.906 224.21 290.492 223.637 291.234 223.221C291.983 222.804 292.832 222.596 293.783 222.596Z" fill="black"/>
<path d="M336.427 237V224.842H336.3L332.677 227.439V225.604L336.427 222.908H338.175V237H336.427ZM346.486 237.312C345.438 237.312 344.539 237.013 343.79 236.414C343.048 235.815 342.475 234.965 342.072 233.865C341.675 232.765 341.476 231.463 341.476 229.959V229.939C341.476 228.436 341.675 227.137 342.072 226.043C342.475 224.943 343.048 224.093 343.79 223.494C344.539 222.895 345.438 222.596 346.486 222.596C347.54 222.596 348.442 222.895 349.191 223.494C349.94 224.093 350.516 224.943 350.919 226.043C351.323 227.137 351.525 228.436 351.525 229.939V229.959C351.525 231.463 351.323 232.765 350.919 233.865C350.516 234.965 349.94 235.815 349.191 236.414C348.442 237.013 347.54 237.312 346.486 237.312ZM346.486 235.779C347.176 235.779 347.762 235.542 348.244 235.066C348.732 234.591 349.106 233.921 349.367 233.055C349.627 232.182 349.757 231.15 349.757 229.959V229.939C349.757 228.748 349.627 227.719 349.367 226.854C349.106 225.988 348.732 225.32 348.244 224.852C347.762 224.376 347.176 224.139 346.486 224.139C345.809 224.139 345.226 224.376 344.738 224.852C344.256 225.32 343.885 225.988 343.624 226.854C343.371 227.719 343.244 228.748 343.244 229.939V229.959C343.244 231.15 343.371 232.182 343.624 233.055C343.885 233.921 344.256 234.591 344.738 235.066C345.226 235.542 345.809 235.779 346.486 235.779Z" fill="black"/>
<path d="M49.087 288V275.842H48.96L45.337 278.439V276.604L49.087 273.908H50.835V288H49.087ZM57.8666 288V275.842H57.7397L54.1166 278.439V276.604L57.8666 273.908H59.6147V288H57.8666Z" fill="black"/>
<path d="M95.8962 288V275.842H95.7692L92.1462 278.439V276.604L95.8962 273.908H97.6442V288H95.8962ZM101.199 288V286.789L106.004 281.633C106.616 280.975 107.091 280.435 107.43 280.012C107.768 279.582 108.003 279.195 108.133 278.85C108.27 278.505 108.338 278.127 108.338 277.717V277.697C108.338 277.209 108.227 276.773 108.006 276.389C107.791 275.998 107.485 275.692 107.088 275.471C106.691 275.243 106.222 275.129 105.682 275.129C105.115 275.129 104.614 275.246 104.178 275.48C103.748 275.715 103.413 276.04 103.172 276.457C102.931 276.867 102.811 277.342 102.811 277.883L102.801 277.912L101.111 277.902L101.102 277.883C101.108 277.056 101.31 276.32 101.707 275.676C102.111 275.025 102.664 274.517 103.367 274.152C104.07 273.781 104.868 273.596 105.76 273.596C106.587 273.596 107.329 273.768 107.986 274.113C108.65 274.458 109.171 274.927 109.549 275.52C109.933 276.112 110.125 276.786 110.125 277.541V277.561C110.125 278.088 110.031 278.599 109.842 279.094C109.653 279.582 109.324 280.129 108.856 280.734C108.387 281.333 107.723 282.072 106.863 282.951L103.172 286.76L103.631 285.891V286.76L103.182 286.418H110.359V288H101.199Z" fill="black"/>
<path d="M143.819 288V275.842H143.692L140.069 278.439V276.604L143.819 273.908H145.567V288H143.819ZM153.897 288.234C152.927 288.234 152.081 288.068 151.358 287.736C150.636 287.404 150.063 286.949 149.639 286.369C149.223 285.79 148.982 285.129 148.917 284.387L148.907 284.27H150.597L150.606 284.367C150.658 284.829 150.824 285.236 151.104 285.588C151.391 285.939 151.772 286.216 152.247 286.418C152.722 286.613 153.272 286.711 153.897 286.711C154.516 286.711 155.056 286.604 155.518 286.389C155.987 286.174 156.352 285.878 156.612 285.5C156.873 285.116 157.003 284.676 157.003 284.182V284.162C157.003 283.296 156.713 282.632 156.134 282.17C155.561 281.701 154.779 281.467 153.79 281.467H152.022V279.982H153.712C154.272 279.982 154.766 279.878 155.196 279.67C155.626 279.455 155.961 279.165 156.202 278.801C156.443 278.43 156.563 278.01 156.563 277.541V277.521C156.563 277.027 156.459 276.607 156.251 276.262C156.042 275.917 155.736 275.653 155.333 275.471C154.936 275.288 154.451 275.197 153.878 275.197C153.324 275.197 152.83 275.292 152.393 275.48C151.964 275.663 151.619 275.926 151.358 276.271C151.098 276.617 150.942 277.027 150.889 277.502L150.88 277.6H149.19L149.2 277.502C149.278 276.734 149.519 276.063 149.923 275.49C150.333 274.917 150.873 274.471 151.544 274.152C152.221 273.833 152.999 273.674 153.878 273.674C154.776 273.674 155.557 273.83 156.222 274.143C156.892 274.449 157.41 274.875 157.774 275.422C158.145 275.962 158.331 276.59 158.331 277.307V277.326C158.331 277.906 158.204 278.42 157.95 278.869C157.696 279.318 157.345 279.693 156.895 279.992C156.446 280.292 155.929 280.503 155.343 280.627V280.666C156.371 280.751 157.201 281.099 157.833 281.711C158.471 282.316 158.79 283.12 158.79 284.123V284.143C158.79 284.924 158.578 285.624 158.155 286.242C157.732 286.861 157.152 287.349 156.417 287.707C155.681 288.059 154.841 288.234 153.897 288.234Z" fill="black"/>
<path d="M191.829 288V275.842H191.702L188.079 278.439V276.604L191.829 273.908H193.577V288H191.829ZM203.626 288V285.08H196.712V283.479C197.103 282.84 197.497 282.196 197.894 281.545C198.298 280.894 198.701 280.243 199.105 279.592C199.515 278.941 199.925 278.296 200.335 277.658C200.746 277.014 201.156 276.379 201.566 275.754C201.976 275.122 202.38 274.507 202.777 273.908H205.345V283.508H207.337V285.08H205.345V288H203.626ZM198.49 283.518H203.636V275.51H203.529C203.203 275.998 202.871 276.503 202.533 277.023C202.201 277.538 201.862 278.062 201.517 278.596C201.172 279.13 200.827 279.667 200.482 280.207C200.143 280.747 199.805 281.288 199.466 281.828C199.134 282.362 198.809 282.893 198.49 283.42V283.518Z" fill="black"/>
<path d="M240.24 288V275.842H240.113L236.49 278.439V276.604L240.24 273.908H241.988V288H240.24ZM250.221 288.312C249.342 288.312 248.557 288.14 247.867 287.795C247.184 287.45 246.634 286.978 246.217 286.379C245.8 285.78 245.556 285.106 245.485 284.357L245.475 284.25H247.174L247.184 284.328C247.242 284.777 247.408 285.188 247.682 285.559C247.955 285.93 248.31 286.223 248.746 286.438C249.189 286.652 249.687 286.76 250.24 286.76C250.865 286.76 251.416 286.623 251.891 286.35C252.373 286.07 252.747 285.686 253.014 285.197C253.287 284.709 253.424 284.149 253.424 283.518V283.498C253.424 282.88 253.287 282.329 253.014 281.848C252.74 281.359 252.366 280.979 251.891 280.705C251.422 280.432 250.882 280.295 250.27 280.295C249.801 280.295 249.368 280.367 248.971 280.51C248.574 280.653 248.219 280.868 247.906 281.154C247.783 281.271 247.666 281.398 247.555 281.535C247.451 281.672 247.353 281.825 247.262 281.994H245.729L246.471 273.908H254.362V275.48H247.867L247.389 280.236H247.516C247.731 279.917 247.991 279.65 248.297 279.436C248.61 279.221 248.958 279.058 249.342 278.947C249.733 278.83 250.143 278.771 250.572 278.771C251.464 278.771 252.252 278.977 252.936 279.387C253.626 279.79 254.166 280.347 254.557 281.057C254.954 281.76 255.153 282.564 255.153 283.469V283.488C255.153 284.432 254.941 285.269 254.518 285.998C254.095 286.721 253.512 287.287 252.77 287.697C252.034 288.107 251.184 288.312 250.221 288.312Z" fill="black"/>
<path d="M288.182 288V275.842H288.055L284.432 278.439V276.604L288.182 273.908H289.93V288H288.182ZM298.485 288.312C297.841 288.312 297.203 288.189 296.571 287.941C295.946 287.694 295.376 287.294 294.862 286.74C294.348 286.187 293.938 285.458 293.632 284.553C293.326 283.648 293.173 282.535 293.173 281.213V281.193C293.173 279.598 293.388 278.234 293.817 277.102C294.247 275.969 294.865 275.103 295.673 274.504C296.486 273.898 297.463 273.596 298.602 273.596C299.397 273.596 300.11 273.742 300.741 274.035C301.379 274.322 301.913 274.725 302.343 275.246C302.772 275.76 303.065 276.363 303.222 277.053L303.251 277.18H301.473L301.434 277.072C301.291 276.675 301.086 276.337 300.819 276.057C300.559 275.777 300.24 275.559 299.862 275.402C299.491 275.246 299.065 275.168 298.583 275.168C297.73 275.168 297.033 275.419 296.493 275.92C295.959 276.421 295.562 277.085 295.302 277.912C295.048 278.732 294.904 279.637 294.872 280.627C294.865 280.705 294.862 280.786 294.862 280.871C294.862 280.949 294.862 281.031 294.862 281.115L295.282 283.449C295.282 284.068 295.422 284.628 295.702 285.129C295.988 285.624 296.373 286.018 296.854 286.311C297.336 286.604 297.873 286.75 298.466 286.75C299.065 286.75 299.605 286.607 300.087 286.32C300.569 286.034 300.949 285.646 301.229 285.158C301.516 284.663 301.659 284.113 301.659 283.508V283.488C301.659 282.87 301.522 282.32 301.249 281.838C300.982 281.35 300.611 280.969 300.136 280.695C299.66 280.422 299.113 280.285 298.495 280.285C297.889 280.285 297.343 280.422 296.854 280.695C296.373 280.962 295.988 281.337 295.702 281.818C295.422 282.294 295.282 282.834 295.282 283.439V283.449H294.696V280.949H295.009C295.191 280.559 295.458 280.197 295.809 279.865C296.161 279.527 296.587 279.257 297.089 279.055C297.597 278.853 298.166 278.752 298.798 278.752C299.69 278.752 300.484 278.957 301.18 279.367C301.877 279.771 302.427 280.327 302.831 281.037C303.235 281.747 303.436 282.551 303.436 283.449V283.469C303.436 284.406 303.222 285.24 302.792 285.969C302.362 286.691 301.776 287.264 301.034 287.688C300.292 288.104 299.442 288.312 298.485 288.312Z" fill="black"/>
<path d="M337.032 288V275.842H336.905L333.282 278.439V276.604L337.032 273.908H338.78V288H337.032ZM342.97 288L349.308 275.588V275.48H341.759V273.908H351.085V275.539L344.816 288H342.97Z" fill="black"/>
<path d="M47.378 339V326.842H47.251L43.628 329.439V327.604L47.378 324.908H49.126V339H47.378ZM57.5053 339.234C56.5092 339.234 55.6271 339.062 54.8588 338.717C54.0906 338.372 53.4851 337.896 53.0424 337.291C52.6062 336.679 52.3881 335.979 52.3881 335.191V335.172C52.3881 334.592 52.5151 334.055 52.769 333.561C53.0229 333.066 53.3777 332.646 53.8334 332.301C54.2892 331.949 54.8165 331.705 55.4155 331.568V331.529C54.6472 331.288 54.0353 330.891 53.5795 330.338C53.1238 329.785 52.8959 329.137 52.8959 328.395V328.375C52.8959 327.665 53.0945 327.034 53.4916 326.48C53.8888 325.921 54.4357 325.481 55.1323 325.162C55.8289 324.837 56.6199 324.674 57.5053 324.674C58.3972 324.674 59.1883 324.837 59.8784 325.162C60.575 325.481 61.1219 325.921 61.519 326.48C61.9161 327.034 62.1147 327.665 62.1147 328.375V328.395C62.1147 329.137 61.8868 329.785 61.4311 330.338C60.9819 330.891 60.3699 331.288 59.5952 331.529V331.568C60.2006 331.705 60.728 331.949 61.1772 332.301C61.6329 332.646 61.9877 333.066 62.2416 333.561C62.4956 334.055 62.6225 334.592 62.6225 335.172V335.191C62.6225 335.979 62.4044 336.679 61.9682 337.291C61.532 337.896 60.9265 338.372 60.1518 338.717C59.3836 339.062 58.5014 339.234 57.5053 339.234ZM57.5053 337.701C58.1564 337.701 58.7293 337.59 59.2241 337.369C59.7254 337.141 60.1193 336.832 60.4057 336.441C60.6922 336.044 60.8354 335.592 60.8354 335.084V335.064C60.8354 334.55 60.6922 334.094 60.4057 333.697C60.1258 333.3 59.7351 332.988 59.2338 332.76C58.7325 332.532 58.1564 332.418 57.5053 332.418C56.8543 332.418 56.2781 332.532 55.7768 332.76C55.2755 332.988 54.8816 333.3 54.5952 333.697C54.3152 334.094 54.1752 334.55 54.1752 335.064V335.084C54.1752 335.592 54.3185 336.044 54.6049 336.441C54.8914 336.832 55.2853 337.141 55.7866 337.369C56.2879 337.59 56.8608 337.701 57.5053 337.701ZM57.5053 330.875C58.0717 330.875 58.5698 330.777 58.9995 330.582C59.4291 330.38 59.7644 330.104 60.0053 329.752C60.2462 329.4 60.3666 328.997 60.3666 328.541V328.521C60.3666 328.066 60.2462 327.662 60.0053 327.311C59.7644 326.959 59.4291 326.686 58.9995 326.49C58.5698 326.288 58.0717 326.188 57.5053 326.188C56.9389 326.188 56.4409 326.288 56.0112 326.49C55.5815 326.686 55.2462 326.959 55.0053 327.311C54.7644 327.662 54.644 328.066 54.644 328.521V328.541C54.644 328.997 54.7644 329.4 55.0053 329.752C55.2462 330.104 55.5815 330.38 56.0112 330.582C56.4409 330.777 56.9389 330.875 57.5053 330.875Z" fill="black"/>
<path d="M95.5153 339V326.842H95.3884L91.7653 329.439V327.604L95.5153 324.908H97.2634V339H95.5153ZM105.506 324.596C106.15 324.596 106.788 324.719 107.42 324.967C108.052 325.214 108.621 325.615 109.129 326.168C109.643 326.721 110.053 327.451 110.359 328.355C110.665 329.26 110.818 330.374 110.818 331.695V331.715C110.818 333.31 110.604 334.674 110.174 335.807C109.744 336.939 109.126 337.809 108.318 338.414C107.511 339.013 106.535 339.312 105.389 339.312C104.601 339.312 103.888 339.169 103.25 338.883C102.612 338.59 102.081 338.186 101.658 337.672C101.235 337.151 100.942 336.546 100.779 335.855L100.75 335.729H102.518L102.557 335.836C102.7 336.227 102.902 336.565 103.162 336.852C103.429 337.132 103.751 337.35 104.129 337.506C104.507 337.662 104.933 337.74 105.408 337.74C106.268 337.74 106.964 337.49 107.498 336.988C108.032 336.487 108.429 335.823 108.69 334.996C108.95 334.169 109.096 333.264 109.129 332.281C109.135 332.197 109.139 332.115 109.139 332.037C109.139 331.952 109.139 331.871 109.139 331.793L108.719 329.459C108.719 328.84 108.576 328.284 108.289 327.789C108.009 327.288 107.628 326.891 107.147 326.598C106.665 326.305 106.124 326.158 105.525 326.158C104.94 326.158 104.402 326.301 103.914 326.588C103.432 326.874 103.048 327.262 102.762 327.75C102.475 328.238 102.332 328.788 102.332 329.4V329.42C102.332 330.038 102.469 330.592 102.742 331.08C103.016 331.562 103.39 331.939 103.865 332.213C104.347 332.486 104.891 332.623 105.496 332.623C106.108 332.623 106.655 332.49 107.137 332.223C107.625 331.949 108.009 331.575 108.289 331.1C108.576 330.618 108.719 330.074 108.719 329.469V329.459H109.295V331.959H108.982C108.813 332.35 108.55 332.714 108.191 333.053C107.84 333.385 107.41 333.652 106.902 333.854C106.401 334.055 105.831 334.156 105.193 334.156C104.315 334.156 103.524 333.954 102.82 333.551C102.124 333.141 101.574 332.581 101.17 331.871C100.766 331.155 100.565 330.351 100.565 329.459V329.439C100.565 328.502 100.776 327.669 101.199 326.939C101.629 326.21 102.215 325.637 102.957 325.221C103.706 324.804 104.555 324.596 105.506 324.596Z" fill="black"/>
<path d="M138.926 339V337.789L143.731 332.633C144.343 331.975 144.818 331.435 145.157 331.012C145.495 330.582 145.73 330.195 145.86 329.85C145.997 329.505 146.065 329.127 146.065 328.717V328.697C146.065 328.209 145.954 327.773 145.733 327.389C145.518 326.998 145.212 326.692 144.815 326.471C144.418 326.243 143.949 326.129 143.409 326.129C142.842 326.129 142.341 326.246 141.905 326.48C141.475 326.715 141.14 327.04 140.899 327.457C140.658 327.867 140.538 328.342 140.538 328.883L140.528 328.912L138.838 328.902L138.829 328.883C138.835 328.056 139.037 327.32 139.434 326.676C139.838 326.025 140.391 325.517 141.094 325.152C141.797 324.781 142.595 324.596 143.487 324.596C144.314 324.596 145.056 324.768 145.713 325.113C146.377 325.458 146.898 325.927 147.276 326.52C147.66 327.112 147.852 327.786 147.852 328.541V328.561C147.852 329.088 147.758 329.599 147.569 330.094C147.38 330.582 147.051 331.129 146.582 331.734C146.114 332.333 145.45 333.072 144.59 333.951L140.899 337.76L141.358 336.891V337.76L140.909 337.418H148.086V339H138.926ZM155.177 339.312C154.128 339.312 153.23 339.013 152.481 338.414C151.739 337.815 151.166 336.965 150.763 335.865C150.365 334.765 150.167 333.463 150.167 331.959V331.939C150.167 330.436 150.365 329.137 150.763 328.043C151.166 326.943 151.739 326.093 152.481 325.494C153.23 324.895 154.128 324.596 155.177 324.596C156.231 324.596 157.133 324.895 157.882 325.494C158.63 326.093 159.207 326.943 159.61 328.043C160.014 329.137 160.216 330.436 160.216 331.939V331.959C160.216 333.463 160.014 334.765 159.61 335.865C159.207 336.965 158.63 337.815 157.882 338.414C157.133 339.013 156.231 339.312 155.177 339.312ZM155.177 337.779C155.867 337.779 156.453 337.542 156.934 337.066C157.423 336.591 157.797 335.921 158.057 335.055C158.318 334.182 158.448 333.15 158.448 331.959V331.939C158.448 330.748 158.318 329.719 158.057 328.854C157.797 327.988 157.423 327.32 156.934 326.852C156.453 326.376 155.867 326.139 155.177 326.139C154.5 326.139 153.917 326.376 153.429 326.852C152.947 327.32 152.576 327.988 152.315 328.854C152.061 329.719 151.934 330.748 151.934 331.939V331.959C151.934 333.15 152.061 334.182 152.315 335.055C152.576 335.921 152.947 336.591 153.429 337.066C153.917 337.542 154.5 337.779 155.177 337.779Z" fill="black"/>
<path d="M188.753 339V337.789L193.558 332.633C194.17 331.975 194.645 331.435 194.983 331.012C195.322 330.582 195.556 330.195 195.687 329.85C195.823 329.505 195.892 329.127 195.892 328.717V328.697C195.892 328.209 195.781 327.773 195.56 327.389C195.345 326.998 195.039 326.692 194.642 326.471C194.245 326.243 193.776 326.129 193.235 326.129C192.669 326.129 192.168 326.246 191.731 326.48C191.302 326.715 190.967 327.04 190.726 327.457C190.485 327.867 190.364 328.342 190.364 328.883L190.355 328.912L188.665 328.902L188.655 328.883C188.662 328.056 188.864 327.32 189.261 326.676C189.664 326.025 190.218 325.517 190.921 325.152C191.624 324.781 192.422 324.596 193.314 324.596C194.14 324.596 194.883 324.768 195.54 325.113C196.204 325.458 196.725 325.927 197.103 326.52C197.487 327.112 197.679 327.786 197.679 328.541V328.561C197.679 329.088 197.584 329.599 197.396 330.094C197.207 330.582 196.878 331.129 196.409 331.734C195.94 332.333 195.276 333.072 194.417 333.951L190.726 337.76L191.185 336.891V337.76L190.735 337.418H197.913V339H188.753ZM203.724 339V326.842H203.597L199.974 329.439V327.604L203.724 324.908H205.472V339H203.724Z" fill="black"/>
<path d="M235.562 339V337.789L240.367 332.633C240.979 331.975 241.454 331.435 241.793 331.012C242.131 330.582 242.366 330.195 242.496 329.85C242.633 329.505 242.701 329.127 242.701 328.717V328.697C242.701 328.209 242.59 327.773 242.369 327.389C242.154 326.998 241.848 326.692 241.451 326.471C241.054 326.243 240.585 326.129 240.045 326.129C239.478 326.129 238.977 326.246 238.541 326.48C238.111 326.715 237.776 327.04 237.535 327.457C237.294 327.867 237.174 328.342 237.174 328.883L237.164 328.912L235.474 328.902L235.465 328.883C235.471 328.056 235.673 327.32 236.07 326.676C236.474 326.025 237.027 325.517 237.73 325.152C238.433 324.781 239.231 324.596 240.123 324.596C240.95 324.596 241.692 324.768 242.349 325.113C243.013 325.458 243.534 325.927 243.912 326.52C244.296 327.112 244.488 327.786 244.488 328.541V328.561C244.488 329.088 244.394 329.599 244.205 330.094C244.016 330.582 243.687 331.129 243.219 331.734C242.75 332.333 242.086 333.072 241.226 333.951L237.535 337.76L237.994 336.891V337.76L237.545 337.418H244.722V339H235.562ZM247.057 339V337.789L251.862 332.633C252.474 331.975 252.949 331.435 253.287 331.012C253.626 330.582 253.86 330.195 253.99 329.85C254.127 329.505 254.196 329.127 254.196 328.717V328.697C254.196 328.209 254.085 327.773 253.863 327.389C253.649 326.998 253.343 326.692 252.946 326.471C252.548 326.243 252.08 326.129 251.539 326.129C250.973 326.129 250.472 326.246 250.035 326.48C249.606 326.715 249.27 327.04 249.029 327.457C248.789 327.867 248.668 328.342 248.668 328.883L248.658 328.912L246.969 328.902L246.959 328.883C246.966 328.056 247.168 327.32 247.565 326.676C247.968 326.025 248.522 325.517 249.225 325.152C249.928 324.781 250.725 324.596 251.617 324.596C252.444 324.596 253.186 324.768 253.844 325.113C254.508 325.458 255.029 325.927 255.406 326.52C255.791 327.112 255.983 327.786 255.983 328.541V328.561C255.983 329.088 255.888 329.599 255.699 330.094C255.511 330.582 255.182 331.129 254.713 331.734C254.244 332.333 253.58 333.072 252.721 333.951L249.029 337.76L249.488 336.891V337.76L249.039 337.418H256.217V339H247.057Z" fill="black"/>
<circle opacity="0.12" cx="293.949" cy="332" r="22" fill="#007AFF"/>
<path d="M280.953 341V339.195L286.859 333.23C287.609 332.473 288.183 331.844 288.582 331.344C288.98 330.844 289.254 330.398 289.402 330.008C289.55 329.617 289.625 329.199 289.625 328.754V328.73C289.625 328.191 289.5 327.715 289.25 327.301C289.007 326.879 288.664 326.551 288.218 326.316C287.781 326.074 287.269 325.953 286.683 325.953C286.035 325.953 285.457 326.09 284.949 326.363C284.441 326.629 284.043 326.992 283.754 327.453C283.464 327.914 283.32 328.434 283.32 329.012L283.308 329.082H280.824L280.812 329.012C280.82 327.996 281.078 327.098 281.586 326.316C282.101 325.527 282.804 324.91 283.695 324.465C284.586 324.012 285.582 323.785 286.683 323.785C287.761 323.785 288.718 323.992 289.554 324.406C290.39 324.82 291.047 325.391 291.523 326.117C292 326.836 292.238 327.652 292.238 328.566V328.59C292.238 329.23 292.121 329.844 291.886 330.43C291.652 331.008 291.25 331.648 290.679 332.352C290.109 333.055 289.316 333.906 288.3 334.906L283.648 339.488L284.504 337.883V339.488L283.648 338.773H292.496V341H280.953ZM300.968 341.293C299.757 341.293 298.703 341.09 297.804 340.684C296.906 340.277 296.195 339.719 295.672 339.008C295.148 338.289 294.847 337.469 294.769 336.547L294.757 336.406H297.277L297.3 336.523C297.355 337.023 297.539 337.469 297.851 337.859C298.172 338.242 298.593 338.543 299.117 338.762C299.648 338.98 300.265 339.09 300.968 339.09C301.656 339.09 302.257 338.973 302.773 338.738C303.297 338.496 303.699 338.168 303.98 337.754C304.269 337.332 304.414 336.848 304.414 336.301V336.277C304.414 335.324 304.089 334.594 303.441 334.086C302.8 333.57 301.914 333.312 300.781 333.312H298.73V331.25H300.711C301.351 331.25 301.914 331.137 302.398 330.91C302.89 330.676 303.269 330.355 303.535 329.949C303.808 329.543 303.945 329.078 303.945 328.555V328.531C303.945 327.984 303.828 327.52 303.593 327.137C303.359 326.754 303.015 326.461 302.562 326.258C302.117 326.055 301.578 325.953 300.945 325.953C300.32 325.953 299.765 326.059 299.281 326.27C298.797 326.473 298.41 326.766 298.121 327.148C297.832 327.531 297.656 327.984 297.593 328.508L297.582 328.625H295.109L295.121 328.496C295.214 327.551 295.511 326.727 296.011 326.023C296.511 325.32 297.183 324.773 298.027 324.383C298.871 323.992 299.843 323.797 300.945 323.797C302.07 323.797 303.05 323.984 303.886 324.359C304.722 324.727 305.371 325.242 305.832 325.906C306.293 326.562 306.523 327.324 306.523 328.191V328.215C306.523 328.918 306.367 329.539 306.054 330.078C305.75 330.609 305.328 331.055 304.789 331.414C304.25 331.766 303.636 332.012 302.949 332.152V332.211C304.191 332.312 305.191 332.723 305.949 333.441C306.714 334.16 307.097 335.113 307.097 336.301V336.324C307.097 337.285 306.836 338.141 306.312 338.891C305.789 339.641 305.066 340.23 304.144 340.66C303.23 341.082 302.172 341.293 300.968 341.293Z" fill="#007AFF"/>
<path d="M331.661 339V337.789L336.466 332.633C337.078 331.975 337.553 331.435 337.892 331.012C338.23 330.582 338.465 330.195 338.595 329.85C338.731 329.505 338.8 329.127 338.8 328.717V328.697C338.8 328.209 338.689 327.773 338.468 327.389C338.253 326.998 337.947 326.692 337.55 326.471C337.153 326.243 336.684 326.129 336.144 326.129C335.577 326.129 335.076 326.246 334.64 326.48C334.21 326.715 333.875 327.04 333.634 327.457C333.393 327.867 333.273 328.342 333.273 328.883L333.263 328.912L331.573 328.902L331.564 328.883C331.57 328.056 331.772 327.32 332.169 326.676C332.573 326.025 333.126 325.517 333.829 325.152C334.532 324.781 335.33 324.596 336.222 324.596C337.049 324.596 337.791 324.768 338.448 325.113C339.112 325.458 339.633 325.927 340.011 326.52C340.395 327.112 340.587 327.786 340.587 328.541V328.561C340.587 329.088 340.493 329.599 340.304 330.094C340.115 330.582 339.786 331.129 339.317 331.734C338.849 332.333 338.185 333.072 337.325 333.951L333.634 337.76L334.093 336.891V337.76L333.644 337.418H340.821V339H331.661ZM349.318 339V336.08H342.404V334.479C342.794 333.84 343.188 333.196 343.585 332.545C343.989 331.894 344.393 331.243 344.796 330.592C345.206 329.941 345.617 329.296 346.027 328.658C346.437 328.014 346.847 327.379 347.257 326.754C347.667 326.122 348.071 325.507 348.468 324.908H351.037V334.508H353.029V336.08H351.037V339H349.318ZM344.181 334.518H349.328V326.51H349.22C348.895 326.998 348.563 327.503 348.224 328.023C347.892 328.538 347.553 329.062 347.208 329.596C346.863 330.13 346.518 330.667 346.173 331.207C345.835 331.747 345.496 332.288 345.158 332.828C344.826 333.362 344.5 333.893 344.181 334.42V334.518Z" fill="black"/>
<path d="M42.7393 390V388.789L47.544 383.633C48.156 382.975 48.6312 382.435 48.9698 382.012C49.3083 381.582 49.5427 381.195 49.6729 380.85C49.8096 380.505 49.878 380.127 49.878 379.717V379.697C49.878 379.209 49.7673 378.773 49.5459 378.389C49.3311 377.998 49.0251 377.692 48.628 377.471C48.2308 377.243 47.7621 377.129 47.2217 377.129C46.6553 377.129 46.154 377.246 45.7178 377.48C45.2881 377.715 44.9528 378.04 44.712 378.457C44.4711 378.867 44.3506 379.342 44.3506 379.883L44.3409 379.912L42.6514 379.902L42.6417 379.883C42.6482 379.056 42.85 378.32 43.2471 377.676C43.6508 377.025 44.2042 376.517 44.9073 376.152C45.6104 375.781 46.4079 375.596 47.2999 375.596C48.1267 375.596 48.8689 375.768 49.5264 376.113C50.1905 376.458 50.7113 376.927 51.0889 377.52C51.473 378.112 51.6651 378.786 51.6651 379.541V379.561C51.6651 380.088 51.5707 380.599 51.3819 381.094C51.1931 381.582 50.8643 382.129 50.3956 382.734C49.9268 383.333 49.2627 384.072 48.4034 384.951L44.712 388.76L45.1709 387.891V388.76L44.7217 388.418H51.8995V390H42.7393ZM58.9116 390.312C58.0327 390.312 57.2482 390.14 56.5581 389.795C55.8745 389.45 55.3243 388.978 54.9077 388.379C54.491 387.78 54.2469 387.106 54.1752 386.357L54.1655 386.25H55.8647L55.8745 386.328C55.9331 386.777 56.0991 387.188 56.3725 387.559C56.6459 387.93 57.0008 388.223 57.437 388.438C57.8797 388.652 58.3777 388.76 58.9311 388.76C59.5561 388.76 60.1062 388.623 60.5815 388.35C61.0633 388.07 61.4376 387.686 61.7045 387.197C61.978 386.709 62.1147 386.149 62.1147 385.518V385.498C62.1147 384.88 61.978 384.329 61.7045 383.848C61.4311 383.359 61.0568 382.979 60.5815 382.705C60.1127 382.432 59.5724 382.295 58.9604 382.295C58.4916 382.295 58.0587 382.367 57.6616 382.51C57.2644 382.653 56.9096 382.868 56.5971 383.154C56.4734 383.271 56.3562 383.398 56.2456 383.535C56.1414 383.672 56.0437 383.825 55.9526 383.994H54.4194L55.1616 375.908H63.0522V377.48H56.5581L56.0795 382.236H56.2065C56.4213 381.917 56.6818 381.65 56.9877 381.436C57.3002 381.221 57.6486 381.058 58.0327 380.947C58.4233 380.83 58.8334 380.771 59.2631 380.771C60.1551 380.771 60.9428 380.977 61.6264 381.387C62.3165 381.79 62.8569 382.347 63.2475 383.057C63.6446 383.76 63.8432 384.564 63.8432 385.469V385.488C63.8432 386.432 63.6316 387.269 63.2084 387.998C62.7853 388.721 62.2026 389.287 61.4604 389.697C60.7247 390.107 59.8751 390.312 58.9116 390.312Z" fill="black"/>
<path d="M90.6813 390V388.789L95.486 383.633C96.098 382.975 96.5733 382.435 96.9118 382.012C97.2503 381.582 97.4847 381.195 97.6149 380.85C97.7516 380.505 97.82 380.127 97.82 379.717V379.697C97.82 379.209 97.7093 378.773 97.488 378.389C97.2731 377.998 96.9671 377.692 96.57 377.471C96.1729 377.243 95.7041 377.129 95.1637 377.129C94.5973 377.129 94.096 377.246 93.6598 377.48C93.2302 377.715 92.8949 378.04 92.654 378.457C92.4131 378.867 92.2927 379.342 92.2927 379.883L92.2829 379.912L90.5934 379.902L90.5837 379.883C90.5902 379.056 90.792 378.32 91.1891 377.676C91.5928 377.025 92.1462 376.517 92.8493 376.152C93.5524 375.781 94.3499 375.596 95.2419 375.596C96.0687 375.596 96.8109 375.768 97.4684 376.113C98.1325 376.458 98.6533 376.927 99.0309 377.52C99.415 378.112 99.6071 378.786 99.6071 379.541V379.561C99.6071 380.088 99.5127 380.599 99.3239 381.094C99.1351 381.582 98.8063 382.129 98.3376 382.734C97.8688 383.333 97.2048 384.072 96.3454 384.951L92.654 388.76L93.113 387.891V388.76L92.6637 388.418H99.8415V390H90.6813ZM107.176 390.312C106.531 390.312 105.893 390.189 105.262 389.941C104.637 389.694 104.067 389.294 103.553 388.74C103.038 388.187 102.628 387.458 102.322 386.553C102.016 385.648 101.863 384.535 101.863 383.213V383.193C101.863 381.598 102.078 380.234 102.508 379.102C102.938 377.969 103.556 377.103 104.363 376.504C105.177 375.898 106.154 375.596 107.293 375.596C108.087 375.596 108.8 375.742 109.432 376.035C110.07 376.322 110.604 376.725 111.033 377.246C111.463 377.76 111.756 378.363 111.912 379.053L111.941 379.18H110.164L110.125 379.072C109.982 378.675 109.777 378.337 109.51 378.057C109.249 377.777 108.93 377.559 108.553 377.402C108.182 377.246 107.755 377.168 107.274 377.168C106.421 377.168 105.724 377.419 105.184 377.92C104.65 378.421 104.253 379.085 103.992 379.912C103.738 380.732 103.595 381.637 103.563 382.627C103.556 382.705 103.553 382.786 103.553 382.871C103.553 382.949 103.553 383.031 103.553 383.115L103.973 385.449C103.973 386.068 104.113 386.628 104.393 387.129C104.679 387.624 105.063 388.018 105.545 388.311C106.027 388.604 106.564 388.75 107.156 388.75C107.755 388.75 108.296 388.607 108.777 388.32C109.259 388.034 109.64 387.646 109.92 387.158C110.206 386.663 110.35 386.113 110.35 385.508V385.488C110.35 384.87 110.213 384.32 109.94 383.838C109.673 383.35 109.302 382.969 108.826 382.695C108.351 382.422 107.804 382.285 107.186 382.285C106.58 382.285 106.033 382.422 105.545 382.695C105.063 382.962 104.679 383.337 104.393 383.818C104.113 384.294 103.973 384.834 103.973 385.439V385.449H103.387V382.949H103.699C103.882 382.559 104.149 382.197 104.5 381.865C104.852 381.527 105.278 381.257 105.779 381.055C106.287 380.853 106.857 380.752 107.488 380.752C108.38 380.752 109.175 380.957 109.871 381.367C110.568 381.771 111.118 382.327 111.522 383.037C111.925 383.747 112.127 384.551 112.127 385.449V385.469C112.127 386.406 111.912 387.24 111.482 387.969C111.053 388.691 110.467 389.264 109.725 389.688C108.982 390.104 108.133 390.312 107.176 390.312Z" fill="black"/>
<path d="M139.532 390V388.789L144.336 383.633C144.948 382.975 145.424 382.435 145.762 382.012C146.101 381.582 146.335 381.195 146.465 380.85C146.602 380.505 146.67 380.127 146.67 379.717V379.697C146.67 379.209 146.56 378.773 146.338 378.389C146.123 377.998 145.817 377.692 145.42 377.471C145.023 377.243 144.554 377.129 144.014 377.129C143.448 377.129 142.946 377.246 142.51 377.48C142.08 377.715 141.745 378.04 141.504 378.457C141.263 378.867 141.143 379.342 141.143 379.883L141.133 379.912L139.444 379.902L139.434 379.883C139.441 379.056 139.642 378.32 140.039 377.676C140.443 377.025 140.997 376.517 141.7 376.152C142.403 375.781 143.2 375.596 144.092 375.596C144.919 375.596 145.661 375.768 146.319 376.113C146.983 376.458 147.504 376.927 147.881 377.52C148.265 378.112 148.457 378.786 148.457 379.541V379.561C148.457 380.088 148.363 380.599 148.174 381.094C147.985 381.582 147.657 382.129 147.188 382.734C146.719 383.333 146.055 384.072 145.196 384.951L141.504 388.76L141.963 387.891V388.76L141.514 388.418H148.692V390H139.532ZM151.661 390L157.999 377.588V377.48H150.45V375.908H159.776V377.539L153.507 390H151.661Z" fill="black"/>
<path d="M187.044 390V388.789L191.849 383.633C192.461 382.975 192.936 382.435 193.274 382.012C193.613 381.582 193.847 381.195 193.978 380.85C194.114 380.505 194.183 380.127 194.183 379.717V379.697C194.183 379.209 194.072 378.773 193.851 378.389C193.636 377.998 193.33 377.692 192.933 377.471C192.536 377.243 192.067 377.129 191.526 377.129C190.96 377.129 190.459 377.246 190.023 377.48C189.593 377.715 189.258 378.04 189.017 378.457C188.776 378.867 188.655 379.342 188.655 379.883L188.646 379.912L186.956 379.902L186.946 379.883C186.953 379.056 187.155 378.32 187.552 377.676C187.955 377.025 188.509 376.517 189.212 376.152C189.915 375.781 190.713 375.596 191.605 375.596C192.431 375.596 193.174 375.768 193.831 376.113C194.495 376.458 195.016 376.927 195.394 377.52C195.778 378.112 195.97 378.786 195.97 379.541V379.561C195.97 380.088 195.875 380.599 195.687 381.094C195.498 381.582 195.169 382.129 194.7 382.734C194.231 383.333 193.567 384.072 192.708 384.951L189.017 388.76L189.476 387.891V388.76L189.026 388.418H196.204V390H187.044ZM203.363 390.234C202.367 390.234 201.484 390.062 200.716 389.717C199.948 389.372 199.343 388.896 198.9 388.291C198.464 387.679 198.246 386.979 198.246 386.191V386.172C198.246 385.592 198.373 385.055 198.626 384.561C198.88 384.066 199.235 383.646 199.691 383.301C200.147 382.949 200.674 382.705 201.273 382.568V382.529C200.505 382.288 199.893 381.891 199.437 381.338C198.981 380.785 198.753 380.137 198.753 379.395V379.375C198.753 378.665 198.952 378.034 199.349 377.48C199.746 376.921 200.293 376.481 200.99 376.162C201.686 375.837 202.477 375.674 203.363 375.674C204.255 375.674 205.046 375.837 205.736 376.162C206.432 376.481 206.979 376.921 207.376 377.48C207.774 378.034 207.972 378.665 207.972 379.375V379.395C207.972 380.137 207.744 380.785 207.289 381.338C206.839 381.891 206.227 382.288 205.453 382.529V382.568C206.058 382.705 206.585 382.949 207.035 383.301C207.49 383.646 207.845 384.066 208.099 384.561C208.353 385.055 208.48 385.592 208.48 386.172V386.191C208.48 386.979 208.262 387.679 207.826 388.291C207.389 388.896 206.784 389.372 206.009 389.717C205.241 390.062 204.359 390.234 203.363 390.234ZM203.363 388.701C204.014 388.701 204.587 388.59 205.081 388.369C205.583 388.141 205.977 387.832 206.263 387.441C206.55 387.044 206.693 386.592 206.693 386.084V386.064C206.693 385.55 206.55 385.094 206.263 384.697C205.983 384.3 205.593 383.988 205.091 383.76C204.59 383.532 204.014 383.418 203.363 383.418C202.712 383.418 202.136 383.532 201.634 383.76C201.133 383.988 200.739 384.3 200.453 384.697C200.173 385.094 200.033 385.55 200.033 386.064V386.084C200.033 386.592 200.176 387.044 200.462 387.441C200.749 387.832 201.143 388.141 201.644 388.369C202.145 388.59 202.718 388.701 203.363 388.701ZM203.363 381.875C203.929 381.875 204.427 381.777 204.857 381.582C205.287 381.38 205.622 381.104 205.863 380.752C206.104 380.4 206.224 379.997 206.224 379.541V379.521C206.224 379.066 206.104 378.662 205.863 378.311C205.622 377.959 205.287 377.686 204.857 377.49C204.427 377.288 203.929 377.188 203.363 377.188C202.796 377.188 202.298 377.288 201.869 377.49C201.439 377.686 201.104 377.959 200.863 378.311C200.622 378.662 200.501 379.066 200.501 379.521V379.541C200.501 379.997 200.622 380.4 200.863 380.752C201.104 381.104 201.439 381.38 201.869 381.582C202.298 381.777 202.796 381.875 203.363 381.875Z" fill="black"/>
<path d="M235.181 390V388.789L239.986 383.633C240.598 382.975 241.073 382.435 241.412 382.012C241.75 381.582 241.985 381.195 242.115 380.85C242.252 380.505 242.32 380.127 242.32 379.717V379.697C242.32 379.209 242.209 378.773 241.988 378.389C241.773 377.998 241.467 377.692 241.07 377.471C240.673 377.243 240.204 377.129 239.664 377.129C239.097 377.129 238.596 377.246 238.16 377.48C237.73 377.715 237.395 378.04 237.154 378.457C236.913 378.867 236.793 379.342 236.793 379.883L236.783 379.912L235.094 379.902L235.084 379.883C235.09 379.056 235.292 378.32 235.689 377.676C236.093 377.025 236.646 376.517 237.349 376.152C238.053 375.781 238.85 375.596 239.742 375.596C240.569 375.596 241.311 375.768 241.969 376.113C242.633 376.458 243.153 376.927 243.531 377.52C243.915 378.112 244.107 378.786 244.107 379.541V379.561C244.107 380.088 244.013 380.599 243.824 381.094C243.635 381.582 243.306 382.129 242.838 382.734C242.369 383.333 241.705 384.072 240.846 384.951L237.154 388.76L237.613 387.891V388.76L237.164 388.418H244.342V390H235.181ZM251.363 375.596C252.008 375.596 252.646 375.719 253.278 375.967C253.909 376.214 254.479 376.615 254.987 377.168C255.501 377.721 255.911 378.451 256.217 379.355C256.523 380.26 256.676 381.374 256.676 382.695V382.715C256.676 384.31 256.461 385.674 256.031 386.807C255.602 387.939 254.983 388.809 254.176 389.414C253.369 390.013 252.392 390.312 251.246 390.312C250.459 390.312 249.746 390.169 249.108 389.883C248.47 389.59 247.939 389.186 247.516 388.672C247.093 388.151 246.8 387.546 246.637 386.855L246.608 386.729H248.375L248.414 386.836C248.557 387.227 248.759 387.565 249.02 387.852C249.287 388.132 249.609 388.35 249.987 388.506C250.364 388.662 250.791 388.74 251.266 388.74C252.125 388.74 252.822 388.49 253.356 387.988C253.89 387.487 254.287 386.823 254.547 385.996C254.807 385.169 254.954 384.264 254.987 383.281C254.993 383.197 254.996 383.115 254.996 383.037C254.996 382.952 254.996 382.871 254.996 382.793L254.576 380.459C254.576 379.84 254.433 379.284 254.147 378.789C253.867 378.288 253.486 377.891 253.004 377.598C252.522 377.305 251.982 377.158 251.383 377.158C250.797 377.158 250.26 377.301 249.772 377.588C249.29 377.874 248.906 378.262 248.619 378.75C248.333 379.238 248.19 379.788 248.19 380.4V380.42C248.19 381.038 248.326 381.592 248.6 382.08C248.873 382.562 249.248 382.939 249.723 383.213C250.205 383.486 250.748 383.623 251.354 383.623C251.966 383.623 252.513 383.49 252.994 383.223C253.483 382.949 253.867 382.575 254.147 382.1C254.433 381.618 254.576 381.074 254.576 380.469V380.459H255.153V382.959H254.84C254.671 383.35 254.407 383.714 254.049 384.053C253.697 384.385 253.268 384.652 252.76 384.854C252.259 385.055 251.689 385.156 251.051 385.156C250.172 385.156 249.381 384.954 248.678 384.551C247.981 384.141 247.431 383.581 247.028 382.871C246.624 382.155 246.422 381.351 246.422 380.459V380.439C246.422 379.502 246.634 378.669 247.057 377.939C247.487 377.21 248.072 376.637 248.815 376.221C249.563 375.804 250.413 375.596 251.363 375.596Z" fill="black"/>
<path d="M287.957 390.234C286.987 390.234 286.141 390.068 285.418 389.736C284.696 389.404 284.123 388.949 283.7 388.369C283.283 387.79 283.042 387.129 282.977 386.387L282.967 386.27H284.657L284.666 386.367C284.719 386.829 284.885 387.236 285.164 387.588C285.451 387.939 285.832 388.216 286.307 388.418C286.782 388.613 287.332 388.711 287.957 388.711C288.576 388.711 289.116 388.604 289.579 388.389C290.047 388.174 290.412 387.878 290.672 387.5C290.933 387.116 291.063 386.676 291.063 386.182V386.162C291.063 385.296 290.773 384.632 290.194 384.17C289.621 383.701 288.84 383.467 287.85 383.467H286.082V381.982H287.772C288.332 381.982 288.827 381.878 289.256 381.67C289.686 381.455 290.021 381.165 290.262 380.801C290.503 380.43 290.623 380.01 290.623 379.541V379.521C290.623 379.027 290.519 378.607 290.311 378.262C290.103 377.917 289.797 377.653 289.393 377.471C288.996 377.288 288.511 377.197 287.938 377.197C287.385 377.197 286.89 377.292 286.454 377.48C286.024 377.663 285.679 377.926 285.418 378.271C285.158 378.617 285.002 379.027 284.95 379.502L284.94 379.6H283.25L283.26 379.502C283.338 378.734 283.579 378.063 283.983 377.49C284.393 376.917 284.933 376.471 285.604 376.152C286.281 375.833 287.059 375.674 287.938 375.674C288.836 375.674 289.618 375.83 290.282 376.143C290.952 376.449 291.47 376.875 291.834 377.422C292.205 377.962 292.391 378.59 292.391 379.307V379.326C292.391 379.906 292.264 380.42 292.01 380.869C291.756 381.318 291.405 381.693 290.955 381.992C290.506 382.292 289.989 382.503 289.403 382.627V382.666C290.431 382.751 291.261 383.099 291.893 383.711C292.531 384.316 292.85 385.12 292.85 386.123V386.143C292.85 386.924 292.638 387.624 292.215 388.242C291.792 388.861 291.213 389.349 290.477 389.707C289.741 390.059 288.901 390.234 287.957 390.234ZM299.921 390.312C298.873 390.312 297.974 390.013 297.225 389.414C296.483 388.815 295.91 387.965 295.507 386.865C295.11 385.765 294.911 384.463 294.911 382.959V382.939C294.911 381.436 295.11 380.137 295.507 379.043C295.91 377.943 296.483 377.093 297.225 376.494C297.974 375.895 298.873 375.596 299.921 375.596C300.975 375.596 301.877 375.895 302.626 376.494C303.375 377.093 303.951 377.943 304.354 379.043C304.758 380.137 304.96 381.436 304.96 382.939V382.959C304.96 384.463 304.758 385.765 304.354 386.865C303.951 387.965 303.375 388.815 302.626 389.414C301.877 390.013 300.975 390.312 299.921 390.312ZM299.921 388.779C300.611 388.779 301.197 388.542 301.679 388.066C302.167 387.591 302.541 386.921 302.802 386.055C303.062 385.182 303.192 384.15 303.192 382.959V382.939C303.192 381.748 303.062 380.719 302.802 379.854C302.541 378.988 302.167 378.32 301.679 377.852C301.197 377.376 300.611 377.139 299.921 377.139C299.244 377.139 298.661 377.376 298.173 377.852C297.691 378.32 297.32 378.988 297.059 379.854C296.805 380.719 296.679 381.748 296.679 382.939V382.959C296.679 384.15 296.805 385.182 297.059 386.055C297.32 386.921 297.691 387.591 298.173 388.066C298.661 388.542 299.244 388.779 299.921 388.779Z" fill="black"/>
<path d="M376.115 422.667H31.1155V423.333H376.115V422.667Z" fill="#3C3C43" fill-opacity="0.36" mask="url(#path-51-inside-1_30_3698)"/>
<path d="M32.6428 451V439.022H40.0637V440.367H34.137V444.21H39.7566V445.538H34.137V449.655H40.0637V451H32.6428ZM42.1872 451V442.052H43.6315V443.396H43.7643C43.9912 442.921 44.3177 442.553 44.7438 442.292C45.1699 442.027 45.7122 441.894 46.3708 441.894C47.3779 441.894 48.1499 442.182 48.6867 442.757C49.229 443.327 49.5001 444.144 49.5001 445.206V451H48.0558V445.555C48.0558 444.747 47.8843 444.149 47.5412 443.762C47.2036 443.369 46.6779 443.172 45.964 443.172C45.4881 443.172 45.0758 443.275 44.7272 443.479C44.3786 443.684 44.1074 443.975 43.9137 444.351C43.7256 444.727 43.6315 445.178 43.6315 445.704V451H42.1872ZM55.0186 451.158C54.266 451.158 53.6075 450.967 53.043 450.585C52.4786 450.203 52.0414 449.666 51.7315 448.975C51.4216 448.277 51.2667 447.464 51.2667 446.534V446.518C51.2667 445.582 51.4216 444.769 51.7315 444.077C52.0414 443.385 52.4758 442.849 53.0347 442.467C53.5992 442.085 54.2605 441.894 55.0186 441.894C55.4281 441.894 55.8127 441.96 56.1724 442.093C56.5376 442.221 56.8614 442.4 57.1436 442.633C57.4258 442.865 57.6472 443.142 57.8077 443.463H57.9405V438.499H59.3848V451H57.9405V449.572H57.8077C57.625 449.904 57.3954 450.189 57.1187 450.427C56.842 450.66 56.5266 450.84 56.1724 450.967C55.8182 451.094 55.4336 451.158 55.0186 451.158ZM55.3506 449.879C55.893 449.879 56.3606 449.744 56.7535 449.473C57.1464 449.201 57.448 448.817 57.6583 448.319C57.8685 447.815 57.9737 447.22 57.9737 446.534V446.518C57.9737 445.826 57.8685 445.231 57.6583 444.733C57.448 444.235 57.1464 443.85 56.7535 443.579C56.3606 443.308 55.893 443.172 55.3506 443.172C54.8083 443.172 54.3407 443.308 53.9478 443.579C53.5604 443.845 53.2616 444.227 53.0513 444.725C52.8466 445.223 52.7442 445.82 52.7442 446.518V446.534C52.7442 447.226 52.8466 447.824 53.0513 448.327C53.2616 448.825 53.5604 449.21 53.9478 449.481C54.3407 449.747 54.8083 449.879 55.3506 449.879ZM64.8286 451.158C64.1645 451.158 63.5779 451.058 63.0688 450.859C62.5597 450.654 62.1502 450.369 61.8403 450.004C61.5359 449.639 61.3561 449.21 61.3007 448.717H62.7783C62.9 449.088 63.138 449.387 63.4921 449.614C63.8463 449.841 64.3084 449.954 64.8784 449.954C65.2823 449.954 65.6365 449.896 65.9409 449.78C66.2508 449.658 66.4943 449.495 66.6713 449.29C66.8484 449.08 66.937 448.839 66.937 448.568V448.551C66.937 448.247 66.8152 447.99 66.5717 447.779C66.3282 447.563 65.9298 447.389 65.3764 447.256L63.9902 446.924C63.4313 446.792 62.972 446.62 62.6123 446.41C62.2526 446.194 61.9869 445.931 61.8154 445.621C61.6438 445.306 61.5581 444.935 61.5581 444.509V444.5C61.5581 444.002 61.7019 443.557 61.9897 443.164C62.283 442.771 62.6814 442.461 63.185 442.234C63.6886 442.007 64.2558 441.894 64.8867 441.894C65.512 441.894 66.0654 441.994 66.5468 442.193C67.0338 442.387 67.4239 442.663 67.7172 443.023C68.0161 443.383 68.1987 443.806 68.2651 444.293H66.8457C66.7516 443.939 66.5358 443.651 66.1982 443.43C65.8606 443.208 65.4207 443.098 64.8784 443.098C64.5242 443.098 64.2088 443.156 63.9321 443.272C63.6554 443.383 63.4368 443.538 63.2763 443.737C63.1158 443.936 63.0356 444.168 63.0356 444.434V444.451C63.0356 444.65 63.0882 444.827 63.1933 444.982C63.2985 445.137 63.4617 445.272 63.6831 445.389C63.9044 445.505 64.1894 445.607 64.538 445.696L65.916 446.028C66.7571 446.233 67.3824 446.526 67.7919 446.908C68.207 447.29 68.4145 447.801 68.4145 448.443V448.46C68.4145 448.991 68.2568 449.462 67.9414 449.871C67.6259 450.275 67.1971 450.59 66.6547 450.817C66.118 451.044 65.5092 451.158 64.8286 451.158Z" fill="black"/>
<rect x="271.892" y="428" width="91" height="34" rx="6" fill="#767680" fill-opacity="0.12"/>
<path d="M288.614 451.199C287.767 451.199 287.017 451.053 286.364 450.759C285.711 450.466 285.196 450.062 284.82 449.547C284.449 449.027 284.264 448.432 284.264 447.763V447.746C284.264 447.254 284.372 446.797 284.588 446.376C284.803 445.956 285.105 445.599 285.492 445.306C285.88 445.007 286.328 444.799 286.837 444.683V444.65C286.184 444.445 285.664 444.108 285.277 443.637C284.889 443.167 284.696 442.616 284.696 441.985V441.969C284.696 441.366 284.864 440.829 285.202 440.358C285.539 439.882 286.004 439.509 286.596 439.238C287.189 438.961 287.861 438.823 288.614 438.823C289.372 438.823 290.044 438.961 290.631 439.238C291.223 439.509 291.688 439.882 292.025 440.358C292.363 440.829 292.531 441.366 292.531 441.969V441.985C292.531 442.616 292.338 443.167 291.95 443.637C291.569 444.108 291.048 444.445 290.39 444.65V444.683C290.905 444.799 291.353 445.007 291.735 445.306C292.122 445.599 292.424 445.956 292.639 446.376C292.855 446.797 292.963 447.254 292.963 447.746V447.763C292.963 448.432 292.778 449.027 292.407 449.547C292.036 450.062 291.522 450.466 290.863 450.759C290.21 451.053 289.46 451.199 288.614 451.199ZM288.614 449.896C289.167 449.896 289.654 449.802 290.074 449.614C290.501 449.42 290.835 449.157 291.079 448.825C291.322 448.488 291.444 448.103 291.444 447.671V447.655C291.444 447.218 291.322 446.83 291.079 446.493C290.841 446.155 290.509 445.889 290.083 445.696C289.657 445.502 289.167 445.405 288.614 445.405C288.06 445.405 287.57 445.502 287.144 445.696C286.718 445.889 286.383 446.155 286.14 446.493C285.902 446.83 285.783 447.218 285.783 447.655V447.671C285.783 448.103 285.905 448.488 286.148 448.825C286.392 449.157 286.726 449.42 287.153 449.614C287.579 449.802 288.066 449.896 288.614 449.896ZM288.614 444.094C289.095 444.094 289.518 444.011 289.884 443.845C290.249 443.673 290.534 443.438 290.739 443.139C290.943 442.84 291.046 442.497 291.046 442.11V442.093C291.046 441.706 290.943 441.363 290.739 441.064C290.534 440.765 290.249 440.533 289.884 440.367C289.518 440.195 289.095 440.109 288.614 440.109C288.132 440.109 287.709 440.195 287.344 440.367C286.978 440.533 286.693 440.765 286.489 441.064C286.284 441.363 286.181 441.706 286.181 442.093V442.11C286.181 442.497 286.284 442.84 286.489 443.139C286.693 443.438 286.978 443.673 287.344 443.845C287.709 444.011 288.132 444.094 288.614 444.094ZM296.566 449.298C296.272 449.298 296.018 449.193 295.802 448.983C295.592 448.767 295.487 448.513 295.487 448.219C295.487 447.92 295.592 447.666 295.802 447.456C296.018 447.245 296.272 447.14 296.566 447.14C296.865 447.14 297.119 447.245 297.329 447.456C297.54 447.666 297.645 447.92 297.645 448.219C297.645 448.513 297.54 448.767 297.329 448.983C297.119 449.193 296.865 449.298 296.566 449.298ZM296.566 442.874C296.272 442.874 296.018 442.768 295.802 442.558C295.592 442.342 295.487 442.088 295.487 441.794C295.487 441.496 295.592 441.241 295.802 441.031C296.018 440.82 296.272 440.715 296.566 440.715C296.865 440.715 297.119 440.82 297.329 441.031C297.54 441.241 297.645 441.496 297.645 441.794C297.645 442.088 297.54 442.342 297.329 442.558C297.119 442.768 296.865 442.874 296.566 442.874ZM304.435 451.282C303.549 451.282 302.791 451.028 302.16 450.519C301.535 450.009 301.054 449.287 300.716 448.352C300.378 447.411 300.21 446.299 300.21 445.015V444.999C300.21 443.715 300.378 442.605 300.716 441.67C301.054 440.735 301.535 440.013 302.16 439.503C302.791 438.994 303.549 438.74 304.435 438.74C305.32 438.74 306.078 438.994 306.709 439.503C307.34 440.013 307.824 440.735 308.162 441.67C308.505 442.605 308.677 443.715 308.677 444.999V445.015C308.677 446.299 308.505 447.411 308.162 448.352C307.824 449.287 307.34 450.009 306.709 450.519C306.078 451.028 305.32 451.282 304.435 451.282ZM304.435 449.979C305.01 449.979 305.5 449.777 305.904 449.373C306.314 448.969 306.626 448.396 306.842 447.655C307.063 446.913 307.174 446.033 307.174 445.015V444.999C307.174 443.98 307.063 443.103 306.842 442.367C306.626 441.626 306.314 441.056 305.904 440.657C305.5 440.253 305.01 440.051 304.435 440.051C303.865 440.051 303.375 440.253 302.966 440.657C302.562 441.056 302.252 441.626 302.036 442.367C301.82 443.103 301.712 443.98 301.712 444.999V445.015C301.712 446.033 301.82 446.913 302.036 447.655C302.252 448.396 302.562 448.969 302.966 449.373C303.375 449.777 303.865 449.979 304.435 449.979ZM315.143 451.282C314.257 451.282 313.499 451.028 312.868 450.519C312.243 450.009 311.762 449.287 311.424 448.352C311.087 447.411 310.918 446.299 310.918 445.015V444.999C310.918 443.715 311.087 442.605 311.424 441.67C311.762 440.735 312.243 440.013 312.868 439.503C313.499 438.994 314.257 438.74 315.143 438.74C316.028 438.74 316.786 438.994 317.417 439.503C318.048 440.013 318.532 440.735 318.87 441.67C319.213 442.605 319.385 443.715 319.385 444.999V445.015C319.385 446.299 319.213 447.411 318.87 448.352C318.532 449.287 318.048 450.009 317.417 450.519C316.786 451.028 316.028 451.282 315.143 451.282ZM315.143 449.979C315.718 449.979 316.208 449.777 316.612 449.373C317.022 448.969 317.334 448.396 317.55 447.655C317.771 446.913 317.882 446.033 317.882 445.015V444.999C317.882 443.98 317.771 443.103 317.55 442.367C317.334 441.626 317.022 441.056 316.612 440.657C316.208 440.253 315.718 440.051 315.143 440.051C314.573 440.051 314.083 440.253 313.674 440.657C313.27 441.056 312.96 441.626 312.744 442.367C312.528 443.103 312.42 443.98 312.42 444.999V445.015C312.42 446.033 312.528 446.913 312.744 447.655C312.96 448.396 313.27 448.969 313.674 449.373C314.083 449.777 314.573 449.979 315.143 449.979ZM325.859 451L330.275 439.022H331.421V440.956H330.948L327.428 451H325.859ZM327.86 447.572L328.324 446.302H333.737L334.201 447.572H327.86ZM334.6 451L331.08 440.956V439.022H331.753L336.169 451H334.6ZM338.269 451V439.022H340.004L344.104 449.016H344.237L348.338 439.022H350.073V451H348.678V441.853H347.948L349.624 439.354L344.802 451H343.54L338.725 439.354L340.394 441.853H339.663V451H338.269Z" fill="black"/>
<path d="M378.892 467H31.1155V467.666H378.892V467Z" fill="#3C3C43" fill-opacity="0.36" mask="url(#path-56-inside-2_30_3698)"/>
<rect x="28.2153" y="26" width="337.577" height="30" rx="15" fill="#EFEFEF"/>
<path d="M71.0906 47H69.5085V35.7412H62.7234V47H61.1414V34.3174H71.0906V47ZM77.757 47.167C76.8664 47.167 76.0929 46.9707 75.4367 46.5781C74.7863 46.1797 74.2824 45.6143 73.925 44.8818C73.5734 44.1494 73.3976 43.2822 73.3976 42.2803V42.2627C73.3976 41.249 73.5734 40.3789 73.925 39.6523C74.2824 38.9199 74.7863 38.3574 75.4367 37.9648C76.0929 37.5723 76.8664 37.376 77.757 37.376C78.6593 37.376 79.4357 37.5723 80.0861 37.9648C80.7365 38.3574 81.2375 38.9199 81.589 39.6523C81.9464 40.3789 82.1251 41.249 82.1251 42.2627V42.2803C82.1251 43.2881 81.9464 44.1582 81.589 44.8906C81.2375 45.6172 80.7365 46.1797 80.0861 46.5781C79.4357 46.9707 78.6593 47.167 77.757 47.167ZM77.757 45.8135C78.3546 45.8135 78.8615 45.6729 79.2775 45.3916C79.6935 45.1104 80.0099 44.709 80.2267 44.1875C80.4494 43.6602 80.5607 43.0244 80.5607 42.2803V42.2627C80.5607 41.5127 80.4494 40.874 80.2267 40.3467C80.0099 39.8193 79.6935 39.418 79.2775 39.1426C78.8615 38.8672 78.3546 38.7295 77.757 38.7295C77.1652 38.7295 76.6613 38.8672 76.2453 39.1426C75.8292 39.418 75.5099 39.8193 75.2873 40.3467C75.0705 40.874 74.9621 41.5127 74.9621 42.2627V42.2803C74.9621 43.0244 75.0705 43.6602 75.2873 44.1875C75.5099 44.709 75.8292 45.1104 76.2453 45.3916C76.6613 45.6729 77.1652 45.8135 77.757 45.8135ZM84.2212 47V37.543H85.7505V45.7344H89.3013V37.543H90.8306V45.7344H94.3814V37.543H95.9107V47H84.2212ZM99.2988 50.3135C99.1992 50.3135 99.0849 50.3076 98.956 50.2959C98.833 50.29 98.7187 50.2783 98.6132 50.2607V49.0039C98.707 49.0215 98.8095 49.0332 98.9208 49.0391C99.0322 49.0449 99.1406 49.0479 99.246 49.0479C99.6796 49.0479 100.034 48.9365 100.31 48.7139C100.591 48.4971 100.816 48.1162 100.986 47.5713L101.162 47.0088L97.664 37.543H99.2988L102.208 46.2617L101.61 45.3301H102.322L101.725 46.2617L104.625 37.543H106.233L102.533 47.5801C102.281 48.2832 102.012 48.834 101.725 49.2324C101.437 49.6309 101.101 49.9092 100.714 50.0674C100.333 50.2314 99.8613 50.3135 99.2988 50.3135ZM109.999 42.6846H109.525V47H107.995V37.543H109.525V41.498H109.999L113.664 37.543H115.501L111.124 42.1309V41.8584L115.668 47H113.708L109.999 42.6846ZM120.805 47.167C119.915 47.167 119.141 46.9707 118.485 46.5781C117.835 46.1797 117.331 45.6143 116.973 44.8818C116.622 44.1494 116.446 43.2822 116.446 42.2803V42.2627C116.446 41.249 116.622 40.3789 116.973 39.6523C117.331 38.9199 117.835 38.3574 118.485 37.9648C119.141 37.5723 119.915 37.376 120.805 37.376C121.708 37.376 122.484 37.5723 123.135 37.9648C123.785 38.3574 124.286 38.9199 124.637 39.6523C124.995 40.3789 125.174 41.249 125.174 42.2627V42.2803C125.174 43.2881 124.995 44.1582 124.637 44.8906C124.286 45.6172 123.785 46.1797 123.135 46.5781C122.484 46.9707 121.708 47.167 120.805 47.167ZM120.805 45.8135C121.403 45.8135 121.91 45.6729 122.326 45.3916C122.742 45.1104 123.058 44.709 123.275 44.1875C123.498 43.6602 123.609 43.0244 123.609 42.2803V42.2627C123.609 41.5127 123.498 40.874 123.275 40.3467C123.058 39.8193 122.742 39.418 122.326 39.1426C121.91 38.8672 121.403 38.7295 120.805 38.7295C120.214 38.7295 119.71 38.8672 119.294 39.1426C118.878 39.418 118.558 39.8193 118.336 40.3467C118.119 40.874 118.01 41.5127 118.01 42.2627V42.2803C118.01 43.0244 118.119 43.6602 118.336 44.1875C118.558 44.709 118.878 45.1104 119.294 45.3916C119.71 45.6729 120.214 45.8135 120.805 45.8135ZM127.27 47V37.543H131.277C132.174 37.543 132.871 37.7656 133.369 38.2109C133.867 38.6562 134.116 39.251 134.116 39.9951V40.0127C134.116 40.4814 133.97 40.9121 133.677 41.3047C133.384 41.6914 133.015 41.9316 132.569 42.0254V42.166C132.974 42.2188 133.322 42.3418 133.615 42.5352C133.908 42.7285 134.134 42.9746 134.292 43.2734C134.456 43.5664 134.538 43.8975 134.538 44.2666V44.2842C134.538 44.8291 134.409 45.3066 134.152 45.7168C133.894 46.1211 133.522 46.4375 133.035 46.666C132.555 46.8887 131.975 47 131.295 47H127.27ZM128.799 45.7344H131.234C131.814 45.7344 132.25 45.6084 132.543 45.3564C132.836 45.0986 132.983 44.7324 132.983 44.2578V44.2402C132.983 43.7422 132.813 43.3789 132.473 43.1504C132.133 42.9219 131.623 42.8076 130.944 42.8076H128.799V45.7344ZM128.799 41.542H130.812C131.427 41.542 131.878 41.4248 132.165 41.1904C132.452 40.9561 132.596 40.6162 132.596 40.1709V40.1533C132.596 39.749 132.473 39.4238 132.227 39.1777C131.981 38.9316 131.591 38.8086 131.058 38.8086H128.799V41.542ZM136.696 47V37.543H138.225V44.5918H139.025L137.988 45.1543L143.042 37.543H144.571V47H143.042V39.9424H142.233L143.27 39.3799L138.225 47H136.696ZM147.142 47V37.543H148.671V44.5918H149.471L148.434 45.1543L153.487 37.543H155.017V47H153.487V39.9424H152.679L153.716 39.3799L148.671 47H147.142ZM151.088 36.2334C150.484 36.2334 149.957 36.1074 149.506 35.8555C149.061 35.6035 148.712 35.2637 148.46 34.8359C148.214 34.4023 148.091 33.9131 148.091 33.3682H149.453C149.453 33.8486 149.597 34.2734 149.884 34.6426C150.177 35.0117 150.578 35.1963 151.088 35.1963C151.609 35.1963 152.011 35.0117 152.292 34.6426C152.579 34.2734 152.723 33.8486 152.723 33.3682H154.085C154.085 33.9131 153.959 34.4023 153.707 34.8359C153.461 35.2637 153.112 35.6035 152.661 35.8555C152.216 36.1074 151.691 36.2334 151.088 36.2334ZM166.609 50.1553V47.1143C165.631 47.0967 164.775 46.8887 164.043 46.4902C163.316 46.0859 162.748 45.5264 162.338 44.8115C161.933 44.0908 161.731 43.2471 161.731 42.2803V42.2627C161.731 41.29 161.933 40.4463 162.338 39.7314C162.748 39.0107 163.316 38.4512 164.043 38.0527C164.775 37.6484 165.631 37.4404 166.609 37.4287V34.3438H168.086V37.4287C169.064 37.4463 169.917 37.6543 170.643 38.0527C171.376 38.4512 171.944 39.0107 172.348 39.7314C172.753 40.4463 172.955 41.29 172.955 42.2627V42.2803C172.955 43.2529 172.753 44.0996 172.348 44.8203C171.944 45.5352 171.376 46.0918 170.643 46.4902C169.917 46.8887 169.064 47.0967 168.086 47.1143V50.1553H166.609ZM166.609 45.8047V38.7383C165.929 38.75 165.338 38.8994 164.834 39.1865C164.336 39.4736 163.949 39.8779 163.674 40.3994C163.404 40.9209 163.269 41.542 163.269 42.2627V42.2803C163.269 42.9951 163.404 43.6133 163.674 44.1348C163.949 44.6504 164.336 45.0547 164.834 45.3477C165.338 45.6348 165.929 45.7871 166.609 45.8047ZM168.086 45.8047C168.765 45.7871 169.354 45.6348 169.852 45.3477C170.35 45.0605 170.734 44.6562 171.004 44.1348C171.279 43.6133 171.417 42.9951 171.417 42.2803V42.2627C171.417 41.5479 171.279 40.9297 171.004 40.4082C170.734 39.8867 170.35 39.4824 169.852 39.1953C169.354 38.9082 168.765 38.7559 168.086 38.7383V45.8047ZM175.112 47V37.543H176.642V47H175.112ZM175.886 35.7236C175.599 35.7236 175.353 35.6211 175.148 35.416C174.943 35.2051 174.84 34.959 174.84 34.6777C174.84 34.3848 174.943 34.1357 175.148 33.9307C175.353 33.7256 175.599 33.623 175.886 33.623C176.179 33.623 176.428 33.7256 176.633 33.9307C176.838 34.1357 176.941 34.3848 176.941 34.6777C176.941 34.959 176.838 35.2051 176.633 35.416C176.428 35.6211 176.179 35.7236 175.886 35.7236ZM181.489 43.2734C181.424 44.1406 181.29 44.8584 181.085 45.4268C180.879 45.9893 180.595 46.4082 180.232 46.6836C179.875 46.9531 179.429 47.0879 178.896 47.0879C178.732 47.0879 178.591 47.0762 178.474 47.0527C178.357 47.0352 178.266 47.0146 178.202 46.9912V45.6113C178.243 45.623 178.316 45.6377 178.421 45.6553C178.527 45.667 178.635 45.6729 178.747 45.6729C179.04 45.6729 179.277 45.5615 179.459 45.3389C179.64 45.1162 179.778 44.8174 179.872 44.4424C179.971 44.0615 180.036 43.6338 180.065 43.1592L180.469 37.543H186.674V47H185.145V38.8086H181.84L181.489 43.2734ZM189.245 47V37.543H190.774V40.5752H192.62C193.704 40.5752 194.565 40.8652 195.204 41.4453C195.849 42.0254 196.171 42.8047 196.171 43.7832V43.8008C196.171 44.7734 195.849 45.5498 195.204 46.1299C194.565 46.71 193.704 47 192.62 47H189.245ZM192.62 41.8408H190.774V45.7344H192.62C193.247 45.7344 193.739 45.5586 194.097 45.207C194.46 44.8496 194.642 44.3809 194.642 43.8008V43.7832C194.642 43.1914 194.46 42.7197 194.097 42.3682C193.733 42.0166 193.241 41.8408 192.62 41.8408ZM204.085 37.543V38.8086H201.027V47H199.497V38.8086H196.43V37.543H204.085ZM205.874 50.1641V37.543H207.403V39.0547H207.535C207.728 38.7031 207.971 38.4043 208.264 38.1582C208.557 37.9062 208.891 37.7129 209.266 37.5781C209.641 37.4434 210.049 37.376 210.488 37.376C211.291 37.376 211.988 37.5781 212.58 37.9824C213.177 38.3867 213.64 38.9551 213.969 39.6875C214.297 40.4199 214.461 41.2783 214.461 42.2627V42.2803C214.461 43.2705 214.297 44.1318 213.969 44.8643C213.64 45.5908 213.177 46.1562 212.58 46.5605C211.988 46.9648 211.291 47.167 210.488 47.167C210.054 47.167 209.644 47.0996 209.258 46.9648C208.877 46.8242 208.537 46.6309 208.238 46.3848C207.945 46.1387 207.711 45.8457 207.535 45.5059H207.403V50.1641H205.874ZM210.136 45.8135C210.717 45.8135 211.212 45.6729 211.622 45.3916C212.032 45.1045 212.345 44.6973 212.562 44.1699C212.785 43.6426 212.896 43.0127 212.896 42.2803V42.2627C212.896 41.5244 212.785 40.8916 212.562 40.3643C212.345 39.8369 212.032 39.4326 211.622 39.1514C211.212 38.8701 210.717 38.7295 210.136 38.7295C209.568 38.7295 209.076 38.873 208.66 39.1602C208.244 39.4473 207.925 39.8545 207.702 40.3818C207.479 40.9033 207.368 41.5303 207.368 42.2627V42.2803C207.368 43.001 207.479 43.6279 207.702 44.1611C207.925 44.6885 208.244 45.0957 208.66 45.3828C209.076 45.6699 209.568 45.8135 210.136 45.8135Z" fill="#BDBDBD"/>
<path d="M52.4001 48L49.0692 44.6886L52.4001 48ZM50.915 40.2632C50.915 41.9243 50.2501 43.5173 49.0665 44.6919C47.8829 45.8664 46.2776 46.5263 44.6037 46.5263C42.9298 46.5263 41.3245 45.8664 40.1409 44.6919C38.9573 43.5173 38.2924 41.9243 38.2924 40.2632C38.2924 38.6021 38.9573 37.009 40.1409 35.8344C41.3245 34.6599 42.9298 34 44.6037 34C46.2776 34 47.8829 34.6599 49.0665 35.8344C50.2501 37.009 50.915 38.6021 50.915 40.2632V40.2632Z" stroke="black" stroke-width="2" stroke-linecap="round"/>
<rect y="482" width="393" height="362" fill="white"/>
<defs>
<linearGradient id="paint0_linear_30_3698" x1="705.343" y1="-4.90842e-06" x2="522.273" y2="508.327" gradientUnits="userSpaceOnUse">
<stop stop-color="#6CD7FF"/>
<stop offset="1" stop-color="#A574FF"/>
</linearGradient>
</defs>
</svg>
